ISO-10303-21;
HEADER;
/* Generated by software containing ST-Developer
 * from STEP Tools, Inc. (www.steptools.com) 
 */

FILE_DESCRIPTION(
/* description */ (''),
/* implementation_level */ '2;1');

FILE_NAME(
/* name */ '822e149e-d70f-442a-8dc5-c35f01ae54c7.stp',
/* time_stamp */ '2026-09-21T23:08:11Z',
/* author */ (''),
/* organization */ (''),
/* preprocessor_version */ 'ST-DEVELOPER v20.2',
/* originating_system */ 'Autodesk Translation Framework v15.17.0.0',
/* authorisation */ '');

FILE_SCHEMA (('AUTOMOTIVE_DESIGN { 1 0 10303 214 3 1 1 }'));
ENDSEC;

DATA;
#10=MECHANICAL_DESIGN_GEOMETRIC_PRESENTATION_REPRESENTATION('',(#13),#1632);
#11=SHAPE_REPRESENTATION_RELATIONSHIP('SRR','None',#1639,#12);
#12=ADVANCED_BREP_SHAPE_REPRESENTATION('',(#14),#1631);
#13=STYLED_ITEM('',(#1648),#14);
#14=MANIFOLD_SOLID_BREP('Body1',#1025);
#15=FACE_OUTER_BOUND('',#70,.T.);
#16=FACE_OUTER_BOUND('',#71,.T.);
#17=FACE_OUTER_BOUND('',#72,.T.);
#18=FACE_OUTER_BOUND('',#73,.T.);
#19=FACE_OUTER_BOUND('',#74,.T.);
#20=FACE_OUTER_BOUND('',#75,.T.);
#21=FACE_OUTER_BOUND('',#76,.T.);
#22=FACE_OUTER_BOUND('',#77,.T.);
#23=FACE_OUTER_BOUND('',#78,.T.);
#24=FACE_OUTER_BOUND('',#79,.T.);
#25=FACE_OUTER_BOUND('',#80,.T.);
#26=FACE_OUTER_BOUND('',#81,.T.);
#27=FACE_OUTER_BOUND('',#82,.T.);
#28=FACE_OUTER_BOUND('',#83,.T.);
#29=FACE_OUTER_BOUND('',#84,.T.);
#30=FACE_OUTER_BOUND('',#85,.T.);
#31=FACE_OUTER_BOUND('',#86,.T.);
#32=FACE_OUTER_BOUND('',#87,.T.);
#33=FACE_OUTER_BOUND('',#88,.T.);
#34=FACE_OUTER_BOUND('',#89,.T.);
#35=FACE_OUTER_BOUND('',#90,.T.);
#36=FACE_OUTER_BOUND('',#91,.T.);
#37=FACE_OUTER_BOUND('',#92,.T.);
#38=FACE_OUTER_BOUND('',#93,.T.);
#39=FACE_OUTER_BOUND('',#94,.T.);
#40=FACE_OUTER_BOUND('',#95,.T.);
#41=FACE_OUTER_BOUND('',#96,.T.);
#42=FACE_OUTER_BOUND('',#97,.T.);
#43=FACE_OUTER_BOUND('',#98,.T.);
#44=FACE_OUTER_BOUND('',#99,.T.);
#45=FACE_OUTER_BOUND('',#100,.T.);
#46=FACE_OUTER_BOUND('',#101,.T.);
#47=FACE_OUTER_BOUND('',#102,.T.);
#48=FACE_OUTER_BOUND('',#103,.T.);
#49=FACE_OUTER_BOUND('',#104,.T.);
#50=FACE_OUTER_BOUND('',#105,.T.);
#51=FACE_OUTER_BOUND('',#106,.T.);
#52=FACE_OUTER_BOUND('',#107,.T.);
#53=FACE_OUTER_BOUND('',#108,.T.);
#54=FACE_OUTER_BOUND('',#109,.T.);
#55=FACE_OUTER_BOUND('',#110,.T.);
#56=FACE_OUTER_BOUND('',#111,.T.);
#57=FACE_OUTER_BOUND('',#112,.T.);
#58=FACE_OUTER_BOUND('',#113,.T.);
#59=FACE_OUTER_BOUND('',#114,.T.);
#60=FACE_OUTER_BOUND('',#115,.T.);
#61=FACE_OUTER_BOUND('',#116,.T.);
#62=FACE_OUTER_BOUND('',#117,.T.);
#63=FACE_OUTER_BOUND('',#118,.T.);
#64=FACE_OUTER_BOUND('',#119,.T.);
#65=FACE_OUTER_BOUND('',#120,.T.);
#66=FACE_OUTER_BOUND('',#121,.T.);
#67=FACE_OUTER_BOUND('',#122,.T.);
#68=FACE_OUTER_BOUND('',#123,.T.);
#69=FACE_OUTER_BOUND('',#124,.T.);
#70=EDGE_LOOP('',(#633,#634,#635,#636));
#71=EDGE_LOOP('',(#637,#638,#639,#640));
#72=EDGE_LOOP('',(#641,#642,#643));
#73=EDGE_LOOP('',(#644,#645,#646,#647));
#74=EDGE_LOOP('',(#648,#649,#650,#651));
#75=EDGE_LOOP('',(#652,#653,#654));
#76=EDGE_LOOP('',(#655,#656,#657,#658));
#77=EDGE_LOOP('',(#659,#660,#661,#662));
#78=EDGE_LOOP('',(#663,#664,#665));
#79=EDGE_LOOP('',(#666,#667,#668,#669));
#80=EDGE_LOOP('',(#670,#671,#672,#673));
#81=EDGE_LOOP('',(#674,#675,#676,#677,#678,#679,#680,#681));
#82=EDGE_LOOP('',(#682,#683,#684,#685,#686,#687,#688,#689));
#83=EDGE_LOOP('',(#690,#691,#692,#693));
#84=EDGE_LOOP('',(#694,#695,#696,#697));
#85=EDGE_LOOP('',(#698,#699,#700,#701));
#86=EDGE_LOOP('',(#702,#703,#704,#705));
#87=EDGE_LOOP('',(#706,#707,#708,#709));
#88=EDGE_LOOP('',(#710,#711,#712,#713));
#89=EDGE_LOOP('',(#714,#715,#716,#717));
#90=EDGE_LOOP('',(#718,#719,#720,#721,#722));
#91=EDGE_LOOP('',(#723,#724,#725,#726,#727,#728,#729,#730,#731,#732,#733,
#734,#735,#736,#737,#738,#739,#740,#741,#742,#743,#744,#745,#746,#747,#748,
#749,#750,#751,#752));
#92=EDGE_LOOP('',(#753,#754,#755,#756,#757));
#93=EDGE_LOOP('',(#758,#759,#760,#761));
#94=EDGE_LOOP('',(#762,#763,#764,#765));
#95=EDGE_LOOP('',(#766,#767,#768,#769,#770));
#96=EDGE_LOOP('',(#771,#772,#773,#774));
#97=EDGE_LOOP('',(#775,#776,#777,#778,#779,#780,#781,#782,#783,#784));
#98=EDGE_LOOP('',(#785,#786,#787,#788,#789));
#99=EDGE_LOOP('',(#790,#791,#792,#793,#794));
#100=EDGE_LOOP('',(#795,#796,#797,#798));
#101=EDGE_LOOP('',(#799,#800,#801,#802));
#102=EDGE_LOOP('',(#803,#804,#805,#806,#807));
#103=EDGE_LOOP('',(#808,#809,#810,#811,#812));
#104=EDGE_LOOP('',(#813,#814,#815,#816,#817));
#105=EDGE_LOOP('',(#818,#819,#820,#821));
#106=EDGE_LOOP('',(#822,#823,#824,#825,#826));
#107=EDGE_LOOP('',(#827,#828,#829,#830));
#108=EDGE_LOOP('',(#831,#832,#833,#834));
#109=EDGE_LOOP('',(#835,#836,#837,#838));
#110=EDGE_LOOP('',(#839,#840,#841,#842,#843));
#111=EDGE_LOOP('',(#844,#845,#846,#847,#848));
#112=EDGE_LOOP('',(#849,#850,#851,#852,#853));
#113=EDGE_LOOP('',(#854,#855,#856,#857));
#114=EDGE_LOOP('',(#858,#859,#860,#861,#862));
#115=EDGE_LOOP('',(#863,#864,#865,#866));
#116=EDGE_LOOP('',(#867,#868,#869,#870,#871));
#117=EDGE_LOOP('',(#872,#873,#874,#875));
#118=EDGE_LOOP('',(#876,#877,#878,#879,#880));
#119=EDGE_LOOP('',(#881,#882,#883,#884,#885));
#120=EDGE_LOOP('',(#886,#887,#888,#889,#890));
#121=EDGE_LOOP('',(#891,#892,#893,#894,#895));
#122=EDGE_LOOP('',(#896,#897,#898,#899));
#123=EDGE_LOOP('',(#900,#901,#902,#903));
#124=EDGE_LOOP('',(#904,#905,#906,#907,#908,#909,#910,#911,#912,#913,#914));
#125=LINE('',#1351,#266);
#126=LINE('',#1353,#267);
#127=LINE('',#1355,#268);
#128=LINE('',#1356,#269);
#129=LINE('',#1359,#270);
#130=LINE('',#1360,#271);
#131=LINE('',#1362,#272);
#132=LINE('',#1363,#273);
#133=LINE('',#1365,#274);
#134=LINE('',#1369,#275);
#135=LINE('',#1371,#276);
#136=LINE('',#1373,#277);
#137=LINE('',#1374,#278);
#138=LINE('',#1377,#279);
#139=LINE('',#1378,#280);
#140=LINE('',#1380,#281);
#141=LINE('',#1381,#282);
#142=LINE('',#1383,#283);
#143=LINE('',#1387,#284);
#144=LINE('',#1389,#285);
#145=LINE('',#1391,#286);
#146=LINE('',#1392,#287);
#147=LINE('',#1395,#288);
#148=LINE('',#1396,#289);
#149=LINE('',#1398,#290);
#150=LINE('',#1399,#291);
#151=LINE('',#1401,#292);
#152=LINE('',#1404,#293);
#153=LINE('',#1406,#294);
#154=LINE('',#1407,#295);
#155=LINE('',#1410,#296);
#156=LINE('',#1412,#297);
#157=LINE('',#1413,#298);
#158=LINE('',#1416,#299);
#159=LINE('',#1418,#300);
#160=LINE('',#1420,#301);
#161=LINE('',#1422,#302);
#162=LINE('',#1424,#303);
#163=LINE('',#1426,#304);
#164=LINE('',#1427,#305);
#165=LINE('',#1430,#306);
#166=LINE('',#1432,#307);
#167=LINE('',#1433,#308);
#168=LINE('',#1435,#309);
#169=LINE('',#1437,#310);
#170=LINE('',#1438,#311);
#171=LINE('',#1441,#312);
#172=LINE('',#1443,#313);
#173=LINE('',#1444,#314);
#174=LINE('',#1448,#315);
#175=LINE('',#1450,#316);
#176=LINE('',#1452,#317);
#177=LINE('',#1453,#318);
#178=LINE('',#1456,#319);
#179=LINE('',#1458,#320);
#180=LINE('',#1459,#321);
#181=LINE('',#1462,#322);
#182=LINE('',#1464,#323);
#183=LINE('',#1465,#324);
#184=LINE('',#1468,#325);
#185=LINE('',#1470,#326);
#186=LINE('',#1471,#327);
#187=LINE('',#1473,#328);
#188=LINE('',#1476,#329);
#189=LINE('',#1478,#330);
#190=LINE('',#1479,#331);
#191=LINE('',#1482,#332);
#192=LINE('',#1484,#333);
#193=LINE('',#1486,#334);
#194=LINE('',#1487,#335);
#195=LINE('',#1490,#336);
#196=LINE('',#1491,#337);
#197=LINE('',#1493,#338);
#198=LINE('',#1495,#339);
#199=LINE('',#1497,#340);
#200=LINE('',#1499,#341);
#201=LINE('',#1501,#342);
#202=LINE('',#1503,#343);
#203=LINE('',#1505,#344);
#204=LINE('',#1507,#345);
#205=LINE('',#1509,#346);
#206=LINE('',#1511,#347);
#207=LINE('',#1513,#348);
#208=LINE('',#1515,#349);
#209=LINE('',#1517,#350);
#210=LINE('',#1519,#351);
#211=LINE('',#1521,#352);
#212=LINE('',#1523,#353);
#213=LINE('',#1525,#354);
#214=LINE('',#1527,#355);
#215=LINE('',#1529,#356);
#216=LINE('',#1531,#357);
#217=LINE('',#1532,#358);
#218=LINE('',#1535,#359);
#219=LINE('',#1536,#360);
#220=LINE('',#1538,#361);
#221=LINE('',#1541,#362);
#222=LINE('',#1543,#363);
#223=LINE('',#1544,#364);
#224=LINE('',#1547,#365);
#225=LINE('',#1549,#366);
#226=LINE('',#1550,#367);
#227=LINE('',#1553,#368);
#228=LINE('',#1554,#369);
#229=LINE('',#1557,#370);
#230=LINE('',#1558,#371);
#231=LINE('',#1559,#372);
#232=LINE('',#1561,#373);
#233=LINE('',#1563,#374);
#234=LINE('',#1564,#375);
#235=LINE('',#1566,#376);
#236=LINE('',#1568,#377);
#237=LINE('',#1570,#378);
#238=LINE('',#1572,#379);
#239=LINE('',#1575,#380);
#240=LINE('',#1577,#381);
#241=LINE('',#1578,#382);
#242=LINE('',#1580,#383);
#243=LINE('',#1582,#384);
#244=LINE('',#1584,#385);
#245=LINE('',#1587,#386);
#246=LINE('',#1589,#387);
#247=LINE('',#1592,#388);
#248=LINE('',#1593,#389);
#249=LINE('',#1596,#390);
#250=LINE('',#1597,#391);
#251=LINE('',#1599,#392);
#252=LINE('',#1601,#393);
#253=LINE('',#1603,#394);
#254=LINE('',#1605,#395);
#255=LINE('',#1607,#396);
#256=LINE('',#1609,#397);
#257=LINE('',#1611,#398);
#258=LINE('',#1614,#399);
#259=LINE('',#1615,#400);
#260=LINE('',#1618,#401);
#261=LINE('',#1619,#402);
#262=LINE('',#1622,#403);
#263=LINE('',#1623,#404);
#264=LINE('',#1625,#405);
#265=LINE('',#1627,#406);
#266=VECTOR('',#1098,10.);
#267=VECTOR('',#1099,10.);
#268=VECTOR('',#1100,10.);
#269=VECTOR('',#1101,10.);
#270=VECTOR('',#1104,10.);
#271=VECTOR('',#1105,10.);
#272=VECTOR('',#1106,10.);
#273=VECTOR('',#1107,10.);
#274=VECTOR('',#1110,10.);
#275=VECTOR('',#1113,10.);
#276=VECTOR('',#1114,10.);
#277=VECTOR('',#1115,10.);
#278=VECTOR('',#1116,10.);
#279=VECTOR('',#1119,10.);
#280=VECTOR('',#1120,10.);
#281=VECTOR('',#1121,10.);
#282=VECTOR('',#1122,10.);
#283=VECTOR('',#1125,10.);
#284=VECTOR('',#1128,10.);
#285=VECTOR('',#1129,10.);
#286=VECTOR('',#1130,10.);
#287=VECTOR('',#1131,10.);
#288=VECTOR('',#1134,10.);
#289=VECTOR('',#1135,10.);
#290=VECTOR('',#1136,10.);
#291=VECTOR('',#1137,10.);
#292=VECTOR('',#1140,10.);
#293=VECTOR('',#1143,10.);
#294=VECTOR('',#1144,10.);
#295=VECTOR('',#1145,10.);
#296=VECTOR('',#1148,10.);
#297=VECTOR('',#1149,10.);
#298=VECTOR('',#1150,10.);
#299=VECTOR('',#1153,10.);
#300=VECTOR('',#1154,10.);
#301=VECTOR('',#1155,10.);
#302=VECTOR('',#1156,10.);
#303=VECTOR('',#1157,10.);
#304=VECTOR('',#1158,10.);
#305=VECTOR('',#1159,10.);
#306=VECTOR('',#1162,10.);
#307=VECTOR('',#1163,10.);
#308=VECTOR('',#1164,10.);
#309=VECTOR('',#1165,10.);
#310=VECTOR('',#1166,10.);
#311=VECTOR('',#1167,10.);
#312=VECTOR('',#1170,10.);
#313=VECTOR('',#1171,10.);
#314=VECTOR('',#1172,10.);
#315=VECTOR('',#1175,10.);
#316=VECTOR('',#1176,10.);
#317=VECTOR('',#1177,10.);
#318=VECTOR('',#1178,10.);
#319=VECTOR('',#1181,10.);
#320=VECTOR('',#1182,10.);
#321=VECTOR('',#1183,10.);
#322=VECTOR('',#1186,10.);
#323=VECTOR('',#1187,10.);
#324=VECTOR('',#1188,10.);
#325=VECTOR('',#1191,10.);
#326=VECTOR('',#1192,10.);
#327=VECTOR('',#1193,10.);
#328=VECTOR('',#1196,10.);
#329=VECTOR('',#1199,10.);
#330=VECTOR('',#1200,10.);
#331=VECTOR('',#1201,10.);
#332=VECTOR('',#1204,10.);
#333=VECTOR('',#1205,10.);
#334=VECTOR('',#1206,10.);
#335=VECTOR('',#1207,10.);
#336=VECTOR('',#1210,10.);
#337=VECTOR('',#1211,10.);
#338=VECTOR('',#1212,10.);
#339=VECTOR('',#1213,10.);
#340=VECTOR('',#1214,10.);
#341=VECTOR('',#1215,10.);
#342=VECTOR('',#1216,10.);
#343=VECTOR('',#1217,10.);
#344=VECTOR('',#1218,10.);
#345=VECTOR('',#1219,10.);
#346=VECTOR('',#1220,10.);
#347=VECTOR('',#1221,10.);
#348=VECTOR('',#1222,10.);
#349=VECTOR('',#1223,10.);
#350=VECTOR('',#1224,10.);
#351=VECTOR('',#1225,10.);
#352=VECTOR('',#1226,10.);
#353=VECTOR('',#1227,10.);
#354=VECTOR('',#1228,10.);
#355=VECTOR('',#1229,10.);
#356=VECTOR('',#1230,10.);
#357=VECTOR('',#1231,10.);
#358=VECTOR('',#1232,10.);
#359=VECTOR('',#1235,10.);
#360=VECTOR('',#1236,10.);
#361=VECTOR('',#1239,10.);
#362=VECTOR('',#1242,10.);
#363=VECTOR('',#1243,10.);
#364=VECTOR('',#1244,10.);
#365=VECTOR('',#1247,10.);
#366=VECTOR('',#1248,10.);
#367=VECTOR('',#1249,10.);
#368=VECTOR('',#1252,10.);
#369=VECTOR('',#1253,10.);
#370=VECTOR('',#1256,10.);
#371=VECTOR('',#1257,10.);
#372=VECTOR('',#1258,10.);
#373=VECTOR('',#1261,10.);
#374=VECTOR('',#1262,10.);
#375=VECTOR('',#1263,10.);
#376=VECTOR('',#1266,10.);
#377=VECTOR('',#1269,10.);
#378=VECTOR('',#1272,10.);
#379=VECTOR('',#1275,10.);
#380=VECTOR('',#1278,10.);
#381=VECTOR('',#1279,10.);
#382=VECTOR('',#1280,10.);
#383=VECTOR('',#1283,10.);
#384=VECTOR('',#1286,10.);
#385=VECTOR('',#1289,10.);
#386=VECTOR('',#1294,10.);
#387=VECTOR('',#1297,10.);
#388=VECTOR('',#1300,10.);
#389=VECTOR('',#1301,10.);
#390=VECTOR('',#1304,10.);
#391=VECTOR('',#1305,10.);
#392=VECTOR('',#1308,10.);
#393=VECTOR('',#1311,10.);
#394=VECTOR('',#1314,10.);
#395=VECTOR('',#1317,10.);
#396=VECTOR('',#1320,10.);
#397=VECTOR('',#1323,10.);
#398=VECTOR('',#1326,10.);
#399=VECTOR('',#1329,10.);
#400=VECTOR('',#1330,10.);
#401=VECTOR('',#1333,10.);
#402=VECTOR('',#1334,10.);
#403=VECTOR('',#1337,10.);
#404=VECTOR('',#1338,10.);
#405=VECTOR('',#1341,10.);
#406=VECTOR('',#1344,10.);
#407=VERTEX_POINT('',#1349);
#408=VERTEX_POINT('',#1350);
#409=VERTEX_POINT('',#1352);
#410=VERTEX_POINT('',#1354);
#411=VERTEX_POINT('',#1358);
#412=VERTEX_POINT('',#1361);
#413=VERTEX_POINT('',#1367);
#414=VERTEX_POINT('',#1368);
#415=VERTEX_POINT('',#1370);
#416=VERTEX_POINT('',#1372);
#417=VERTEX_POINT('',#1376);
#418=VERTEX_POINT('',#1379);
#419=VERTEX_POINT('',#1385);
#420=VERTEX_POINT('',#1386);
#421=VERTEX_POINT('',#1388);
#422=VERTEX_POINT('',#1390);
#423=VERTEX_POINT('',#1394);
#424=VERTEX_POINT('',#1397);
#425=VERTEX_POINT('',#1403);
#426=VERTEX_POINT('',#1405);
#427=VERTEX_POINT('',#1409);
#428=VERTEX_POINT('',#1411);
#429=VERTEX_POINT('',#1415);
#430=VERTEX_POINT('',#1417);
#431=VERTEX_POINT('',#1419);
#432=VERTEX_POINT('',#1421);
#433=VERTEX_POINT('',#1423);
#434=VERTEX_POINT('',#1425);
#435=VERTEX_POINT('',#1429);
#436=VERTEX_POINT('',#1431);
#437=VERTEX_POINT('',#1434);
#438=VERTEX_POINT('',#1436);
#439=VERTEX_POINT('',#1440);
#440=VERTEX_POINT('',#1442);
#441=VERTEX_POINT('',#1446);
#442=VERTEX_POINT('',#1447);
#443=VERTEX_POINT('',#1449);
#444=VERTEX_POINT('',#1451);
#445=VERTEX_POINT('',#1455);
#446=VERTEX_POINT('',#1457);
#447=VERTEX_POINT('',#1461);
#448=VERTEX_POINT('',#1463);
#449=VERTEX_POINT('',#1467);
#450=VERTEX_POINT('',#1469);
#451=VERTEX_POINT('',#1475);
#452=VERTEX_POINT('',#1477);
#453=VERTEX_POINT('',#1481);
#454=VERTEX_POINT('',#1483);
#455=VERTEX_POINT('',#1485);
#456=VERTEX_POINT('',#1489);
#457=VERTEX_POINT('',#1492);
#458=VERTEX_POINT('',#1494);
#459=VERTEX_POINT('',#1496);
#460=VERTEX_POINT('',#1498);
#461=VERTEX_POINT('',#1500);
#462=VERTEX_POINT('',#1502);
#463=VERTEX_POINT('',#1504);
#464=VERTEX_POINT('',#1506);
#465=VERTEX_POINT('',#1508);
#466=VERTEX_POINT('',#1510);
#467=VERTEX_POINT('',#1512);
#468=VERTEX_POINT('',#1514);
#469=VERTEX_POINT('',#1516);
#470=VERTEX_POINT('',#1518);
#471=VERTEX_POINT('',#1520);
#472=VERTEX_POINT('',#1522);
#473=VERTEX_POINT('',#1524);
#474=VERTEX_POINT('',#1526);
#475=VERTEX_POINT('',#1528);
#476=VERTEX_POINT('',#1530);
#477=VERTEX_POINT('',#1534);
#478=VERTEX_POINT('',#1540);
#479=VERTEX_POINT('',#1542);
#480=VERTEX_POINT('',#1546);
#481=VERTEX_POINT('',#1548);
#482=VERTEX_POINT('',#1552);
#483=VERTEX_POINT('',#1556);
#484=VERTEX_POINT('',#1562);
#485=VERTEX_POINT('',#1574);
#486=VERTEX_POINT('',#1576);
#487=VERTEX_POINT('',#1591);
#488=VERTEX_POINT('',#1595);
#489=VERTEX_POINT('',#1613);
#490=VERTEX_POINT('',#1617);
#491=VERTEX_POINT('',#1621);
#492=EDGE_CURVE('',#407,#408,#125,.T.);
#493=EDGE_CURVE('',#408,#409,#126,.T.);
#494=EDGE_CURVE('',#410,#409,#127,.T.);
#495=EDGE_CURVE('',#407,#410,#128,.T.);
#496=EDGE_CURVE('',#407,#411,#129,.T.);
#497=EDGE_CURVE('',#407,#410,#130,.T.);
#498=EDGE_CURVE('',#412,#410,#131,.T.);
#499=EDGE_CURVE('',#411,#412,#132,.T.);
#500=EDGE_CURVE('',#408,#411,#133,.T.);
#501=EDGE_CURVE('',#413,#414,#134,.T.);
#502=EDGE_CURVE('',#414,#415,#135,.T.);
#503=EDGE_CURVE('',#416,#415,#136,.T.);
#504=EDGE_CURVE('',#413,#416,#137,.T.);
#505=EDGE_CURVE('',#413,#417,#138,.T.);
#506=EDGE_CURVE('',#413,#416,#139,.T.);
#507=EDGE_CURVE('',#418,#416,#140,.T.);
#508=EDGE_CURVE('',#417,#418,#141,.T.);
#509=EDGE_CURVE('',#414,#417,#142,.T.);
#510=EDGE_CURVE('',#419,#420,#143,.T.);
#511=EDGE_CURVE('',#420,#421,#144,.T.);
#512=EDGE_CURVE('',#422,#421,#145,.T.);
#513=EDGE_CURVE('',#419,#422,#146,.T.);
#514=EDGE_CURVE('',#419,#423,#147,.T.);
#515=EDGE_CURVE('',#419,#422,#148,.T.);
#516=EDGE_CURVE('',#424,#422,#149,.T.);
#517=EDGE_CURVE('',#423,#424,#150,.T.);
#518=EDGE_CURVE('',#420,#423,#151,.T.);
#519=EDGE_CURVE('',#425,#409,#152,.T.);
#520=EDGE_CURVE('',#426,#425,#153,.T.);
#521=EDGE_CURVE('',#410,#426,#154,.T.);
#522=EDGE_CURVE('',#427,#410,#155,.T.);
#523=EDGE_CURVE('',#428,#427,#156,.T.);
#524=EDGE_CURVE('',#412,#428,#157,.T.);
#525=EDGE_CURVE('',#421,#429,#158,.T.);
#526=EDGE_CURVE('',#429,#430,#159,.T.);
#527=EDGE_CURVE('',#430,#431,#160,.T.);
#528=EDGE_CURVE('',#431,#432,#161,.T.);
#529=EDGE_CURVE('',#432,#433,#162,.T.);
#530=EDGE_CURVE('',#433,#434,#163,.T.);
#531=EDGE_CURVE('',#434,#422,#164,.T.);
#532=EDGE_CURVE('',#415,#435,#165,.T.);
#533=EDGE_CURVE('',#435,#436,#166,.T.);
#534=EDGE_CURVE('',#436,#424,#167,.T.);
#535=EDGE_CURVE('',#422,#437,#168,.T.);
#536=EDGE_CURVE('',#437,#438,#169,.T.);
#537=EDGE_CURVE('',#438,#416,#170,.T.);
#538=EDGE_CURVE('',#416,#439,#171,.T.);
#539=EDGE_CURVE('',#439,#440,#172,.T.);
#540=EDGE_CURVE('',#440,#418,#173,.T.);
#541=EDGE_CURVE('',#441,#442,#174,.T.);
#542=EDGE_CURVE('',#443,#441,#175,.T.);
#543=EDGE_CURVE('',#444,#443,#176,.T.);
#544=EDGE_CURVE('',#444,#442,#177,.T.);
#545=EDGE_CURVE('',#445,#430,#178,.T.);
#546=EDGE_CURVE('',#446,#445,#179,.T.);
#547=EDGE_CURVE('',#431,#446,#180,.T.);
#548=EDGE_CURVE('',#433,#447,#181,.T.);
#549=EDGE_CURVE('',#432,#448,#182,.T.);
#550=EDGE_CURVE('',#447,#448,#183,.T.);
#551=EDGE_CURVE('',#442,#449,#184,.T.);
#552=EDGE_CURVE('',#450,#444,#185,.T.);
#553=EDGE_CURVE('',#449,#450,#186,.T.);
#554=EDGE_CURVE('',#448,#446,#187,.T.);
#555=EDGE_CURVE('',#451,#441,#188,.T.);
#556=EDGE_CURVE('',#452,#451,#189,.T.);
#557=EDGE_CURVE('',#443,#452,#190,.T.);
#558=EDGE_CURVE('',#450,#453,#191,.T.);
#559=EDGE_CURVE('',#454,#453,#192,.T.);
#560=EDGE_CURVE('',#455,#454,#193,.T.);
#561=EDGE_CURVE('',#449,#455,#194,.T.);
#562=EDGE_CURVE('',#455,#456,#195,.T.);
#563=EDGE_CURVE('',#456,#447,#196,.T.);
#564=EDGE_CURVE('',#445,#457,#197,.T.);
#565=EDGE_CURVE('',#457,#458,#198,.T.);
#566=EDGE_CURVE('',#458,#459,#199,.T.);
#567=EDGE_CURVE('',#460,#459,#200,.T.);
#568=EDGE_CURVE('',#461,#460,#201,.T.);
#569=EDGE_CURVE('',#461,#462,#202,.T.);
#570=EDGE_CURVE('',#463,#462,#203,.T.);
#571=EDGE_CURVE('',#463,#464,#204,.T.);
#572=EDGE_CURVE('',#464,#465,#205,.T.);
#573=EDGE_CURVE('',#465,#466,#206,.T.);
#574=EDGE_CURVE('',#467,#466,#207,.T.);
#575=EDGE_CURVE('',#467,#468,#208,.T.);
#576=EDGE_CURVE('',#468,#469,#209,.T.);
#577=EDGE_CURVE('',#469,#470,#210,.T.);
#578=EDGE_CURVE('',#471,#470,#211,.T.);
#579=EDGE_CURVE('',#471,#472,#212,.T.);
#580=EDGE_CURVE('',#472,#473,#213,.T.);
#581=EDGE_CURVE('',#473,#474,#214,.T.);
#582=EDGE_CURVE('',#474,#475,#215,.T.);
#583=EDGE_CURVE('',#475,#476,#216,.T.);
#584=EDGE_CURVE('',#476,#451,#217,.T.);
#585=EDGE_CURVE('',#477,#456,#218,.T.);
#586=EDGE_CURVE('',#477,#434,#219,.T.);
#587=EDGE_CURVE('',#457,#429,#220,.T.);
#588=EDGE_CURVE('',#474,#478,#221,.T.);
#589=EDGE_CURVE('',#479,#473,#222,.T.);
#590=EDGE_CURVE('',#478,#479,#223,.T.);
#591=EDGE_CURVE('',#479,#480,#224,.T.);
#592=EDGE_CURVE('',#481,#472,#225,.T.);
#593=EDGE_CURVE('',#480,#481,#226,.T.);
#594=EDGE_CURVE('',#478,#482,#227,.T.);
#595=EDGE_CURVE('',#475,#482,#228,.T.);
#596=EDGE_CURVE('',#483,#452,#229,.T.);
#597=EDGE_CURVE('',#482,#483,#230,.T.);
#598=EDGE_CURVE('',#453,#480,#231,.T.);
#599=EDGE_CURVE('',#467,#425,#232,.T.);
#600=EDGE_CURVE('',#484,#466,#233,.T.);
#601=EDGE_CURVE('',#484,#426,#234,.T.);
#602=EDGE_CURVE('',#468,#408,#235,.T.);
#603=EDGE_CURVE('',#454,#481,#236,.T.);
#604=EDGE_CURVE('',#469,#411,#237,.T.);
#605=EDGE_CURVE('',#470,#428,#238,.T.);
#606=EDGE_CURVE('',#485,#407,#239,.T.);
#607=EDGE_CURVE('',#486,#485,#240,.T.);
#608=EDGE_CURVE('',#486,#427,#241,.T.);
#609=EDGE_CURVE('',#485,#484,#242,.T.);
#610=EDGE_CURVE('',#476,#483,#243,.T.);
#611=EDGE_CURVE('',#471,#486,#244,.T.);
#612=EDGE_CURVE('',#477,#454,#245,.T.);
#613=EDGE_CURVE('',#481,#486,#246,.T.);
#614=EDGE_CURVE('',#487,#477,#247,.T.);
#615=EDGE_CURVE('',#487,#419,#248,.T.);
#616=EDGE_CURVE('',#488,#487,#249,.T.);
#617=EDGE_CURVE('',#488,#437,#250,.T.);
#618=EDGE_CURVE('',#458,#420,#251,.T.);
#619=EDGE_CURVE('',#459,#423,#252,.T.);
#620=EDGE_CURVE('',#460,#436,#253,.T.);
#621=EDGE_CURVE('',#461,#435,#254,.T.);
#622=EDGE_CURVE('',#462,#414,#255,.T.);
#623=EDGE_CURVE('',#463,#417,#256,.T.);
#624=EDGE_CURVE('',#464,#440,#257,.T.);
#625=EDGE_CURVE('',#489,#439,#258,.T.);
#626=EDGE_CURVE('',#465,#489,#259,.T.);
#627=EDGE_CURVE('',#489,#490,#260,.T.);
#628=EDGE_CURVE('',#490,#413,#261,.T.);
#629=EDGE_CURVE('',#490,#491,#262,.T.);
#630=EDGE_CURVE('',#491,#438,#263,.T.);
#631=EDGE_CURVE('',#491,#488,#264,.T.);
#632=EDGE_CURVE('',#484,#489,#265,.T.);
#633=ORIENTED_EDGE('',*,*,#492,.T.);
#634=ORIENTED_EDGE('',*,*,#493,.T.);
#635=ORIENTED_EDGE('',*,*,#494,.F.);
#636=ORIENTED_EDGE('',*,*,#495,.F.);
#637=ORIENTED_EDGE('',*,*,#496,.F.);
#638=ORIENTED_EDGE('',*,*,#497,.T.);
#639=ORIENTED_EDGE('',*,*,#498,.F.);
#640=ORIENTED_EDGE('',*,*,#499,.F.);
#641=ORIENTED_EDGE('',*,*,#496,.T.);
#642=ORIENTED_EDGE('',*,*,#500,.F.);
#643=ORIENTED_EDGE('',*,*,#492,.F.);
#644=ORIENTED_EDGE('',*,*,#501,.T.);
#645=ORIENTED_EDGE('',*,*,#502,.T.);
#646=ORIENTED_EDGE('',*,*,#503,.F.);
#647=ORIENTED_EDGE('',*,*,#504,.F.);
#648=ORIENTED_EDGE('',*,*,#505,.F.);
#649=ORIENTED_EDGE('',*,*,#506,.T.);
#650=ORIENTED_EDGE('',*,*,#507,.F.);
#651=ORIENTED_EDGE('',*,*,#508,.F.);
#652=ORIENTED_EDGE('',*,*,#505,.T.);
#653=ORIENTED_EDGE('',*,*,#509,.F.);
#654=ORIENTED_EDGE('',*,*,#501,.F.);
#655=ORIENTED_EDGE('',*,*,#510,.T.);
#656=ORIENTED_EDGE('',*,*,#511,.T.);
#657=ORIENTED_EDGE('',*,*,#512,.F.);
#658=ORIENTED_EDGE('',*,*,#513,.F.);
#659=ORIENTED_EDGE('',*,*,#514,.F.);
#660=ORIENTED_EDGE('',*,*,#515,.T.);
#661=ORIENTED_EDGE('',*,*,#516,.F.);
#662=ORIENTED_EDGE('',*,*,#517,.F.);
#663=ORIENTED_EDGE('',*,*,#514,.T.);
#664=ORIENTED_EDGE('',*,*,#518,.F.);
#665=ORIENTED_EDGE('',*,*,#510,.F.);
#666=ORIENTED_EDGE('',*,*,#494,.T.);
#667=ORIENTED_EDGE('',*,*,#519,.F.);
#668=ORIENTED_EDGE('',*,*,#520,.F.);
#669=ORIENTED_EDGE('',*,*,#521,.F.);
#670=ORIENTED_EDGE('',*,*,#498,.T.);
#671=ORIENTED_EDGE('',*,*,#522,.F.);
#672=ORIENTED_EDGE('',*,*,#523,.F.);
#673=ORIENTED_EDGE('',*,*,#524,.F.);
#674=ORIENTED_EDGE('',*,*,#512,.T.);
#675=ORIENTED_EDGE('',*,*,#525,.T.);
#676=ORIENTED_EDGE('',*,*,#526,.T.);
#677=ORIENTED_EDGE('',*,*,#527,.T.);
#678=ORIENTED_EDGE('',*,*,#528,.T.);
#679=ORIENTED_EDGE('',*,*,#529,.T.);
#680=ORIENTED_EDGE('',*,*,#530,.T.);
#681=ORIENTED_EDGE('',*,*,#531,.T.);
#682=ORIENTED_EDGE('',*,*,#503,.T.);
#683=ORIENTED_EDGE('',*,*,#532,.T.);
#684=ORIENTED_EDGE('',*,*,#533,.T.);
#685=ORIENTED_EDGE('',*,*,#534,.T.);
#686=ORIENTED_EDGE('',*,*,#516,.T.);
#687=ORIENTED_EDGE('',*,*,#535,.T.);
#688=ORIENTED_EDGE('',*,*,#536,.T.);
#689=ORIENTED_EDGE('',*,*,#537,.T.);
#690=ORIENTED_EDGE('',*,*,#507,.T.);
#691=ORIENTED_EDGE('',*,*,#538,.T.);
#692=ORIENTED_EDGE('',*,*,#539,.T.);
#693=ORIENTED_EDGE('',*,*,#540,.T.);
#694=ORIENTED_EDGE('',*,*,#541,.F.);
#695=ORIENTED_EDGE('',*,*,#542,.F.);
#696=ORIENTED_EDGE('',*,*,#543,.F.);
#697=ORIENTED_EDGE('',*,*,#544,.T.);
#698=ORIENTED_EDGE('',*,*,#545,.F.);
#699=ORIENTED_EDGE('',*,*,#546,.F.);
#700=ORIENTED_EDGE('',*,*,#547,.F.);
#701=ORIENTED_EDGE('',*,*,#527,.F.);
#702=ORIENTED_EDGE('',*,*,#548,.F.);
#703=ORIENTED_EDGE('',*,*,#529,.F.);
#704=ORIENTED_EDGE('',*,*,#549,.T.);
#705=ORIENTED_EDGE('',*,*,#550,.F.);
#706=ORIENTED_EDGE('',*,*,#551,.F.);
#707=ORIENTED_EDGE('',*,*,#544,.F.);
#708=ORIENTED_EDGE('',*,*,#552,.F.);
#709=ORIENTED_EDGE('',*,*,#553,.F.);
#710=ORIENTED_EDGE('',*,*,#554,.F.);
#711=ORIENTED_EDGE('',*,*,#549,.F.);
#712=ORIENTED_EDGE('',*,*,#528,.F.);
#713=ORIENTED_EDGE('',*,*,#547,.T.);
#714=ORIENTED_EDGE('',*,*,#555,.F.);
#715=ORIENTED_EDGE('',*,*,#556,.F.);
#716=ORIENTED_EDGE('',*,*,#557,.F.);
#717=ORIENTED_EDGE('',*,*,#542,.T.);
#718=ORIENTED_EDGE('',*,*,#553,.T.);
#719=ORIENTED_EDGE('',*,*,#558,.T.);
#720=ORIENTED_EDGE('',*,*,#559,.F.);
#721=ORIENTED_EDGE('',*,*,#560,.F.);
#722=ORIENTED_EDGE('',*,*,#561,.F.);
#723=ORIENTED_EDGE('',*,*,#555,.T.);
#724=ORIENTED_EDGE('',*,*,#541,.T.);
#725=ORIENTED_EDGE('',*,*,#551,.T.);
#726=ORIENTED_EDGE('',*,*,#561,.T.);
#727=ORIENTED_EDGE('',*,*,#562,.T.);
#728=ORIENTED_EDGE('',*,*,#563,.T.);
#729=ORIENTED_EDGE('',*,*,#550,.T.);
#730=ORIENTED_EDGE('',*,*,#554,.T.);
#731=ORIENTED_EDGE('',*,*,#546,.T.);
#732=ORIENTED_EDGE('',*,*,#564,.T.);
#733=ORIENTED_EDGE('',*,*,#565,.T.);
#734=ORIENTED_EDGE('',*,*,#566,.T.);
#735=ORIENTED_EDGE('',*,*,#567,.F.);
#736=ORIENTED_EDGE('',*,*,#568,.F.);
#737=ORIENTED_EDGE('',*,*,#569,.T.);
#738=ORIENTED_EDGE('',*,*,#570,.F.);
#739=ORIENTED_EDGE('',*,*,#571,.T.);
#740=ORIENTED_EDGE('',*,*,#572,.T.);
#741=ORIENTED_EDGE('',*,*,#573,.T.);
#742=ORIENTED_EDGE('',*,*,#574,.F.);
#743=ORIENTED_EDGE('',*,*,#575,.T.);
#744=ORIENTED_EDGE('',*,*,#576,.T.);
#745=ORIENTED_EDGE('',*,*,#577,.T.);
#746=ORIENTED_EDGE('',*,*,#578,.F.);
#747=ORIENTED_EDGE('',*,*,#579,.T.);
#748=ORIENTED_EDGE('',*,*,#580,.T.);
#749=ORIENTED_EDGE('',*,*,#581,.T.);
#750=ORIENTED_EDGE('',*,*,#582,.T.);
#751=ORIENTED_EDGE('',*,*,#583,.T.);
#752=ORIENTED_EDGE('',*,*,#584,.T.);
#753=ORIENTED_EDGE('',*,*,#548,.T.);
#754=ORIENTED_EDGE('',*,*,#563,.F.);
#755=ORIENTED_EDGE('',*,*,#585,.F.);
#756=ORIENTED_EDGE('',*,*,#586,.T.);
#757=ORIENTED_EDGE('',*,*,#530,.F.);
#758=ORIENTED_EDGE('',*,*,#545,.T.);
#759=ORIENTED_EDGE('',*,*,#526,.F.);
#760=ORIENTED_EDGE('',*,*,#587,.F.);
#761=ORIENTED_EDGE('',*,*,#564,.F.);
#762=ORIENTED_EDGE('',*,*,#588,.F.);
#763=ORIENTED_EDGE('',*,*,#581,.F.);
#764=ORIENTED_EDGE('',*,*,#589,.F.);
#765=ORIENTED_EDGE('',*,*,#590,.F.);
#766=ORIENTED_EDGE('',*,*,#591,.F.);
#767=ORIENTED_EDGE('',*,*,#589,.T.);
#768=ORIENTED_EDGE('',*,*,#580,.F.);
#769=ORIENTED_EDGE('',*,*,#592,.F.);
#770=ORIENTED_EDGE('',*,*,#593,.F.);
#771=ORIENTED_EDGE('',*,*,#588,.T.);
#772=ORIENTED_EDGE('',*,*,#594,.T.);
#773=ORIENTED_EDGE('',*,*,#595,.F.);
#774=ORIENTED_EDGE('',*,*,#582,.F.);
#775=ORIENTED_EDGE('',*,*,#557,.T.);
#776=ORIENTED_EDGE('',*,*,#596,.F.);
#777=ORIENTED_EDGE('',*,*,#597,.F.);
#778=ORIENTED_EDGE('',*,*,#594,.F.);
#779=ORIENTED_EDGE('',*,*,#590,.T.);
#780=ORIENTED_EDGE('',*,*,#591,.T.);
#781=ORIENTED_EDGE('',*,*,#598,.F.);
#782=ORIENTED_EDGE('',*,*,#558,.F.);
#783=ORIENTED_EDGE('',*,*,#552,.T.);
#784=ORIENTED_EDGE('',*,*,#543,.T.);
#785=ORIENTED_EDGE('',*,*,#520,.T.);
#786=ORIENTED_EDGE('',*,*,#599,.F.);
#787=ORIENTED_EDGE('',*,*,#574,.T.);
#788=ORIENTED_EDGE('',*,*,#600,.F.);
#789=ORIENTED_EDGE('',*,*,#601,.T.);
#790=ORIENTED_EDGE('',*,*,#519,.T.);
#791=ORIENTED_EDGE('',*,*,#493,.F.);
#792=ORIENTED_EDGE('',*,*,#602,.F.);
#793=ORIENTED_EDGE('',*,*,#575,.F.);
#794=ORIENTED_EDGE('',*,*,#599,.T.);
#795=ORIENTED_EDGE('',*,*,#593,.T.);
#796=ORIENTED_EDGE('',*,*,#603,.F.);
#797=ORIENTED_EDGE('',*,*,#559,.T.);
#798=ORIENTED_EDGE('',*,*,#598,.T.);
#799=ORIENTED_EDGE('',*,*,#500,.T.);
#800=ORIENTED_EDGE('',*,*,#604,.F.);
#801=ORIENTED_EDGE('',*,*,#576,.F.);
#802=ORIENTED_EDGE('',*,*,#602,.T.);
#803=ORIENTED_EDGE('',*,*,#524,.T.);
#804=ORIENTED_EDGE('',*,*,#605,.F.);
#805=ORIENTED_EDGE('',*,*,#577,.F.);
#806=ORIENTED_EDGE('',*,*,#604,.T.);
#807=ORIENTED_EDGE('',*,*,#499,.T.);
#808=ORIENTED_EDGE('',*,*,#522,.T.);
#809=ORIENTED_EDGE('',*,*,#497,.F.);
#810=ORIENTED_EDGE('',*,*,#606,.F.);
#811=ORIENTED_EDGE('',*,*,#607,.F.);
#812=ORIENTED_EDGE('',*,*,#608,.T.);
#813=ORIENTED_EDGE('',*,*,#521,.T.);
#814=ORIENTED_EDGE('',*,*,#601,.F.);
#815=ORIENTED_EDGE('',*,*,#609,.F.);
#816=ORIENTED_EDGE('',*,*,#606,.T.);
#817=ORIENTED_EDGE('',*,*,#495,.T.);
#818=ORIENTED_EDGE('',*,*,#597,.T.);
#819=ORIENTED_EDGE('',*,*,#610,.F.);
#820=ORIENTED_EDGE('',*,*,#583,.F.);
#821=ORIENTED_EDGE('',*,*,#595,.T.);
#822=ORIENTED_EDGE('',*,*,#578,.T.);
#823=ORIENTED_EDGE('',*,*,#605,.T.);
#824=ORIENTED_EDGE('',*,*,#523,.T.);
#825=ORIENTED_EDGE('',*,*,#608,.F.);
#826=ORIENTED_EDGE('',*,*,#611,.F.);
#827=ORIENTED_EDGE('',*,*,#556,.T.);
#828=ORIENTED_EDGE('',*,*,#584,.F.);
#829=ORIENTED_EDGE('',*,*,#610,.T.);
#830=ORIENTED_EDGE('',*,*,#596,.T.);
#831=ORIENTED_EDGE('',*,*,#560,.T.);
#832=ORIENTED_EDGE('',*,*,#612,.F.);
#833=ORIENTED_EDGE('',*,*,#585,.T.);
#834=ORIENTED_EDGE('',*,*,#562,.F.);
#835=ORIENTED_EDGE('',*,*,#611,.T.);
#836=ORIENTED_EDGE('',*,*,#613,.F.);
#837=ORIENTED_EDGE('',*,*,#592,.T.);
#838=ORIENTED_EDGE('',*,*,#579,.F.);
#839=ORIENTED_EDGE('',*,*,#614,.F.);
#840=ORIENTED_EDGE('',*,*,#615,.T.);
#841=ORIENTED_EDGE('',*,*,#513,.T.);
#842=ORIENTED_EDGE('',*,*,#531,.F.);
#843=ORIENTED_EDGE('',*,*,#586,.F.);
#844=ORIENTED_EDGE('',*,*,#616,.F.);
#845=ORIENTED_EDGE('',*,*,#617,.T.);
#846=ORIENTED_EDGE('',*,*,#535,.F.);
#847=ORIENTED_EDGE('',*,*,#515,.F.);
#848=ORIENTED_EDGE('',*,*,#615,.F.);
#849=ORIENTED_EDGE('',*,*,#565,.F.);
#850=ORIENTED_EDGE('',*,*,#587,.T.);
#851=ORIENTED_EDGE('',*,*,#525,.F.);
#852=ORIENTED_EDGE('',*,*,#511,.F.);
#853=ORIENTED_EDGE('',*,*,#618,.F.);
#854=ORIENTED_EDGE('',*,*,#518,.T.);
#855=ORIENTED_EDGE('',*,*,#619,.F.);
#856=ORIENTED_EDGE('',*,*,#566,.F.);
#857=ORIENTED_EDGE('',*,*,#618,.T.);
#858=ORIENTED_EDGE('',*,*,#567,.T.);
#859=ORIENTED_EDGE('',*,*,#619,.T.);
#860=ORIENTED_EDGE('',*,*,#517,.T.);
#861=ORIENTED_EDGE('',*,*,#534,.F.);
#862=ORIENTED_EDGE('',*,*,#620,.F.);
#863=ORIENTED_EDGE('',*,*,#568,.T.);
#864=ORIENTED_EDGE('',*,*,#620,.T.);
#865=ORIENTED_EDGE('',*,*,#533,.F.);
#866=ORIENTED_EDGE('',*,*,#621,.F.);
#867=ORIENTED_EDGE('',*,*,#569,.F.);
#868=ORIENTED_EDGE('',*,*,#621,.T.);
#869=ORIENTED_EDGE('',*,*,#532,.F.);
#870=ORIENTED_EDGE('',*,*,#502,.F.);
#871=ORIENTED_EDGE('',*,*,#622,.F.);
#872=ORIENTED_EDGE('',*,*,#509,.T.);
#873=ORIENTED_EDGE('',*,*,#623,.F.);
#874=ORIENTED_EDGE('',*,*,#570,.T.);
#875=ORIENTED_EDGE('',*,*,#622,.T.);
#876=ORIENTED_EDGE('',*,*,#571,.F.);
#877=ORIENTED_EDGE('',*,*,#623,.T.);
#878=ORIENTED_EDGE('',*,*,#508,.T.);
#879=ORIENTED_EDGE('',*,*,#540,.F.);
#880=ORIENTED_EDGE('',*,*,#624,.F.);
#881=ORIENTED_EDGE('',*,*,#572,.F.);
#882=ORIENTED_EDGE('',*,*,#624,.T.);
#883=ORIENTED_EDGE('',*,*,#539,.F.);
#884=ORIENTED_EDGE('',*,*,#625,.F.);
#885=ORIENTED_EDGE('',*,*,#626,.F.);
#886=ORIENTED_EDGE('',*,*,#627,.F.);
#887=ORIENTED_EDGE('',*,*,#625,.T.);
#888=ORIENTED_EDGE('',*,*,#538,.F.);
#889=ORIENTED_EDGE('',*,*,#506,.F.);
#890=ORIENTED_EDGE('',*,*,#628,.F.);
#891=ORIENTED_EDGE('',*,*,#629,.F.);
#892=ORIENTED_EDGE('',*,*,#628,.T.);
#893=ORIENTED_EDGE('',*,*,#504,.T.);
#894=ORIENTED_EDGE('',*,*,#537,.F.);
#895=ORIENTED_EDGE('',*,*,#630,.F.);
#896=ORIENTED_EDGE('',*,*,#631,.F.);
#897=ORIENTED_EDGE('',*,*,#630,.T.);
#898=ORIENTED_EDGE('',*,*,#536,.F.);
#899=ORIENTED_EDGE('',*,*,#617,.F.);
#900=ORIENTED_EDGE('',*,*,#600,.T.);
#901=ORIENTED_EDGE('',*,*,#573,.F.);
#902=ORIENTED_EDGE('',*,*,#626,.T.);
#903=ORIENTED_EDGE('',*,*,#632,.F.);
#904=ORIENTED_EDGE('',*,*,#629,.T.);
#905=ORIENTED_EDGE('',*,*,#631,.T.);
#906=ORIENTED_EDGE('',*,*,#616,.T.);
#907=ORIENTED_EDGE('',*,*,#614,.T.);
#908=ORIENTED_EDGE('',*,*,#612,.T.);
#909=ORIENTED_EDGE('',*,*,#603,.T.);
#910=ORIENTED_EDGE('',*,*,#613,.T.);
#911=ORIENTED_EDGE('',*,*,#607,.T.);
#912=ORIENTED_EDGE('',*,*,#609,.T.);
#913=ORIENTED_EDGE('',*,*,#632,.T.);
#914=ORIENTED_EDGE('',*,*,#627,.T.);
#915=PLANE('',#1039);
#916=PLANE('',#1040);
#917=PLANE('',#1041);
#918=PLANE('',#1042);
#919=PLANE('',#1043);
#920=PLANE('',#1044);
#921=PLANE('',#1045);
#922=PLANE('',#1046);
#923=PLANE('',#1047);
#924=PLANE('',#1048);
#925=PLANE('',#1049);
#926=PLANE('',#1050);
#927=PLANE('',#1051);
#928=PLANE('',#1052);
#929=PLANE('',#1053);
#930=PLANE('',#1054);
#931=PLANE('',#1055);
#932=PLANE('',#1056);
#933=PLANE('',#1057);
#934=PLANE('',#1058);
#935=PLANE('',#1059);
#936=PLANE('',#1060);
#937=PLANE('',#1061);
#938=PLANE('',#1062);
#939=PLANE('',#1063);
#940=PLANE('',#1064);
#941=PLANE('',#1065);
#942=PLANE('',#1066);
#943=PLANE('',#1067);
#944=PLANE('',#1068);
#945=PLANE('',#1069);
#946=PLANE('',#1070);
#947=PLANE('',#1071);
#948=PLANE('',#1072);
#949=PLANE('',#1073);
#950=PLANE('',#1074);
#951=PLANE('',#1075);
#952=PLANE('',#1076);
#953=PLANE('',#1077);
#954=PLANE('',#1078);
#955=PLANE('',#1079);
#956=PLANE('',#1080);
#957=PLANE('',#1081);
#958=PLANE('',#1082);
#959=PLANE('',#1083);
#960=PLANE('',#1084);
#961=PLANE('',#1085);
#962=PLANE('',#1086);
#963=PLANE('',#1087);
#964=PLANE('',#1088);
#965=PLANE('',#1089);
#966=PLANE('',#1090);
#967=PLANE('',#1091);
#968=PLANE('',#1092);
#969=PLANE('',#1093);
#970=ADVANCED_FACE('',(#15),#915,.F.);
#971=ADVANCED_FACE('',(#16),#916,.F.);
#972=ADVANCED_FACE('',(#17),#917,.T.);
#973=ADVANCED_FACE('',(#18),#918,.F.);
#974=ADVANCED_FACE('',(#19),#919,.F.);
#975=ADVANCED_FACE('',(#20),#920,.T.);
#976=ADVANCED_FACE('',(#21),#921,.F.);
#977=ADVANCED_FACE('',(#22),#922,.F.);
#978=ADVANCED_FACE('',(#23),#923,.T.);
#979=ADVANCED_FACE('',(#24),#924,.F.);
#980=ADVANCED_FACE('',(#25),#925,.F.);
#981=ADVANCED_FACE('',(#26),#926,.T.);
#982=ADVANCED_FACE('',(#27),#927,.T.);
#983=ADVANCED_FACE('',(#28),#928,.T.);
#984=ADVANCED_FACE('',(#29),#929,.F.);
#985=ADVANCED_FACE('',(#30),#930,.F.);
#986=ADVANCED_FACE('',(#31),#931,.F.);
#987=ADVANCED_FACE('',(#32),#932,.F.);
#988=ADVANCED_FACE('',(#33),#933,.F.);
#989=ADVANCED_FACE('',(#34),#934,.F.);
#990=ADVANCED_FACE('',(#35),#935,.T.);
#991=ADVANCED_FACE('',(#36),#936,.F.);
#992=ADVANCED_FACE('',(#37),#937,.T.);
#993=ADVANCED_FACE('',(#38),#938,.T.);
#994=ADVANCED_FACE('',(#39),#939,.F.);
#995=ADVANCED_FACE('',(#40),#940,.F.);
#996=ADVANCED_FACE('',(#41),#941,.T.);
#997=ADVANCED_FACE('',(#42),#942,.F.);
#998=ADVANCED_FACE('',(#43),#943,.T.);
#999=ADVANCED_FACE('',(#44),#944,.T.);
#1000=ADVANCED_FACE('',(#45),#945,.T.);
#1001=ADVANCED_FACE('',(#46),#946,.T.);
#1002=ADVANCED_FACE('',(#47),#947,.T.);
#1003=ADVANCED_FACE('',(#48),#948,.T.);
#1004=ADVANCED_FACE('',(#49),#949,.T.);
#1005=ADVANCED_FACE('',(#50),#950,.T.);
#1006=ADVANCED_FACE('',(#51),#951,.T.);
#1007=ADVANCED_FACE('',(#52),#952,.T.);
#1008=ADVANCED_FACE('',(#53),#953,.T.);
#1009=ADVANCED_FACE('',(#54),#954,.T.);
#1010=ADVANCED_FACE('',(#55),#955,.T.);
#1011=ADVANCED_FACE('',(#56),#956,.T.);
#1012=ADVANCED_FACE('',(#57),#957,.T.);
#1013=ADVANCED_FACE('',(#58),#958,.T.);
#1014=ADVANCED_FACE('',(#59),#959,.T.);
#1015=ADVANCED_FACE('',(#60),#960,.T.);
#1016=ADVANCED_FACE('',(#61),#961,.T.);
#1017=ADVANCED_FACE('',(#62),#962,.T.);
#1018=ADVANCED_FACE('',(#63),#963,.T.);
#1019=ADVANCED_FACE('',(#64),#964,.T.);
#1020=ADVANCED_FACE('',(#65),#965,.T.);
#1021=ADVANCED_FACE('',(#66),#966,.T.);
#1022=ADVANCED_FACE('',(#67),#967,.T.);
#1023=ADVANCED_FACE('',(#68),#968,.T.);
#1024=ADVANCED_FACE('',(#69),#969,.T.);
#1025=CLOSED_SHELL('',(#970,#971,#972,#973,#974,#975,#976,#977,#978,#979,
#980,#981,#982,#983,#984,#985,#986,#987,#988,#989,#990,#991,#992,#993,#994,
#995,#996,#997,#998,#999,#1000,#1001,#1002,#1003,#1004,#1005,#1006,#1007,
#1008,#1009,#1010,#1011,#1012,#1013,#1014,#1015,#1016,#1017,#1018,#1019,
#1020,#1021,#1022,#1023,#1024));
#1026=DERIVED_UNIT_ELEMENT(#1028,1.);
#1027=DERIVED_UNIT_ELEMENT(#1634,-3.);
#1028=(
MASS_UNIT()
NAMED_UNIT(*)
SI_UNIT(.KILO.,.GRAM.)
);
#1029=DERIVED_UNIT((#1026,#1027));
#1030=MEASURE_REPRESENTATION_ITEM('density measure',
POSITIVE_RATIO_MEASURE(7850.),#1029);
#1031=PROPERTY_DEFINITION_REPRESENTATION(#1036,#1033);
#1032=PROPERTY_DEFINITION_REPRESENTATION(#1037,#1034);
#1033=REPRESENTATION('material name',(#1035),#1631);
#1034=REPRESENTATION('density',(#1030),#1631);
#1035=DESCRIPTIVE_REPRESENTATION_ITEM('Steel','Steel');
#1036=PROPERTY_DEFINITION('material property','material name',#1641);
#1037=PROPERTY_DEFINITION('material property','density of part',#1641);
#1038=AXIS2_PLACEMENT_3D('',#1347,#1094,#1095);
#1039=AXIS2_PLACEMENT_3D('',#1348,#1096,#1097);
#1040=AXIS2_PLACEMENT_3D('',#1357,#1102,#1103);
#1041=AXIS2_PLACEMENT_3D('',#1364,#1108,#1109);
#1042=AXIS2_PLACEMENT_3D('',#1366,#1111,#1112);
#1043=AXIS2_PLACEMENT_3D('',#1375,#1117,#1118);
#1044=AXIS2_PLACEMENT_3D('',#1382,#1123,#1124);
#1045=AXIS2_PLACEMENT_3D('',#1384,#1126,#1127);
#1046=AXIS2_PLACEMENT_3D('',#1393,#1132,#1133);
#1047=AXIS2_PLACEMENT_3D('',#1400,#1138,#1139);
#1048=AXIS2_PLACEMENT_3D('',#1402,#1141,#1142);
#1049=AXIS2_PLACEMENT_3D('',#1408,#1146,#1147);
#1050=AXIS2_PLACEMENT_3D('',#1414,#1151,#1152);
#1051=AXIS2_PLACEMENT_3D('',#1428,#1160,#1161);
#1052=AXIS2_PLACEMENT_3D('',#1439,#1168,#1169);
#1053=AXIS2_PLACEMENT_3D('',#1445,#1173,#1174);
#1054=AXIS2_PLACEMENT_3D('',#1454,#1179,#1180);
#1055=AXIS2_PLACEMENT_3D('',#1460,#1184,#1185);
#1056=AXIS2_PLACEMENT_3D('',#1466,#1189,#1190);
#1057=AXIS2_PLACEMENT_3D('',#1472,#1194,#1195);
#1058=AXIS2_PLACEMENT_3D('',#1474,#1197,#1198);
#1059=AXIS2_PLACEMENT_3D('',#1480,#1202,#1203);
#1060=AXIS2_PLACEMENT_3D('',#1488,#1208,#1209);
#1061=AXIS2_PLACEMENT_3D('',#1533,#1233,#1234);
#1062=AXIS2_PLACEMENT_3D('',#1537,#1237,#1238);
#1063=AXIS2_PLACEMENT_3D('',#1539,#1240,#1241);
#1064=AXIS2_PLACEMENT_3D('',#1545,#1245,#1246);
#1065=AXIS2_PLACEMENT_3D('',#1551,#1250,#1251);
#1066=AXIS2_PLACEMENT_3D('',#1555,#1254,#1255);
#1067=AXIS2_PLACEMENT_3D('',#1560,#1259,#1260);
#1068=AXIS2_PLACEMENT_3D('',#1565,#1264,#1265);
#1069=AXIS2_PLACEMENT_3D('',#1567,#1267,#1268);
#1070=AXIS2_PLACEMENT_3D('',#1569,#1270,#1271);
#1071=AXIS2_PLACEMENT_3D('',#1571,#1273,#1274);
#1072=AXIS2_PLACEMENT_3D('',#1573,#1276,#1277);
#1073=AXIS2_PLACEMENT_3D('',#1579,#1281,#1282);
#1074=AXIS2_PLACEMENT_3D('',#1581,#1284,#1285);
#1075=AXIS2_PLACEMENT_3D('',#1583,#1287,#1288);
#1076=AXIS2_PLACEMENT_3D('',#1585,#1290,#1291);
#1077=AXIS2_PLACEMENT_3D('',#1586,#1292,#1293);
#1078=AXIS2_PLACEMENT_3D('',#1588,#1295,#1296);
#1079=AXIS2_PLACEMENT_3D('',#1590,#1298,#1299);
#1080=AXIS2_PLACEMENT_3D('',#1594,#1302,#1303);
#1081=AXIS2_PLACEMENT_3D('',#1598,#1306,#1307);
#1082=AXIS2_PLACEMENT_3D('',#1600,#1309,#1310);
#1083=AXIS2_PLACEMENT_3D('',#1602,#1312,#1313);
#1084=AXIS2_PLACEMENT_3D('',#1604,#1315,#1316);
#1085=AXIS2_PLACEMENT_3D('',#1606,#1318,#1319);
#1086=AXIS2_PLACEMENT_3D('',#1608,#1321,#1322);
#1087=AXIS2_PLACEMENT_3D('',#1610,#1324,#1325);
#1088=AXIS2_PLACEMENT_3D('',#1612,#1327,#1328);
#1089=AXIS2_PLACEMENT_3D('',#1616,#1331,#1332);
#1090=AXIS2_PLACEMENT_3D('',#1620,#1335,#1336);
#1091=AXIS2_PLACEMENT_3D('',#1624,#1339,#1340);
#1092=AXIS2_PLACEMENT_3D('',#1626,#1342,#1343);
#1093=AXIS2_PLACEMENT_3D('',#1628,#1345,#1346);
#1094=DIRECTION('axis',(0.,0.,1.));
#1095=DIRECTION('refdir',(1.,0.,0.));
#1096=DIRECTION('center_axis',(-1.11022302462516E-15,-4.75314232417645E-15,
1.));
#1097=DIRECTION('ref_axis',(1.,-2.08166817117217E-17,1.11022302462516E-15));
#1098=DIRECTION('',(-1.,2.08166817117217E-17,-1.11022302462516E-15));
#1099=DIRECTION('',(2.31296463463574E-17,1.,4.81096644004234E-15));
#1100=DIRECTION('',(-1.,4.93038065763132E-30,-1.11022302462516E-15));
#1101=DIRECTION('',(2.31296463463574E-17,1.,4.81096644004234E-15));
#1102=DIRECTION('center_axis',(1.,-2.16840434497158E-17,1.21430643318376E-15));
#1103=DIRECTION('ref_axis',(1.21430643318377E-15,4.76008121808036E-15,-1.));
#1104=DIRECTION('',(1.21430643318377E-15,4.76008121808036E-15,-1.));
#1105=DIRECTION('',(2.31296463463574E-17,1.,4.81096644004234E-15));
#1106=DIRECTION('',(-1.21430643318376E-15,-4.44089209850062E-15,1.));
#1107=DIRECTION('',(2.31296463463574E-17,1.,4.81096644004234E-15));
#1108=DIRECTION('center_axis',(2.08166817117164E-17,1.,4.76008121808036E-15));
#1109=DIRECTION('ref_axis',(-1.,2.08166817117164E-17,-3.96039583682621E-46));
#1110=DIRECTION('',(0.707106781186548,3.35116609150318E-15,-0.707106781186547));
#1111=DIRECTION('center_axis',(1.,-2.16840434497163E-17,1.4007892068513E-15));
#1112=DIRECTION('ref_axis',(1.4007892068513E-15,4.76008121808036E-15,-1.));
#1113=DIRECTION('',(-1.4007892068513E-15,-4.76008121808036E-15,1.));
#1114=DIRECTION('',(0.,1.,4.76037033865969E-15));
#1115=DIRECTION('',(-1.4007892068513E-15,-4.76037033865969E-15,1.));
#1116=DIRECTION('',(0.,1.,4.76037033865969E-15));
#1117=DIRECTION('center_axis',(9.24446373305643E-32,4.44089209850062E-15,
-1.));
#1118=DIRECTION('ref_axis',(-1.,2.08166817117164E-17,-3.96039583682621E-46));
#1119=DIRECTION('',(-1.,2.08166817117164E-17,-3.96039583682621E-46));
#1120=DIRECTION('',(0.,1.,4.76037033865969E-15));
#1121=DIRECTION('',(1.,-4.4007070951657E-46,9.24446373305643E-32));
#1122=DIRECTION('',(0.,1.,4.76037033865969E-15));
#1123=DIRECTION('center_axis',(2.08166817117164E-17,1.,4.76008121808036E-15));
#1124=DIRECTION('ref_axis',(-1.,2.08166817117164E-17,-3.96039583682621E-46));
#1125=DIRECTION('',(-0.707106781186555,3.38060532510347E-15,-0.70710678118654));
#1126=DIRECTION('center_axis',(-1.,4.70984574344667E-46,-9.90890956386987E-32));
#1127=DIRECTION('ref_axis',(-9.90890956386987E-32,-4.76008121808036E-15,
1.));
#1128=DIRECTION('',(9.90890956386987E-32,4.76008121808036E-15,-1.));
#1129=DIRECTION('',(0.,1.,4.76037033865969E-15));
#1130=DIRECTION('',(9.90890956386987E-32,4.76037033865969E-15,-1.));
#1131=DIRECTION('',(0.,1.,4.76037033865969E-15));
#1132=DIRECTION('center_axis',(-9.89446508928695E-32,-4.75314232417645E-15,
1.));
#1133=DIRECTION('ref_axis',(1.,-2.08166817117164E-17,3.96039583682621E-46));
#1134=DIRECTION('',(1.,-2.08166817117164E-17,3.96039583682621E-46));
#1135=DIRECTION('',(0.,1.,4.76037033865969E-15));
#1136=DIRECTION('',(-1.,4.71013181279454E-46,-9.89446508928695E-32));
#1137=DIRECTION('',(0.,1.,4.76037033865969E-15));
#1138=DIRECTION('center_axis',(2.08166817117164E-17,1.,4.76008121808036E-15));
#1139=DIRECTION('ref_axis',(-1.,2.08166817117164E-17,-3.96039583682621E-46));
#1140=DIRECTION('',(0.707106781186546,-3.38060532510351E-15,0.707106781186549));
#1141=DIRECTION('center_axis',(0.,-1.,-4.44089209850062E-15));
#1142=DIRECTION('ref_axis',(0.,4.44089209850062E-15,-1.));
#1143=DIRECTION('',(1.11119775950191E-15,4.44089209850062E-15,-1.));
#1144=DIRECTION('',(-1.,4.4474804775923E-46,-1.00148357108111E-31));
#1145=DIRECTION('',(-1.11028394555496E-15,-4.44089209850062E-15,1.));
#1146=DIRECTION('center_axis',(0.,-1.,-4.44089209850062E-15));
#1147=DIRECTION('ref_axis',(0.,4.44089209850062E-15,-1.));
#1148=DIRECTION('',(-1.,5.38304587929971E-30,-1.21215417080662E-15));
#1149=DIRECTION('',(-1.11022302462513E-15,-4.76008121808036E-15,1.));
#1150=DIRECTION('',(1.,-5.39833862327499E-30,1.21559779061005E-15));
#1151=DIRECTION('center_axis',(0.,1.,4.76037033865969E-15));
#1152=DIRECTION('ref_axis',(0.,-4.76037033865969E-15,1.));
#1153=DIRECTION('',(-1.,2.08166817117222E-17,-1.21559779061005E-15));
#1154=DIRECTION('',(-9.90890956386987E-32,-4.76008121808036E-15,1.));
#1155=DIRECTION('',(1.,0.,0.));
#1156=DIRECTION('',(0.,-4.76037033865969E-15,1.));
#1157=DIRECTION('',(-1.,0.,0.));
#1158=DIRECTION('',(-9.90890956386987E-32,-4.76008121808036E-15,1.));
#1159=DIRECTION('',(1.,-2.08166817117222E-17,1.21215417080662E-15));
#1160=DIRECTION('center_axis',(0.,1.,4.76037033865969E-15));
#1161=DIRECTION('ref_axis',(0.,-4.76037033865969E-15,1.));
#1162=DIRECTION('',(1.,-2.08166817117222E-17,1.21906841919625E-15));
#1163=DIRECTION('',(0.672220520573169,3.51013738806781E-15,-0.740350978739366));
#1164=DIRECTION('',(9.90890956386987E-32,4.76008121808036E-15,-1.));
#1165=DIRECTION('',(-1.45901999129384E-15,-4.76008121808036E-15,1.));
#1166=DIRECTION('',(-0.672220520573169,-3.51013738806781E-15,0.740350978739366));
#1167=DIRECTION('',(-1.,2.08166817117222E-17,-1.21906841919625E-15));
#1168=DIRECTION('center_axis',(0.,1.,4.76037033865969E-15));
#1169=DIRECTION('ref_axis',(0.,-4.76037033865969E-15,1.));
#1170=DIRECTION('',(1.11028394555496E-15,4.76008121808036E-15,-1.));
#1171=DIRECTION('',(-1.,2.08166817117164E-17,-3.96039583682621E-46));
#1172=DIRECTION('',(-1.11119775950191E-15,-4.76008121808036E-15,1.));
#1173=DIRECTION('center_axis',(-1.,0.,0.));
#1174=DIRECTION('ref_axis',(0.,0.,-1.));
#1175=DIRECTION('',(0.,-4.76008121808036E-15,1.));
#1176=DIRECTION('',(0.,-1.,0.));
#1177=DIRECTION('',(0.,4.44089209850062E-15,-1.));
#1178=DIRECTION('',(0.,-1.,0.));
#1179=DIRECTION('center_axis',(0.,0.,-1.));
#1180=DIRECTION('ref_axis',(1.,0.,0.));
#1181=DIRECTION('',(4.71700791763074E-46,1.,0.));
#1182=DIRECTION('',(-1.,2.08166817117164E-17,0.));
#1183=DIRECTION('',(0.,-1.,0.));
#1184=DIRECTION('center_axis',(0.,0.,1.));
#1185=DIRECTION('ref_axis',(-1.,0.,0.));
#1186=DIRECTION('',(-4.71700791763074E-46,-1.,0.));
#1187=DIRECTION('',(0.,-1.,0.));
#1188=DIRECTION('',(1.,-2.08166817117164E-17,0.));
#1189=DIRECTION('center_axis',(0.,0.,1.));
#1190=DIRECTION('ref_axis',(-1.,0.,0.));
#1191=DIRECTION('',(1.,-2.08166817117164E-17,0.));
#1192=DIRECTION('',(-1.,0.,0.));
#1193=DIRECTION('',(4.71700791763074E-46,1.,0.));
#1194=DIRECTION('center_axis',(1.,0.,0.));
#1195=DIRECTION('ref_axis',(0.,0.,1.));
#1196=DIRECTION('',(0.,4.76008121808036E-15,-1.));
#1197=DIRECTION('center_axis',(0.,0.,-1.));
#1198=DIRECTION('ref_axis',(1.,0.,0.));
#1199=DIRECTION('',(-1.,2.08166817117164E-17,0.));
#1200=DIRECTION('',(-4.71700791763074E-46,-1.,0.));
#1201=DIRECTION('',(1.,0.,0.));
#1202=DIRECTION('center_axis',(1.,-4.71700791763074E-46,9.90890956386987E-32));
#1203=DIRECTION('ref_axis',(9.90890956386987E-32,4.76008121808036E-15,-1.));
#1204=DIRECTION('',(-9.90890956386987E-32,-4.44089209850062E-15,1.));
#1205=DIRECTION('',(0.,1.,4.76037033865969E-15));
#1206=DIRECTION('',(3.16568098936044E-47,1.,4.44089209850063E-15));
#1207=DIRECTION('',(-9.90890956386987E-32,-4.76008121808036E-15,1.));
#1208=DIRECTION('center_axis',(2.08166817117164E-17,1.,4.76008121808036E-15));
#1209=DIRECTION('ref_axis',(-1.,2.08166817117164E-17,-4.14734262650963E-46));
#1210=DIRECTION('',(1.,-2.08166817117222E-17,1.21215417080662E-15));
#1211=DIRECTION('',(9.90890956386987E-32,4.76008121808036E-15,-1.));
#1212=DIRECTION('',(9.90890956386987E-32,4.76008121808036E-15,-1.));
#1213=DIRECTION('',(1.,-2.08166817117222E-17,1.21559779061005E-15));
#1214=DIRECTION('',(0.707106781186546,-3.38060532510351E-15,0.707106781186549));
#1215=DIRECTION('',(9.90890956386987E-32,4.76008121808036E-15,-1.));
#1216=DIRECTION('',(0.672220520573169,3.51013738806781E-15,-0.740350978739366));
#1217=DIRECTION('',(-1.,2.08166817117222E-17,-1.21906841919625E-15));
#1218=DIRECTION('',(0.707106781186555,-3.38060532510347E-15,0.70710678118654));
#1219=DIRECTION('',(1.11119775950191E-15,4.76008121808036E-15,-1.));
#1220=DIRECTION('',(1.,-2.08166817117164E-17,3.96039583682621E-46));
#1221=DIRECTION('',(1.11028394555496E-15,4.76008121808036E-15,-1.));
#1222=DIRECTION('',(1.,-2.08166817117164E-17,3.96039583682621E-46));
#1223=DIRECTION('',(1.11119775950191E-15,4.76008121808036E-15,-1.));
#1224=DIRECTION('',(0.707106781186548,3.35116609150318E-15,-0.707106781186547));
#1225=DIRECTION('',(1.,-2.08166817117222E-17,1.21559779061005E-15));
#1226=DIRECTION('',(1.11022302462513E-15,4.76008121808036E-15,-1.));
#1227=DIRECTION('',(1.,-2.08166817117519E-17,7.45960321727318E-15));
#1228=DIRECTION('',(7.59147790187169E-15,4.76008121808036E-15,-1.));
#1229=DIRECTION('',(-1.,2.08166817115125E-17,4.28375852232575E-14));
#1230=DIRECTION('',(2.22044604925029E-15,4.76008121808036E-15,-1.));
#1231=DIRECTION('',(1.,-2.08166817117222E-17,1.21559779061005E-15));
#1232=DIRECTION('',(-9.90890956386987E-32,-4.76008121808036E-15,1.));
#1233=DIRECTION('center_axis',(-1.,4.71700791763074E-46,-9.90890956386987E-32));
#1234=DIRECTION('ref_axis',(-9.90890956386987E-32,-4.76008121808036E-15,
1.));
#1235=DIRECTION('',(-3.16568098936044E-47,-1.,-4.44089209850063E-15));
#1236=DIRECTION('',(0.,1.,4.76037033865969E-15));
#1237=DIRECTION('center_axis',(-1.,4.71700791763074E-46,-9.90890956386987E-32));
#1238=DIRECTION('ref_axis',(-9.90890956386987E-32,-4.76008121808036E-15,
1.));
#1239=DIRECTION('',(0.,1.,4.76037033865969E-15));
#1240=DIRECTION('center_axis',(-4.28375852232575E-14,0.,-1.));
#1241=DIRECTION('ref_axis',(1.,-3.42128301553741E-31,-4.28375852232575E-14));
#1242=DIRECTION('',(1.05701455114452E-29,1.,-4.52799509168765E-43));
#1243=DIRECTION('',(0.,-1.,0.));
#1244=DIRECTION('',(1.,1.90237093736811E-28,-4.28375852232575E-14));
#1245=DIRECTION('center_axis',(1.,0.,7.59147790187169E-15));
#1246=DIRECTION('ref_axis',(-7.59147790187169E-15,0.,1.));
#1247=DIRECTION('',(-7.59147790187169E-15,-4.44089209850062E-15,1.));
#1248=DIRECTION('',(0.,-1.,0.));
#1249=DIRECTION('',(3.65223454162278E-29,-1.,-4.81096644004234E-15));
#1250=DIRECTION('center_axis',(-1.,1.05701455114452E-29,-2.22044604925029E-15));
#1251=DIRECTION('ref_axis',(-2.22044604925029E-15,-4.76008121808036E-15,
1.));
#1252=DIRECTION('',(2.22044604925029E-15,4.76008121808036E-15,-1.));
#1253=DIRECTION('',(0.,1.,4.76037033865969E-15));
#1254=DIRECTION('center_axis',(0.,-1.,-4.44089209850062E-15));
#1255=DIRECTION('ref_axis',(0.,4.44089209850062E-15,-1.));
#1256=DIRECTION('',(-9.90890956386987E-32,-4.44089209850062E-15,1.));
#1257=DIRECTION('',(1.,-5.39833862327499E-30,1.21559779061005E-15));
#1258=DIRECTION('',(-1.,5.38304587929971E-30,-1.21215417080662E-15));
#1259=DIRECTION('center_axis',(-1.00148357108111E-31,-4.81096644004234E-15,
1.));
#1260=DIRECTION('ref_axis',(1.,-2.08166817117164E-17,3.96039583682621E-46));
#1261=DIRECTION('',(2.31296463463574E-17,1.,4.81096644004234E-15));
#1262=DIRECTION('',(4.10887600075591E-31,-1.,-4.81096644004234E-15));
#1263=DIRECTION('',(2.31296463463574E-17,1.,4.81096644004234E-15));
#1264=DIRECTION('center_axis',(-1.,2.31296463463628E-17,-1.11119775950191E-15));
#1265=DIRECTION('ref_axis',(-1.11119775950191E-15,-4.76008121808036E-15,
1.));
#1266=DIRECTION('',(2.31296463463574E-17,1.,4.81096644004234E-15));
#1267=DIRECTION('center_axis',(-1.21215417080662E-15,-4.81096644004234E-15,
1.));
#1268=DIRECTION('ref_axis',(1.,-2.08166817117222E-17,1.21215417080662E-15));
#1269=DIRECTION('',(-1.,2.08166817117222E-17,-1.21215417080662E-15));
#1270=DIRECTION('center_axis',(-0.707106781186547,3.41822212359281E-15,
-0.707106781186548));
#1271=DIRECTION('ref_axis',(-0.707106781186548,-3.35116609150318E-15,0.707106781186547));
#1272=DIRECTION('',(2.31296463463574E-17,1.,4.81096644004234E-15));
#1273=DIRECTION('center_axis',(1.21559779061005E-15,4.81096644004234E-15,
-1.));
#1274=DIRECTION('ref_axis',(-1.,2.08166817117222E-17,-1.21559779061005E-15));
#1275=DIRECTION('',(2.31296463463574E-17,1.,4.81096644004234E-15));
#1276=DIRECTION('center_axis',(-1.21215417080662E-15,-4.81096644004234E-15,
1.));
#1277=DIRECTION('ref_axis',(1.,-2.08166817117222E-17,1.21215417080662E-15));
#1278=DIRECTION('',(2.31296463463574E-17,1.,4.81096644004234E-15));
#1279=DIRECTION('',(-1.,2.08166817117222E-17,-1.21215417080662E-15));
#1280=DIRECTION('',(2.31296463463574E-17,1.,4.81096644004234E-15));
#1281=DIRECTION('center_axis',(1.,-2.31296463463628E-17,1.11028394555496E-15));
#1282=DIRECTION('ref_axis',(1.11028394555496E-15,4.76008121808036E-15,-1.));
#1283=DIRECTION('',(-1.11028394555496E-15,-4.76008121808036E-15,1.));
#1284=DIRECTION('center_axis',(1.21559779061005E-15,4.81096644004234E-15,
-1.));
#1285=DIRECTION('ref_axis',(-1.,2.08166817117222E-17,-1.21559779061005E-15));
#1286=DIRECTION('',(0.,1.,4.76037033865969E-15));
#1287=DIRECTION('center_axis',(1.,-2.31296463463628E-17,1.11022302462513E-15));
#1288=DIRECTION('ref_axis',(1.11022302462513E-15,4.76008121808036E-15,-1.));
#1289=DIRECTION('',(2.31296463463578E-17,1.,4.44089209850063E-15));
#1290=DIRECTION('center_axis',(1.,-4.71700791763074E-46,9.90890956386987E-32));
#1291=DIRECTION('ref_axis',(9.90890956386987E-32,4.76008121808036E-15,-1.));
#1292=DIRECTION('center_axis',(1.21215417080662E-15,4.44089209850063E-15,
-1.));
#1293=DIRECTION('ref_axis',(-1.,2.08166817117222E-17,-1.21215417080662E-15));
#1294=DIRECTION('',(-1.,2.08166817117222E-17,-1.21215417080662E-15));
#1295=DIRECTION('center_axis',(1.21215417080662E-15,4.44089209850063E-15,
-1.));
#1296=DIRECTION('ref_axis',(-1.,2.08166817117222E-17,-1.21215417080662E-15));
#1297=DIRECTION('',(-1.,2.08166817117222E-17,-1.21215417080662E-15));
#1298=DIRECTION('center_axis',(-1.21215417080662E-15,-4.76037033865969E-15,
1.));
#1299=DIRECTION('ref_axis',(1.,-2.08166817117222E-17,1.21215417080662E-15));
#1300=DIRECTION('',(-1.,2.08166817117222E-17,-1.21215417080662E-15));
#1301=DIRECTION('',(0.,1.,4.76037033865969E-15));
#1302=DIRECTION('center_axis',(-1.,6.94547549006672E-30,-1.45901999129384E-15));
#1303=DIRECTION('ref_axis',(-1.45901999129384E-15,-4.76008121808036E-15,
1.));
#1304=DIRECTION('',(1.45901999129384E-15,4.76008121808036E-15,-1.));
#1305=DIRECTION('',(0.,1.,4.76037033865969E-15));
#1306=DIRECTION('center_axis',(1.21559779061005E-15,4.76037033865969E-15,
-1.));
#1307=DIRECTION('ref_axis',(-1.,2.08166817117222E-17,-1.21559779061005E-15));
#1308=DIRECTION('',(0.,1.,4.76037033865969E-15));
#1309=DIRECTION('center_axis',(0.707106781186549,3.36609014742556E-15,-0.707106781186546));
#1310=DIRECTION('ref_axis',(-0.707106781186546,3.38060532510351E-15,-0.707106781186549));
#1311=DIRECTION('',(0.,1.,4.76037033865969E-15));
#1312=DIRECTION('center_axis',(1.,-4.71700791763074E-46,9.90890956386987E-32));
#1313=DIRECTION('ref_axis',(9.90890956386987E-32,4.76008121808036E-15,-1.));
#1314=DIRECTION('',(0.,1.,4.76037033865969E-15));
#1315=DIRECTION('center_axis',(0.740350978739366,-3.20001862717489E-15,
0.672220520573169));
#1316=DIRECTION('ref_axis',(0.672220520573169,3.51013738806781E-15,-0.740350978739366));
#1317=DIRECTION('',(0.,1.,4.76037033865969E-15));
#1318=DIRECTION('center_axis',(-1.21906841919625E-15,-4.76037033865969E-15,
1.));
#1319=DIRECTION('ref_axis',(1.,-2.08166817117222E-17,1.21906841919625E-15));
#1320=DIRECTION('',(0.,1.,4.76037033865969E-15));
#1321=DIRECTION('center_axis',(-0.70710678118654,-3.3660901474256E-15,0.707106781186555));
#1322=DIRECTION('ref_axis',(0.707106781186555,-3.38060532510347E-15,0.70710678118654));
#1323=DIRECTION('',(0.,1.,4.76037033865969E-15));
#1324=DIRECTION('center_axis',(-1.,5.28971285471801E-30,-1.11119775950191E-15));
#1325=DIRECTION('ref_axis',(-1.11119775950191E-15,-4.76008121808036E-15,
1.));
#1326=DIRECTION('',(0.,1.,4.76037033865969E-15));
#1327=DIRECTION('center_axis',(9.90951141697748E-32,4.76037033865969E-15,
-1.));
#1328=DIRECTION('ref_axis',(-1.,2.08166817117164E-17,-3.96039583682621E-46));
#1329=DIRECTION('',(0.,1.,4.76037033865969E-15));
#1330=DIRECTION('',(-3.54711561002755E-31,1.,4.76037033865969E-15));
#1331=DIRECTION('center_axis',(1.,-5.28536276190986E-30,1.11028394555496E-15));
#1332=DIRECTION('ref_axis',(1.11028394555496E-15,4.76008121808036E-15,-1.));
#1333=DIRECTION('',(-1.11028394555496E-15,-4.76008121808036E-15,1.));
#1334=DIRECTION('',(0.,1.,4.76037033865969E-15));
#1335=DIRECTION('center_axis',(1.21906841919625E-15,4.76037033865969E-15,
-1.));
#1336=DIRECTION('ref_axis',(-1.,2.08166817117222E-17,-1.21906841919625E-15));
#1337=DIRECTION('',(1.,-2.08166817117222E-17,1.21906841919625E-15));
#1338=DIRECTION('',(0.,1.,4.76037033865969E-15));
#1339=DIRECTION('center_axis',(-0.740350978739366,3.20001862717489E-15,
-0.672220520573169));
#1340=DIRECTION('ref_axis',(-0.672220520573169,-3.51013738806781E-15,0.740350978739366));
#1341=DIRECTION('',(0.672220520573169,3.51013738806781E-15,-0.740350978739366));
#1342=DIRECTION('center_axis',(-1.,4.9306512009071E-30,-1.11028394555496E-15));
#1343=DIRECTION('ref_axis',(-1.11028394555496E-15,-4.76008121808036E-15,
1.));
#1344=DIRECTION('',(-1.11028394555496E-15,-4.76008121808036E-15,1.));
#1345=DIRECTION('center_axis',(0.,1.,4.44089209850063E-15));
#1346=DIRECTION('ref_axis',(0.,-4.44089209850063E-15,1.));
#1347=CARTESIAN_POINT('',(0.,0.,0.));
#1348=CARTESIAN_POINT('Origin',(-2.05000000000014,24.1999999999999,0.260000000000029));
#1349=CARTESIAN_POINT('',(-0.0500000000001406,24.1999999999999,0.260000000000032));
#1350=CARTESIAN_POINT('',(-2.05000000000014,24.1999999999999,0.260000000000029));
#1351=CARTESIAN_POINT('',(-0.0500000000001406,24.1999999999999,0.260000000000032));
#1352=CARTESIAN_POINT('',(-2.05000000000014,26.1999999999999,0.260000000000042));
#1353=CARTESIAN_POINT('',(-2.05000000000014,2.19999999999994,0.259999999999927));
#1354=CARTESIAN_POINT('',(-0.050000000000141,26.1999999999999,0.260000000000042));
#1355=CARTESIAN_POINT('',(0.0295391463207296,26.1999999999999,0.260000000000041));
#1356=CARTESIAN_POINT('',(-0.050000000000141,2.19999999999994,0.259999999999927));
#1357=CARTESIAN_POINT('Origin',(-0.0500000000001406,24.1999999999999,0.260000000000032));
#1358=CARTESIAN_POINT('',(-0.0500000000001381,24.1999999999999,-1.73999999999997));
#1359=CARTESIAN_POINT('',(-0.0500000000001406,24.1999999999999,0.260000000000032));
#1360=CARTESIAN_POINT('',(-0.050000000000141,2.19999999999994,0.259999999999927));
#1361=CARTESIAN_POINT('',(-0.050000000000141,26.2,-1.73999999999996));
#1362=CARTESIAN_POINT('',(-0.0500000000001491,26.1999999999999,7.33774927352111));
#1363=CARTESIAN_POINT('',(-0.0500000000001386,2.19999999999995,-1.74000000000007));
#1364=CARTESIAN_POINT('Origin',(-1.05000000000014,24.1999999999999,-0.739999999999968));
#1365=CARTESIAN_POINT('',(-0.550000000000138,24.1999999999999,-1.23999999999997));
#1366=CARTESIAN_POINT('Origin',(-0.0500000000002066,24.1999999999997,59.2099999999999));
#1367=CARTESIAN_POINT('',(-0.0500000000002038,24.1999999999997,57.21));
#1368=CARTESIAN_POINT('',(-0.0500000000002066,24.1999999999997,59.2099999999999));
#1369=CARTESIAN_POINT('',(-0.0500000000002038,24.1999999999997,57.21));
#1370=CARTESIAN_POINT('',(-0.0500000000002032,26.1999999999997,59.2099999999999));
#1371=CARTESIAN_POINT('',(-0.0500000000002071,2.19999999999966,59.2099999999998));
#1372=CARTESIAN_POINT('',(-0.0500000000002032,26.1999999999997,57.21));
#1373=CARTESIAN_POINT('',(-0.050000000000181,26.1999999999997,43.9725));
#1374=CARTESIAN_POINT('',(-0.0500000000002043,2.19999999999967,57.2099999999999));
#1375=CARTESIAN_POINT('Origin',(-0.0500000000002038,24.1999999999997,57.21));
#1376=CARTESIAN_POINT('',(-2.0500000000002,24.1999999999997,57.21));
#1377=CARTESIAN_POINT('',(-0.0500000000002038,24.1999999999997,57.21));
#1378=CARTESIAN_POINT('',(-0.0500000000002043,2.19999999999967,57.2099999999999));
#1379=CARTESIAN_POINT('',(-2.0500000000002,26.1999999999997,57.21));
#1380=CARTESIAN_POINT('',(20.0999999999998,26.1999999999997,57.21));
#1381=CARTESIAN_POINT('',(-2.0500000000002,2.19999999999967,57.2099999999999));
#1382=CARTESIAN_POINT('Origin',(-1.0500000000002,24.1999999999997,58.21));
#1383=CARTESIAN_POINT('',(-1.5500000000002,24.1999999999997,57.71));
#1384=CARTESIAN_POINT('Origin',(80.5499999999998,24.1999999999999,-1.73999999999987));
#1385=CARTESIAN_POINT('',(80.5499999999998,24.1999999999999,0.260000000000129));
#1386=CARTESIAN_POINT('',(80.5499999999998,24.1999999999999,-1.73999999999987));
#1387=CARTESIAN_POINT('',(80.5499999999998,24.1999999999999,0.260000000000129));
#1388=CARTESIAN_POINT('',(80.5499999999998,26.1999999999999,-1.73999999999986));
#1389=CARTESIAN_POINT('',(80.5499999999998,2.19999999999995,-1.73999999999998));
#1390=CARTESIAN_POINT('',(80.5499999999998,26.1999999999999,0.260000000000139));
#1391=CARTESIAN_POINT('',(80.5499999999998,26.1999999999999,13.4975000000001));
#1392=CARTESIAN_POINT('',(80.5499999999998,2.19999999999994,0.260000000000025));
#1393=CARTESIAN_POINT('Origin',(80.5499999999998,24.1999999999999,0.260000000000129));
#1394=CARTESIAN_POINT('',(82.5499999999998,24.1999999999999,0.260000000000129));
#1395=CARTESIAN_POINT('',(80.5499999999998,24.1999999999999,0.260000000000129));
#1396=CARTESIAN_POINT('',(80.5499999999998,2.19999999999994,0.260000000000025));
#1397=CARTESIAN_POINT('',(82.5499999999998,26.1999999999999,0.260000000000139));
#1398=CARTESIAN_POINT('',(60.3999999999998,26.1999999999999,0.26000000000014));
#1399=CARTESIAN_POINT('',(82.5499999999998,2.19999999999994,0.260000000000025));
#1400=CARTESIAN_POINT('Origin',(81.5499999999998,24.1999999999999,-0.739999999999871));
#1401=CARTESIAN_POINT('',(82.0499999999998,24.1999999999999,-0.239999999999866));
#1402=CARTESIAN_POINT('Origin',(2.10907829264158,26.1999999999999,14.4154985470422));
#1403=CARTESIAN_POINT('',(-2.05000000000017,26.1999999999998,30.5709970940843));
#1404=CARTESIAN_POINT('',(-2.05000000000015,26.1999999999999,7.33774927352111));
#1405=CARTESIAN_POINT('',(-0.0500000000001766,26.1999999999998,30.5709970940843));
#1406=CARTESIAN_POINT('',(0.0295391463207056,26.1999999999998,30.5709970940843));
#1407=CARTESIAN_POINT('',(-0.0500000000001652,26.1999999999998,22.4932478205633));
#1408=CARTESIAN_POINT('Origin',(2.10907829264158,26.1999999999999,14.4154985470422));
#1409=CARTESIAN_POINT('',(6.26815658528334,26.1999999999999,0.26000000000005));
#1410=CARTESIAN_POINT('',(1.02953914632073,26.1999999999999,0.260000000000044));
#1411=CARTESIAN_POINT('',(6.26815658528334,26.2,-1.73999999999997));
#1412=CARTESIAN_POINT('',(6.26815658528334,26.1999999999999,-0.739999999999929));
#1413=CARTESIAN_POINT('',(4.18861743896247,26.2,-1.73999999999995));
#1414=CARTESIAN_POINT('Origin',(40.2499999999998,26.1999999999998,28.7350000000001));
#1415=CARTESIAN_POINT('',(62.8555264282495,26.1999999999999,-1.73999999999988));
#1416=CARTESIAN_POINT('',(-0.0500000000001386,26.2,-1.73999999999996));
#1417=CARTESIAN_POINT('',(62.8555264282495,26.1999999999999,-1.49495160069113));
#1418=CARTESIAN_POINT('',(62.8555264282495,26.1999999999999,0.260000000000092));
#1419=CARTESIAN_POINT('',(63.0000009387732,26.1999999999999,-1.49495160069113));
#1420=CARTESIAN_POINT('',(41.1250003129243,26.1999999999999,-1.49495160069113));
#1421=CARTESIAN_POINT('',(63.0000009387732,26.1999999999999,0.));
#1422=CARTESIAN_POINT('',(63.0000009387732,26.1999999999999,13.6200241996545));
#1423=CARTESIAN_POINT('',(62.8555264282495,26.1999999999999,0.));
#1424=CARTESIAN_POINT('',(51.6250004693865,26.1999999999999,0.));
#1425=CARTESIAN_POINT('',(62.8555264282495,26.1999999999999,0.260000000000092));
#1426=CARTESIAN_POINT('',(62.8555264282495,26.1999999999999,0.260000000000092));
#1427=CARTESIAN_POINT('',(-0.050000000000141,26.1999999999999,0.260000000000041));
#1428=CARTESIAN_POINT('Origin',(40.2499999999998,26.1999999999998,28.7350000000001));
#1429=CARTESIAN_POINT('',(51.8354705101758,26.1999999999997,59.21));
#1430=CARTESIAN_POINT('',(50.9499999999998,26.1999999999997,59.21));
#1431=CARTESIAN_POINT('',(82.5499999999998,26.1999999999998,25.3825114402616));
#1432=CARTESIAN_POINT('',(51.5834972363909,26.1999999999997,59.4875111055875));
#1433=CARTESIAN_POINT('',(82.5499999999998,26.1999999999998,25.3825114402616));
#1434=CARTESIAN_POINT('',(80.5499999999998,26.1999999999998,24.6100000000001));
#1435=CARTESIAN_POINT('',(80.5499999999998,26.1999999999999,0.260000000000139));
#1436=CARTESIAN_POINT('',(50.9499999999998,26.1999999999997,57.21));
#1437=CARTESIAN_POINT('',(80.5499999999998,26.1999999999998,24.6100000000001));
#1438=CARTESIAN_POINT('',(50.9499999999998,26.1999999999997,57.21));
#1439=CARTESIAN_POINT('Origin',(40.2499999999998,26.1999999999998,28.7350000000001));
#1440=CARTESIAN_POINT('',(-0.0500000000001855,26.1999999999997,48.1189441988596));
#1441=CARTESIAN_POINT('',(-0.0500000000002043,26.1999999999997,57.21));
#1442=CARTESIAN_POINT('',(-2.05000000000018,26.1999999999997,48.1189441988596));
#1443=CARTESIAN_POINT('',(-2.05000000000017,26.1999999999997,48.1189441988596));
#1444=CARTESIAN_POINT('',(-2.0500000000002,26.1999999999997,57.21));
#1445=CARTESIAN_POINT('Origin',(42.0000006258488,26.1999999999999,0.));
#1446=CARTESIAN_POINT('',(42.0000006258488,2.19999999999994,-1.49495160069113));
#1447=CARTESIAN_POINT('',(42.0000006258488,2.19999999999994,0.));
#1448=CARTESIAN_POINT('',(42.0000006258488,2.19999999999987,14.3674999999999));
#1449=CARTESIAN_POINT('',(42.0000006258488,26.1999999999999,-1.49495160069113));
#1450=CARTESIAN_POINT('',(42.0000006258488,26.1999999999999,-1.49495160069113));
#1451=CARTESIAN_POINT('',(42.0000006258488,26.1999999999999,0.));
#1452=CARTESIAN_POINT('',(42.0000006258488,26.1999999999999,7.2077492735211));
#1453=CARTESIAN_POINT('',(42.0000006258488,26.1999999999999,0.));
#1454=CARTESIAN_POINT('Origin',(42.0000006258488,26.1999999999999,-1.49495160069113));
#1455=CARTESIAN_POINT('',(62.8555264282495,2.19999999999995,-1.49495160069113));
#1456=CARTESIAN_POINT('',(62.8555264282495,14.1999999999999,-1.49495160069113));
#1457=CARTESIAN_POINT('',(63.0000009387732,2.19999999999994,-1.49495160069113));
#1458=CARTESIAN_POINT('',(41.1250003129243,2.19999999999995,-1.49495160069113));
#1459=CARTESIAN_POINT('',(63.0000009387732,26.1999999999999,-1.49495160069113));
#1460=CARTESIAN_POINT('Origin',(63.0000009387732,26.1999999999999,0.));
#1461=CARTESIAN_POINT('',(62.8555264282495,2.19999999999994,0.));
#1462=CARTESIAN_POINT('',(62.8555264282495,14.1999999999999,0.));
#1463=CARTESIAN_POINT('',(63.0000009387732,2.19999999999994,0.));
#1464=CARTESIAN_POINT('',(63.0000009387732,26.1999999999999,0.));
#1465=CARTESIAN_POINT('',(51.6250004693865,2.19999999999994,0.));
#1466=CARTESIAN_POINT('Origin',(63.0000009387732,26.1999999999999,0.));
#1467=CARTESIAN_POINT('',(42.0776768685438,2.19999999999994,0.));
#1468=CARTESIAN_POINT('',(51.6250004693865,2.19999999999994,0.));
#1469=CARTESIAN_POINT('',(42.0776768685438,26.1999999999999,0.));
#1470=CARTESIAN_POINT('',(32.5545396157074,26.1999999999999,0.));
#1471=CARTESIAN_POINT('',(42.0776768685438,14.1999999999999,0.));
#1472=CARTESIAN_POINT('Origin',(63.0000009387732,26.1999999999999,-1.49495160069113));
#1473=CARTESIAN_POINT('',(63.0000009387732,2.19999999999987,13.6200241996543));
#1474=CARTESIAN_POINT('Origin',(42.0000006258488,26.1999999999999,-1.49495160069113));
#1475=CARTESIAN_POINT('',(42.0776768685438,2.19999999999995,-1.49495160069113));
#1476=CARTESIAN_POINT('',(41.1250003129243,2.19999999999995,-1.49495160069113));
#1477=CARTESIAN_POINT('',(42.0776768685438,26.2,-1.49495160069113));
#1478=CARTESIAN_POINT('',(42.0776768685438,14.1999999999999,-1.49495160069113));
#1479=CARTESIAN_POINT('',(22.0545394592452,26.2,-1.49495160069113));
#1480=CARTESIAN_POINT('Origin',(42.0776768685438,2.19999999999994,0.259999999999978));
#1481=CARTESIAN_POINT('',(42.0776768685438,26.1999999999999,0.260000000000093));
#1482=CARTESIAN_POINT('',(42.0776768685438,26.1999999999999,7.33774927352114));
#1483=CARTESIAN_POINT('',(42.0776768685438,4.19999999999994,0.259999999999987));
#1484=CARTESIAN_POINT('',(42.0776768685438,2.19999999999994,0.259999999999978));
#1485=CARTESIAN_POINT('',(42.0776768685438,2.19999999999994,0.259999999999978));
#1486=CARTESIAN_POINT('',(42.0776768685437,2.19999999999994,0.259999999999978));
#1487=CARTESIAN_POINT('',(42.0776768685438,2.19999999999995,-1.74000000000002));
#1488=CARTESIAN_POINT('Origin',(40.2499999999998,2.1999999999998,28.7349999999999));
#1489=CARTESIAN_POINT('',(62.8555264282495,2.19999999999994,0.259999999999978));
#1490=CARTESIAN_POINT('',(-0.050000000000141,2.19999999999994,0.259999999999927));
#1491=CARTESIAN_POINT('',(62.8555264282495,2.19999999999994,0.259999999999978));
#1492=CARTESIAN_POINT('',(62.8555264282495,2.19999999999995,-1.74));
#1493=CARTESIAN_POINT('',(62.8555264282495,2.19999999999994,0.259999999999978));
#1494=CARTESIAN_POINT('',(80.5499999999998,2.19999999999995,-1.73999999999998));
#1495=CARTESIAN_POINT('',(-0.0500000000001386,2.19999999999995,-1.74000000000007));
#1496=CARTESIAN_POINT('',(82.5499999999998,2.19999999999994,0.260000000000025));
#1497=CARTESIAN_POINT('',(80.5499999999998,2.19999999999995,-1.73999999999998));
#1498=CARTESIAN_POINT('',(82.5499999999998,2.19999999999982,25.3825114402615));
#1499=CARTESIAN_POINT('',(82.5499999999998,2.19999999999982,25.3825114402615));
#1500=CARTESIAN_POINT('',(51.8354705101758,2.19999999999966,59.2099999999999));
#1501=CARTESIAN_POINT('',(51.5834972363909,2.19999999999966,59.4875111055874));
#1502=CARTESIAN_POINT('',(-0.0500000000002071,2.19999999999966,59.2099999999998));
#1503=CARTESIAN_POINT('',(50.9499999999998,2.19999999999966,59.2099999999999));
#1504=CARTESIAN_POINT('',(-2.0500000000002,2.19999999999967,57.2099999999999));
#1505=CARTESIAN_POINT('',(-2.0500000000002,2.19999999999967,57.2099999999999));
#1506=CARTESIAN_POINT('',(-2.05000000000017,2.19999999999971,48.1189441988595));
#1507=CARTESIAN_POINT('',(-2.0500000000002,2.19999999999967,57.2099999999999));
#1508=CARTESIAN_POINT('',(-0.0500000000001941,2.19999999999971,48.1189441988595));
#1509=CARTESIAN_POINT('',(-2.05000000000017,2.19999999999971,48.1189441988595));
#1510=CARTESIAN_POINT('',(-0.0500000000001746,2.19999999999979,30.5709970940842));
#1511=CARTESIAN_POINT('',(-0.0500000000002043,2.19999999999967,57.2099999999999));
#1512=CARTESIAN_POINT('',(-2.05000000000017,2.19999999999979,30.5709970940842));
#1513=CARTESIAN_POINT('',(-2.05000000000017,2.19999999999979,30.5709970940842));
#1514=CARTESIAN_POINT('',(-2.05000000000014,2.19999999999994,0.259999999999927));
#1515=CARTESIAN_POINT('',(-2.0500000000002,2.19999999999967,57.2099999999999));
#1516=CARTESIAN_POINT('',(-0.0500000000001386,2.19999999999995,-1.74000000000007));
#1517=CARTESIAN_POINT('',(-2.05000000000014,2.19999999999994,0.259999999999925));
#1518=CARTESIAN_POINT('',(6.26815658528334,2.19999999999995,-1.74000000000007));
#1519=CARTESIAN_POINT('',(-0.0500000000001386,2.19999999999995,-1.74000000000007));
#1520=CARTESIAN_POINT('',(6.26815658528334,2.19999999999994,0.259999999999976));
#1521=CARTESIAN_POINT('',(6.26815658528334,2.19999999999994,0.259999999999976));
#1522=CARTESIAN_POINT('',(24.5000003650784,2.19999999999987,0.260000000000101));
#1523=CARTESIAN_POINT('',(32.3750001825392,2.19999999999994,0.260000000000158));
#1524=CARTESIAN_POINT('',(24.5000003650785,2.19999999999987,-1.49495160069113));
#1525=CARTESIAN_POINT('',(24.5000003650783,2.19999999999987,13.6200241996543));
#1526=CARTESIAN_POINT('',(24.3811116122813,2.19999999999987,-1.49495160069113));
#1527=CARTESIAN_POINT('',(23.2590782926409,2.19999999999995,-1.49495160069108));
#1528=CARTESIAN_POINT('',(24.3811116122813,2.19999999999995,-1.74000000000004));
#1529=CARTESIAN_POINT('',(24.3811116122813,2.19999999999994,0.259999999999976));
#1530=CARTESIAN_POINT('',(42.0776768685438,2.19999999999995,-1.74000000000002));
#1531=CARTESIAN_POINT('',(-0.0500000000001386,2.19999999999995,-1.74000000000007));
#1532=CARTESIAN_POINT('',(42.0776768685438,2.19999999999995,-1.74000000000002));
#1533=CARTESIAN_POINT('Origin',(62.8555264282495,2.19999999999995,-1.74));
#1534=CARTESIAN_POINT('',(62.8555264282495,4.19999999999992,0.259999999999988));
#1535=CARTESIAN_POINT('',(62.8555264282495,2.19999999999994,0.260000000000003));
#1536=CARTESIAN_POINT('',(62.8555264282495,2.19999999999994,0.259999999999978));
#1537=CARTESIAN_POINT('Origin',(62.8555264282495,2.19999999999995,-1.74));
#1538=CARTESIAN_POINT('',(62.8555264282495,2.19999999999995,-1.74));
#1539=CARTESIAN_POINT('Origin',(6.26815658528334,26.1999999999999,-1.49495160069035));
#1540=CARTESIAN_POINT('',(24.3811116122813,26.2,-1.49495160069113));
#1541=CARTESIAN_POINT('',(24.3811116122813,14.1999999999999,-1.49495160069113));
#1542=CARTESIAN_POINT('',(24.5000003650785,26.1999999999999,-1.49495160069113));
#1543=CARTESIAN_POINT('',(24.5000003650785,26.1999999999999,-1.49495160069113));
#1544=CARTESIAN_POINT('',(4.18861743896212,26.2,-1.49495160069026));
#1545=CARTESIAN_POINT('Origin',(24.5000003650785,26.1999999999999,-1.49495160069113));
#1546=CARTESIAN_POINT('',(24.5000003650784,26.1999999999999,0.260000000000101));
#1547=CARTESIAN_POINT('',(24.5000003650784,26.1999999999999,6.46027347317561));
#1548=CARTESIAN_POINT('',(24.5000003650784,4.19999999999992,0.260000000000101));
#1549=CARTESIAN_POINT('',(24.5000003650784,26.1999999999999,0.260000000000101));
#1550=CARTESIAN_POINT('',(24.5000003650785,14.1999999999999,0.260000000000014));
#1551=CARTESIAN_POINT('Origin',(24.3811116122813,2.19999999999995,-1.74000000000004));
#1552=CARTESIAN_POINT('',(24.3811116122813,26.2,-1.73999999999993));
#1553=CARTESIAN_POINT('',(24.3811116122813,26.2,-1.73999999999993));
#1554=CARTESIAN_POINT('',(24.3811116122813,2.19999999999995,-1.74000000000004));
#1555=CARTESIAN_POINT('Origin',(2.10907829264158,26.1999999999999,14.4154985470422));
#1556=CARTESIAN_POINT('',(42.0776768685438,26.2,-1.73999999999991));
#1557=CARTESIAN_POINT('',(42.0776768685438,26.1999999999999,7.33774927352114));
#1558=CARTESIAN_POINT('',(4.18861743896247,26.2,-1.73999999999995));
#1559=CARTESIAN_POINT('',(1.02953914632073,26.1999999999999,0.260000000000044));
#1560=CARTESIAN_POINT('Origin',(-2.05000000000017,2.19999999999979,30.5709970940842));
#1561=CARTESIAN_POINT('',(-2.05000000000017,2.19999999999979,30.5709970940842));
#1562=CARTESIAN_POINT('',(-0.0500000000001746,4.19999999999979,30.5709970940842));
#1563=CARTESIAN_POINT('',(-0.0500000000001748,2.19999999999979,30.5709970940842));
#1564=CARTESIAN_POINT('',(-0.0500000000001746,2.19999999999979,30.5709970940842));
#1565=CARTESIAN_POINT('Origin',(-2.05000000000014,2.19999999999994,0.259999999999927));
#1566=CARTESIAN_POINT('',(-2.05000000000014,2.19999999999994,0.259999999999927));
#1567=CARTESIAN_POINT('Origin',(-0.050000000000141,2.19999999999994,0.259999999999927));
#1568=CARTESIAN_POINT('',(-0.050000000000141,4.19999999999994,0.259999999999936));
#1569=CARTESIAN_POINT('Origin',(-0.0500000000001385,2.19999999999995,-1.74000000000007));
#1570=CARTESIAN_POINT('',(-0.0500000000001386,2.19999999999995,-1.74000000000007));
#1571=CARTESIAN_POINT('Origin',(6.26815658528334,2.19999999999995,-1.74000000000007));
#1572=CARTESIAN_POINT('',(6.26815658528334,2.19999999999995,-1.74000000000007));
#1573=CARTESIAN_POINT('Origin',(-0.050000000000141,2.19999999999994,0.259999999999927));
#1574=CARTESIAN_POINT('',(-0.050000000000141,4.19999999999994,0.259999999999936));
#1575=CARTESIAN_POINT('',(-0.050000000000141,2.19999999999994,0.259999999999927));
#1576=CARTESIAN_POINT('',(6.26815658528334,4.19999999999994,0.259999999999943));
#1577=CARTESIAN_POINT('',(-0.050000000000141,4.19999999999994,0.259999999999936));
#1578=CARTESIAN_POINT('',(6.26815658528334,2.19999999999994,0.259999999999976));
#1579=CARTESIAN_POINT('Origin',(-0.0500000000001747,2.19999999999979,30.5709970940842));
#1580=CARTESIAN_POINT('',(-0.0500000000002043,4.19999999999967,57.2099999999999));
#1581=CARTESIAN_POINT('Origin',(6.26815658528334,2.19999999999995,-1.74000000000007));
#1582=CARTESIAN_POINT('',(42.0776768685438,2.19999999999995,-1.74000000000002));
#1583=CARTESIAN_POINT('Origin',(6.26815658528334,2.19999999999994,0.259999999999976));
#1584=CARTESIAN_POINT('',(6.26815658528333,2.19999999999994,0.259999999999935));
#1585=CARTESIAN_POINT('Origin',(42.0776768685438,2.19999999999994,0.259999999999978));
#1586=CARTESIAN_POINT('Origin',(80.5499999999999,2.19999999999994,0.260000000000025));
#1587=CARTESIAN_POINT('',(-0.050000000000141,4.19999999999994,0.259999999999936));
#1588=CARTESIAN_POINT('Origin',(80.5499999999999,2.19999999999994,0.260000000000025));
#1589=CARTESIAN_POINT('',(-0.050000000000141,4.19999999999994,0.259999999999936));
#1590=CARTESIAN_POINT('Origin',(62.8555264282495,2.19999999999994,0.260000000000003));
#1591=CARTESIAN_POINT('',(80.5499999999998,4.19999999999994,0.260000000000034));
#1592=CARTESIAN_POINT('',(-0.050000000000141,4.19999999999994,0.259999999999936));
#1593=CARTESIAN_POINT('',(80.5499999999998,2.19999999999994,0.260000000000025));
#1594=CARTESIAN_POINT('Origin',(80.5499999999998,2.19999999999994,0.260000000000025));
#1595=CARTESIAN_POINT('',(80.5499999999998,4.19999999999982,24.61));
#1596=CARTESIAN_POINT('',(80.5499999999998,4.19999999999994,0.260000000000034));
#1597=CARTESIAN_POINT('',(80.5499999999998,2.19999999999982,24.61));
#1598=CARTESIAN_POINT('Origin',(80.5499999999998,2.19999999999995,-1.73999999999998));
#1599=CARTESIAN_POINT('',(80.5499999999998,2.19999999999995,-1.73999999999998));
#1600=CARTESIAN_POINT('Origin',(82.5499999999998,2.19999999999994,0.260000000000024));
#1601=CARTESIAN_POINT('',(82.5499999999998,2.19999999999994,0.260000000000025));
#1602=CARTESIAN_POINT('Origin',(82.5499999999998,2.19999999999982,25.3825114402615));
#1603=CARTESIAN_POINT('',(82.5499999999998,2.19999999999982,25.3825114402615));
#1604=CARTESIAN_POINT('Origin',(51.8354705101758,2.19999999999966,59.2099999999999));
#1605=CARTESIAN_POINT('',(51.8354705101758,2.19999999999966,59.2099999999999));
#1606=CARTESIAN_POINT('Origin',(-0.0500000000002032,2.19999999999966,59.2099999999998));
#1607=CARTESIAN_POINT('',(-0.0500000000002071,2.19999999999966,59.2099999999998));
#1608=CARTESIAN_POINT('Origin',(-2.0500000000002,2.19999999999967,57.2099999999999));
#1609=CARTESIAN_POINT('',(-2.0500000000002,2.19999999999967,57.2099999999999));
#1610=CARTESIAN_POINT('Origin',(-2.05000000000019,2.19999999999971,48.1189441988595));
#1611=CARTESIAN_POINT('',(-2.05000000000017,2.19999999999971,48.1189441988595));
#1612=CARTESIAN_POINT('Origin',(-0.0500000000001941,2.19999999999971,48.1189441988595));
#1613=CARTESIAN_POINT('',(-0.0500000000001942,4.19999999999971,48.1189441988595));
#1614=CARTESIAN_POINT('',(-0.0500000000001941,2.19999999999971,48.1189441988595));
#1615=CARTESIAN_POINT('',(-0.0500000000001942,2.19999999999971,48.1189441988595));
#1616=CARTESIAN_POINT('Origin',(-0.0500000000002043,2.19999999999967,57.2099999999999));
#1617=CARTESIAN_POINT('',(-0.0500000000002032,4.19999999999967,57.2099999999999));
#1618=CARTESIAN_POINT('',(-0.0500000000002043,4.19999999999967,57.2099999999999));
#1619=CARTESIAN_POINT('',(-0.0500000000002043,2.19999999999967,57.2099999999999));
#1620=CARTESIAN_POINT('Origin',(50.9499999999998,2.19999999999967,57.2099999999999));
#1621=CARTESIAN_POINT('',(50.9499999999998,4.19999999999967,57.2099999999999));
#1622=CARTESIAN_POINT('',(50.9499999999998,4.19999999999967,57.2099999999999));
#1623=CARTESIAN_POINT('',(50.9499999999998,2.19999999999967,57.2099999999999));
#1624=CARTESIAN_POINT('Origin',(80.5499999999998,2.19999999999982,24.61));
#1625=CARTESIAN_POINT('',(80.5499999999998,4.19999999999982,24.61));
#1626=CARTESIAN_POINT('Origin',(-0.050000000000141,2.19999999999994,0.259999999999927));
#1627=CARTESIAN_POINT('',(-0.0500000000002043,4.19999999999967,57.2099999999999));
#1628=CARTESIAN_POINT('Origin',(40.2499999999998,4.19999999999979,28.7349999999999));
#1629=UNCERTAINTY_MEASURE_WITH_UNIT(LENGTH_MEASURE(0.01),#1633,
'DISTANCE_ACCURACY_VALUE',
'Maximum model space distance between geometric entities at asserted c
onnectivities');
#1630=UNCERTAINTY_MEASURE_WITH_UNIT(LENGTH_MEASURE(0.01),#1633,
'DISTANCE_ACCURACY_VALUE',
'Maximum model space distance between geometric entities at asserted c
onnectivities');
#1631=(
GEOMETRIC_REPRESENTATION_CONTEXT(3)
GLOBAL_UNCERTAINTY_ASSIGNED_CONTEXT((#1629))
GLOBAL_UNIT_ASSIGNED_CONTEXT((#1633,#1635,#1636))
REPRESENTATION_CONTEXT('','3D')
);
#1632=(
GEOMETRIC_REPRESENTATION_CONTEXT(3)
GLOBAL_UNCERTAINTY_ASSIGNED_CONTEXT((#1630))
GLOBAL_UNIT_ASSIGNED_CONTEXT((#1633,#1635,#1636))
REPRESENTATION_CONTEXT('','3D')
);
#1633=(
LENGTH_UNIT()
NAMED_UNIT(*)
SI_UNIT(.MILLI.,.METRE.)
);
#1634=(
LENGTH_UNIT()
NAMED_UNIT(*)
SI_UNIT($,.METRE.)
);
#1635=(
NAMED_UNIT(*)
PLANE_ANGLE_UNIT()
SI_UNIT($,.RADIAN.)
);
#1636=(
NAMED_UNIT(*)
SI_UNIT($,.STERADIAN.)
SOLID_ANGLE_UNIT()
);
#1637=SHAPE_DEFINITION_REPRESENTATION(#1638,#1639);
#1638=PRODUCT_DEFINITION_SHAPE('',$,#1641);
#1639=SHAPE_REPRESENTATION('',(#1038),#1631);
#1640=PRODUCT_DEFINITION_CONTEXT('part definition',#1645,'design');
#1641=PRODUCT_DEFINITION('Body_Base','Body_Base v1',#1642,#1640);
#1642=PRODUCT_DEFINITION_FORMATION('',$,#1647);
#1643=PRODUCT_RELATED_PRODUCT_CATEGORY('Body_Base v1','Body_Base v1',(#1647));
#1644=APPLICATION_PROTOCOL_DEFINITION('international standard',
'automotive_design',2009,#1645);
#1645=APPLICATION_CONTEXT(
'Core Data for Automotive Mechanical Design Process');
#1646=PRODUCT_CONTEXT('part definition',#1645,'mechanical');
#1647=PRODUCT('Body_Base','Body_Base v1',$,(#1646));
#1648=PRESENTATION_STYLE_ASSIGNMENT((#1649));
#1649=SURFACE_STYLE_USAGE(.BOTH.,#1650);
#1650=SURFACE_SIDE_STYLE('',(#1651));
#1651=SURFACE_STYLE_FILL_AREA(#1652);
#1652=FILL_AREA_STYLE('Steel - Satin',(#1653));
#1653=FILL_AREA_STYLE_COLOUR('Steel - Satin',#1654);
#1654=COLOUR_RGB('Steel - Satin',0.627450980392157,0.627450980392157,0.627450980392157);
ENDSEC;
END-ISO-10303-21;
