ISO-10303-21;
HEADER;
/* Generated by software containing ST-Developer
 * from STEP Tools, Inc. (www.steptools.com) 
 */

FILE_DESCRIPTION(
/* description */ (''),
/* implementation_level */ '2;1');

FILE_NAME(
/* name */ 'Base.step',
/* time_stamp */ '2026-09-07T10:58:02+01:00',
/* author */ (''),
/* organization */ (''),
/* preprocessor_version */ 'ST-DEVELOPER v20.2',
/* originating_system */ 'Autodesk Translation Framework v15.15.0.0',
/* authorisation */ '');

FILE_SCHEMA (('AUTOMOTIVE_DESIGN { 1 0 10303 214 3 1 1 }'));
ENDSEC;

DATA;
#10=MECHANICAL_DESIGN_GEOMETRIC_PRESENTATION_REPRESENTATION('',(#13),#1183);
#11=SHAPE_REPRESENTATION_RELATIONSHIP('SRR','None',#1190,#12);
#12=ADVANCED_BREP_SHAPE_REPRESENTATION('',(#14),#1182);
#13=STYLED_ITEM('',(#1199),#14);
#14=MANIFOLD_SOLID_BREP('Body1',#744);
#15=FACE_BOUND('',#60,.T.);
#16=FACE_BOUND('',#82,.T.);
#17=FACE_OUTER_BOUND('',#55,.T.);
#18=FACE_OUTER_BOUND('',#56,.T.);
#19=FACE_OUTER_BOUND('',#57,.T.);
#20=FACE_OUTER_BOUND('',#58,.T.);
#21=FACE_OUTER_BOUND('',#59,.T.);
#22=FACE_OUTER_BOUND('',#61,.T.);
#23=FACE_OUTER_BOUND('',#62,.T.);
#24=FACE_OUTER_BOUND('',#63,.T.);
#25=FACE_OUTER_BOUND('',#64,.T.);
#26=FACE_OUTER_BOUND('',#65,.T.);
#27=FACE_OUTER_BOUND('',#66,.T.);
#28=FACE_OUTER_BOUND('',#67,.T.);
#29=FACE_OUTER_BOUND('',#68,.T.);
#30=FACE_OUTER_BOUND('',#69,.T.);
#31=FACE_OUTER_BOUND('',#70,.T.);
#32=FACE_OUTER_BOUND('',#71,.T.);
#33=FACE_OUTER_BOUND('',#72,.T.);
#34=FACE_OUTER_BOUND('',#73,.T.);
#35=FACE_OUTER_BOUND('',#74,.T.);
#36=FACE_OUTER_BOUND('',#75,.T.);
#37=FACE_OUTER_BOUND('',#76,.T.);
#38=FACE_OUTER_BOUND('',#77,.T.);
#39=FACE_OUTER_BOUND('',#78,.T.);
#40=FACE_OUTER_BOUND('',#79,.T.);
#41=FACE_OUTER_BOUND('',#80,.T.);
#42=FACE_OUTER_BOUND('',#81,.T.);
#43=FACE_OUTER_BOUND('',#83,.T.);
#44=FACE_OUTER_BOUND('',#84,.T.);
#45=FACE_OUTER_BOUND('',#85,.T.);
#46=FACE_OUTER_BOUND('',#86,.T.);
#47=FACE_OUTER_BOUND('',#87,.T.);
#48=FACE_OUTER_BOUND('',#88,.T.);
#49=FACE_OUTER_BOUND('',#89,.T.);
#50=FACE_OUTER_BOUND('',#90,.T.);
#51=FACE_OUTER_BOUND('',#91,.T.);
#52=FACE_OUTER_BOUND('',#92,.T.);
#53=FACE_OUTER_BOUND('',#93,.T.);
#54=FACE_OUTER_BOUND('',#94,.T.);
#55=EDGE_LOOP('',(#464,#465,#466,#467));
#56=EDGE_LOOP('',(#468,#469,#470,#471));
#57=EDGE_LOOP('',(#472,#473,#474,#475));
#58=EDGE_LOOP('',(#476,#477,#478,#479));
#59=EDGE_LOOP('',(#480,#481,#482,#483,#484,#485,#486,#487));
#60=EDGE_LOOP('',(#488,#489,#490,#491,#492,#493));
#61=EDGE_LOOP('',(#494,#495,#496,#497));
#62=EDGE_LOOP('',(#498,#499,#500,#501));
#63=EDGE_LOOP('',(#502,#503,#504,#505));
#64=EDGE_LOOP('',(#506,#507,#508,#509));
#65=EDGE_LOOP('',(#510,#511,#512,#513));
#66=EDGE_LOOP('',(#514,#515,#516,#517));
#67=EDGE_LOOP('',(#518,#519,#520,#521));
#68=EDGE_LOOP('',(#522,#523,#524,#525));
#69=EDGE_LOOP('',(#526,#527,#528,#529));
#70=EDGE_LOOP('',(#530,#531,#532,#533,#534,#535,#536,#537,#538,#539,#540,
#541,#542,#543,#544,#545));
#71=EDGE_LOOP('',(#546,#547,#548,#549,#550,#551));
#72=EDGE_LOOP('',(#552,#553,#554,#555));
#73=EDGE_LOOP('',(#556,#557,#558,#559,#560,#561,#562,#563));
#74=EDGE_LOOP('',(#564,#565,#566,#567));
#75=EDGE_LOOP('',(#568,#569,#570,#571));
#76=EDGE_LOOP('',(#572,#573,#574,#575));
#77=EDGE_LOOP('',(#576,#577,#578,#579));
#78=EDGE_LOOP('',(#580,#581,#582,#583));
#79=EDGE_LOOP('',(#584,#585,#586,#587));
#80=EDGE_LOOP('',(#588,#589,#590,#591,#592));
#81=EDGE_LOOP('',(#593,#594,#595,#596,#597,#598));
#82=EDGE_LOOP('',(#599,#600,#601,#602,#603,#604));
#83=EDGE_LOOP('',(#605,#606,#607,#608,#609));
#84=EDGE_LOOP('',(#610,#611,#612,#613,#614));
#85=EDGE_LOOP('',(#615,#616,#617,#618,#619));
#86=EDGE_LOOP('',(#620,#621,#622,#623));
#87=EDGE_LOOP('',(#624,#625,#626,#627,#628,#629,#630,#631,#632,#633,#634,
#635,#636));
#88=EDGE_LOOP('',(#637,#638,#639,#640,#641));
#89=EDGE_LOOP('',(#642,#643,#644,#645));
#90=EDGE_LOOP('',(#646,#647,#648,#649));
#91=EDGE_LOOP('',(#650,#651,#652,#653));
#92=EDGE_LOOP('',(#654,#655,#656,#657,#658,#659));
#93=EDGE_LOOP('',(#660,#661,#662,#663));
#94=EDGE_LOOP('',(#664,#665,#666,#667));
#95=LINE('',#980,#197);
#96=LINE('',#982,#198);
#97=LINE('',#984,#199);
#98=LINE('',#985,#200);
#99=LINE('',#988,#201);
#100=LINE('',#990,#202);
#101=LINE('',#991,#203);
#102=LINE('',#995,#204);
#103=LINE('',#997,#205);
#104=LINE('',#999,#206);
#105=LINE('',#1000,#207);
#106=LINE('',#1003,#208);
#107=LINE('',#1005,#209);
#108=LINE('',#1006,#210);
#109=LINE('',#1010,#211);
#110=LINE('',#1012,#212);
#111=LINE('',#1014,#213);
#112=LINE('',#1016,#214);
#113=LINE('',#1018,#215);
#114=LINE('',#1020,#216);
#115=LINE('',#1022,#217);
#116=LINE('',#1023,#218);
#117=LINE('',#1024,#219);
#118=LINE('',#1025,#220);
#119=LINE('',#1029,#221);
#120=LINE('',#1031,#222);
#121=LINE('',#1033,#223);
#122=LINE('',#1034,#224);
#123=LINE('',#1036,#225);
#124=LINE('',#1037,#226);
#125=LINE('',#1038,#227);
#126=LINE('',#1040,#228);
#127=LINE('',#1044,#229);
#128=LINE('',#1046,#230);
#129=LINE('',#1048,#231);
#130=LINE('',#1049,#232);
#131=LINE('',#1051,#233);
#132=LINE('',#1052,#234);
#133=LINE('',#1053,#235);
#134=LINE('',#1055,#236);
#135=LINE('',#1059,#237);
#136=LINE('',#1061,#238);
#137=LINE('',#1063,#239);
#138=LINE('',#1064,#240);
#139=LINE('',#1067,#241);
#140=LINE('',#1069,#242);
#141=LINE('',#1070,#243);
#142=LINE('',#1071,#244);
#143=LINE('',#1074,#245);
#144=LINE('',#1075,#246);
#145=LINE('',#1078,#247);
#146=LINE('',#1080,#248);
#147=LINE('',#1082,#249);
#148=LINE('',#1084,#250);
#149=LINE('',#1086,#251);
#150=LINE('',#1088,#252);
#151=LINE('',#1090,#253);
#152=LINE('',#1092,#254);
#153=LINE('',#1093,#255);
#154=LINE('',#1095,#256);
#155=LINE('',#1096,#257);
#156=LINE('',#1099,#258);
#157=LINE('',#1101,#259);
#158=LINE('',#1102,#260);
#159=LINE('',#1105,#261);
#160=LINE('',#1106,#262);
#161=LINE('',#1109,#263);
#162=LINE('',#1110,#264);
#163=LINE('',#1112,#265);
#164=LINE('',#1114,#266);
#165=LINE('',#1115,#267);
#166=LINE('',#1118,#268);
#167=LINE('',#1119,#269);
#168=LINE('',#1123,#270);
#169=LINE('',#1124,#271);
#170=LINE('',#1125,#272);
#171=LINE('',#1127,#273);
#172=LINE('',#1129,#274);
#173=LINE('',#1131,#275);
#174=LINE('',#1135,#276);
#175=LINE('',#1136,#277);
#176=LINE('',#1137,#278);
#177=LINE('',#1140,#279);
#178=LINE('',#1141,#280);
#179=LINE('',#1144,#281);
#180=LINE('',#1145,#282);
#181=LINE('',#1148,#283);
#182=LINE('',#1149,#284);
#183=LINE('',#1152,#285);
#184=LINE('',#1153,#286);
#185=LINE('',#1156,#287);
#186=LINE('',#1157,#288);
#187=LINE('',#1161,#289);
#188=LINE('',#1162,#290);
#189=LINE('',#1163,#291);
#190=LINE('',#1165,#292);
#191=LINE('',#1166,#293);
#192=LINE('',#1167,#294);
#193=LINE('',#1169,#295);
#194=LINE('',#1170,#296);
#195=LINE('',#1172,#297);
#196=LINE('',#1176,#298);
#197=VECTOR('',#800,10.);
#198=VECTOR('',#801,10.);
#199=VECTOR('',#802,10.);
#200=VECTOR('',#803,10.);
#201=VECTOR('',#806,10.);
#202=VECTOR('',#807,10.);
#203=VECTOR('',#808,10.);
#204=VECTOR('',#811,10.);
#205=VECTOR('',#812,10.);
#206=VECTOR('',#813,10.);
#207=VECTOR('',#814,10.);
#208=VECTOR('',#817,10.);
#209=VECTOR('',#818,10.);
#210=VECTOR('',#819,10.);
#211=VECTOR('',#822,10.);
#212=VECTOR('',#823,10.);
#213=VECTOR('',#824,10.);
#214=VECTOR('',#825,10.);
#215=VECTOR('',#826,10.);
#216=VECTOR('',#827,10.);
#217=VECTOR('',#828,10.);
#218=VECTOR('',#829,10.);
#219=VECTOR('',#830,10.);
#220=VECTOR('',#831,10.);
#221=VECTOR('',#834,10.);
#222=VECTOR('',#835,10.);
#223=VECTOR('',#836,10.);
#224=VECTOR('',#837,10.);
#225=VECTOR('',#840,10.);
#226=VECTOR('',#841,10.);
#227=VECTOR('',#842,10.);
#228=VECTOR('',#845,10.);
#229=VECTOR('',#848,10.);
#230=VECTOR('',#849,10.);
#231=VECTOR('',#850,10.);
#232=VECTOR('',#851,10.);
#233=VECTOR('',#854,10.);
#234=VECTOR('',#855,10.);
#235=VECTOR('',#856,10.);
#236=VECTOR('',#859,10.);
#237=VECTOR('',#862,10.);
#238=VECTOR('',#863,10.);
#239=VECTOR('',#864,10.);
#240=VECTOR('',#865,10.);
#241=VECTOR('',#868,10.);
#242=VECTOR('',#869,10.);
#243=VECTOR('',#870,10.);
#244=VECTOR('',#871,10.);
#245=VECTOR('',#874,10.);
#246=VECTOR('',#875,10.);
#247=VECTOR('',#878,10.);
#248=VECTOR('',#879,10.);
#249=VECTOR('',#880,10.);
#250=VECTOR('',#881,10.);
#251=VECTOR('',#882,10.);
#252=VECTOR('',#883,10.);
#253=VECTOR('',#884,10.);
#254=VECTOR('',#885,10.);
#255=VECTOR('',#886,10.);
#256=VECTOR('',#887,10.);
#257=VECTOR('',#888,10.);
#258=VECTOR('',#891,10.);
#259=VECTOR('',#892,10.);
#260=VECTOR('',#893,10.);
#261=VECTOR('',#896,10.);
#262=VECTOR('',#897,10.);
#263=VECTOR('',#900,10.);
#264=VECTOR('',#901,10.);
#265=VECTOR('',#902,10.);
#266=VECTOR('',#903,10.);
#267=VECTOR('',#904,10.);
#268=VECTOR('',#907,10.);
#269=VECTOR('',#908,10.);
#270=VECTOR('',#911,10.);
#271=VECTOR('',#912,10.);
#272=VECTOR('',#913,10.);
#273=VECTOR('',#916,10.);
#274=VECTOR('',#919,10.);
#275=VECTOR('',#922,10.);
#276=VECTOR('',#925,10.);
#277=VECTOR('',#926,10.);
#278=VECTOR('',#927,10.);
#279=VECTOR('',#930,10.);
#280=VECTOR('',#931,10.);
#281=VECTOR('',#934,10.);
#282=VECTOR('',#935,10.);
#283=VECTOR('',#938,10.);
#284=VECTOR('',#939,10.);
#285=VECTOR('',#942,10.);
#286=VECTOR('',#943,10.);
#287=VECTOR('',#946,10.);
#288=VECTOR('',#947,10.);
#289=VECTOR('',#950,10.);
#290=VECTOR('',#951,10.);
#291=VECTOR('',#952,10.);
#292=VECTOR('',#955,10.);
#293=VECTOR('',#956,10.);
#294=VECTOR('',#957,10.);
#295=VECTOR('',#958,10.);
#296=VECTOR('',#959,10.);
#297=VECTOR('',#962,10.);
#298=VECTOR('',#969,10.);
#299=VERTEX_POINT('',#978);
#300=VERTEX_POINT('',#979);
#301=VERTEX_POINT('',#981);
#302=VERTEX_POINT('',#983);
#303=VERTEX_POINT('',#987);
#304=VERTEX_POINT('',#989);
#305=VERTEX_POINT('',#993);
#306=VERTEX_POINT('',#994);
#307=VERTEX_POINT('',#996);
#308=VERTEX_POINT('',#998);
#309=VERTEX_POINT('',#1002);
#310=VERTEX_POINT('',#1004);
#311=VERTEX_POINT('',#1008);
#312=VERTEX_POINT('',#1009);
#313=VERTEX_POINT('',#1011);
#314=VERTEX_POINT('',#1013);
#315=VERTEX_POINT('',#1015);
#316=VERTEX_POINT('',#1017);
#317=VERTEX_POINT('',#1019);
#318=VERTEX_POINT('',#1021);
#319=VERTEX_POINT('',#1027);
#320=VERTEX_POINT('',#1028);
#321=VERTEX_POINT('',#1030);
#322=VERTEX_POINT('',#1032);
#323=VERTEX_POINT('',#1042);
#324=VERTEX_POINT('',#1043);
#325=VERTEX_POINT('',#1045);
#326=VERTEX_POINT('',#1047);
#327=VERTEX_POINT('',#1057);
#328=VERTEX_POINT('',#1058);
#329=VERTEX_POINT('',#1060);
#330=VERTEX_POINT('',#1062);
#331=VERTEX_POINT('',#1066);
#332=VERTEX_POINT('',#1068);
#333=VERTEX_POINT('',#1073);
#334=VERTEX_POINT('',#1077);
#335=VERTEX_POINT('',#1079);
#336=VERTEX_POINT('',#1081);
#337=VERTEX_POINT('',#1083);
#338=VERTEX_POINT('',#1085);
#339=VERTEX_POINT('',#1087);
#340=VERTEX_POINT('',#1089);
#341=VERTEX_POINT('',#1091);
#342=VERTEX_POINT('',#1094);
#343=VERTEX_POINT('',#1098);
#344=VERTEX_POINT('',#1100);
#345=VERTEX_POINT('',#1104);
#346=VERTEX_POINT('',#1108);
#347=VERTEX_POINT('',#1111);
#348=VERTEX_POINT('',#1113);
#349=VERTEX_POINT('',#1117);
#350=VERTEX_POINT('',#1121);
#351=VERTEX_POINT('',#1122);
#352=VERTEX_POINT('',#1133);
#353=VERTEX_POINT('',#1134);
#354=VERTEX_POINT('',#1139);
#355=VERTEX_POINT('',#1143);
#356=VERTEX_POINT('',#1147);
#357=VERTEX_POINT('',#1151);
#358=VERTEX_POINT('',#1155);
#359=VERTEX_POINT('',#1159);
#360=VERTEX_POINT('',#1160);
#361=VERTEX_POINT('',#1168);
#362=EDGE_CURVE('',#299,#300,#95,.T.);
#363=EDGE_CURVE('',#300,#301,#96,.T.);
#364=EDGE_CURVE('',#301,#302,#97,.T.);
#365=EDGE_CURVE('',#302,#299,#98,.T.);
#366=EDGE_CURVE('',#303,#300,#99,.T.);
#367=EDGE_CURVE('',#304,#303,#100,.T.);
#368=EDGE_CURVE('',#301,#304,#101,.T.);
#369=EDGE_CURVE('',#305,#306,#102,.T.);
#370=EDGE_CURVE('',#306,#307,#103,.T.);
#371=EDGE_CURVE('',#307,#308,#104,.T.);
#372=EDGE_CURVE('',#308,#305,#105,.T.);
#373=EDGE_CURVE('',#309,#306,#106,.T.);
#374=EDGE_CURVE('',#310,#309,#107,.T.);
#375=EDGE_CURVE('',#307,#310,#108,.T.);
#376=EDGE_CURVE('',#311,#312,#109,.T.);
#377=EDGE_CURVE('',#313,#312,#110,.T.);
#378=EDGE_CURVE('',#314,#313,#111,.T.);
#379=EDGE_CURVE('',#314,#315,#112,.T.);
#380=EDGE_CURVE('',#315,#316,#113,.T.);
#381=EDGE_CURVE('',#316,#317,#114,.T.);
#382=EDGE_CURVE('',#318,#317,#115,.T.);
#383=EDGE_CURVE('',#318,#311,#116,.T.);
#384=EDGE_CURVE('',#299,#308,#117,.T.);
#385=EDGE_CURVE('',#310,#303,#118,.T.);
#386=EDGE_CURVE('',#319,#320,#119,.T.);
#387=EDGE_CURVE('',#321,#319,#120,.T.);
#388=EDGE_CURVE('',#321,#322,#121,.T.);
#389=EDGE_CURVE('',#322,#320,#122,.T.);
#390=EDGE_CURVE('',#320,#318,#123,.T.);
#391=EDGE_CURVE('',#322,#320,#124,.T.);
#392=EDGE_CURVE('',#322,#311,#125,.T.);
#393=EDGE_CURVE('',#312,#321,#126,.T.);
#394=EDGE_CURVE('',#323,#324,#127,.T.);
#395=EDGE_CURVE('',#325,#323,#128,.T.);
#396=EDGE_CURVE('',#325,#326,#129,.T.);
#397=EDGE_CURVE('',#324,#326,#130,.T.);
#398=EDGE_CURVE('',#317,#323,#131,.T.);
#399=EDGE_CURVE('',#316,#325,#132,.T.);
#400=EDGE_CURVE('',#325,#323,#133,.T.);
#401=EDGE_CURVE('',#326,#315,#134,.T.);
#402=EDGE_CURVE('',#327,#328,#135,.T.);
#403=EDGE_CURVE('',#329,#327,#136,.T.);
#404=EDGE_CURVE('',#329,#330,#137,.T.);
#405=EDGE_CURVE('',#328,#330,#138,.T.);
#406=EDGE_CURVE('',#331,#327,#139,.T.);
#407=EDGE_CURVE('',#332,#331,#140,.T.);
#408=EDGE_CURVE('',#332,#329,#141,.T.);
#409=EDGE_CURVE('',#329,#327,#142,.T.);
#410=EDGE_CURVE('',#333,#332,#143,.T.);
#411=EDGE_CURVE('',#330,#333,#144,.T.);
#412=EDGE_CURVE('',#334,#319,#145,.T.);
#413=EDGE_CURVE('',#335,#334,#146,.T.);
#414=EDGE_CURVE('',#336,#335,#147,.T.);
#415=EDGE_CURVE('',#336,#337,#148,.T.);
#416=EDGE_CURVE('',#338,#337,#149,.T.);
#417=EDGE_CURVE('',#339,#338,#150,.T.);
#418=EDGE_CURVE('',#340,#339,#151,.T.);
#419=EDGE_CURVE('',#340,#341,#152,.T.);
#420=EDGE_CURVE('',#328,#341,#153,.T.);
#421=EDGE_CURVE('',#342,#333,#154,.T.);
#422=EDGE_CURVE('',#313,#342,#155,.T.);
#423=EDGE_CURVE('',#343,#331,#156,.T.);
#424=EDGE_CURVE('',#344,#343,#157,.T.);
#425=EDGE_CURVE('',#344,#342,#158,.T.);
#426=EDGE_CURVE('',#341,#345,#159,.T.);
#427=EDGE_CURVE('',#345,#327,#160,.T.);
#428=EDGE_CURVE('',#324,#346,#161,.T.);
#429=EDGE_CURVE('',#346,#343,#162,.T.);
#430=EDGE_CURVE('',#327,#347,#163,.T.);
#431=EDGE_CURVE('',#347,#348,#164,.T.);
#432=EDGE_CURVE('',#348,#323,#165,.T.);
#433=EDGE_CURVE('',#320,#349,#166,.T.);
#434=EDGE_CURVE('',#349,#334,#167,.T.);
#435=EDGE_CURVE('',#350,#351,#168,.T.);
#436=EDGE_CURVE('',#351,#338,#169,.T.);
#437=EDGE_CURVE('',#337,#350,#170,.T.);
#438=EDGE_CURVE('',#323,#320,#171,.T.);
#439=EDGE_CURVE('',#305,#302,#172,.T.);
#440=EDGE_CURVE('',#304,#309,#173,.T.);
#441=EDGE_CURVE('',#352,#353,#174,.T.);
#442=EDGE_CURVE('',#352,#348,#175,.T.);
#443=EDGE_CURVE('',#353,#347,#176,.T.);
#444=EDGE_CURVE('',#354,#352,#177,.T.);
#445=EDGE_CURVE('',#354,#325,#178,.T.);
#446=EDGE_CURVE('',#355,#354,#179,.T.);
#447=EDGE_CURVE('',#355,#322,#180,.T.);
#448=EDGE_CURVE('',#353,#356,#181,.T.);
#449=EDGE_CURVE('',#356,#329,#182,.T.);
#450=EDGE_CURVE('',#356,#357,#183,.T.);
#451=EDGE_CURVE('',#357,#345,#184,.T.);
#452=EDGE_CURVE('',#344,#358,#185,.T.);
#453=EDGE_CURVE('',#358,#314,#186,.T.);
#454=EDGE_CURVE('',#359,#360,#187,.T.);
#455=EDGE_CURVE('',#359,#351,#188,.T.);
#456=EDGE_CURVE('',#360,#350,#189,.T.);
#457=EDGE_CURVE('',#340,#357,#190,.T.);
#458=EDGE_CURVE('',#359,#339,#191,.T.);
#459=EDGE_CURVE('',#336,#360,#192,.T.);
#460=EDGE_CURVE('',#361,#335,#193,.T.);
#461=EDGE_CURVE('',#361,#355,#194,.T.);
#462=EDGE_CURVE('',#361,#349,#195,.T.);
#463=EDGE_CURVE('',#358,#346,#196,.T.);
#464=ORIENTED_EDGE('',*,*,#362,.T.);
#465=ORIENTED_EDGE('',*,*,#363,.T.);
#466=ORIENTED_EDGE('',*,*,#364,.T.);
#467=ORIENTED_EDGE('',*,*,#365,.T.);
#468=ORIENTED_EDGE('',*,*,#363,.F.);
#469=ORIENTED_EDGE('',*,*,#366,.F.);
#470=ORIENTED_EDGE('',*,*,#367,.F.);
#471=ORIENTED_EDGE('',*,*,#368,.F.);
#472=ORIENTED_EDGE('',*,*,#369,.T.);
#473=ORIENTED_EDGE('',*,*,#370,.T.);
#474=ORIENTED_EDGE('',*,*,#371,.T.);
#475=ORIENTED_EDGE('',*,*,#372,.T.);
#476=ORIENTED_EDGE('',*,*,#370,.F.);
#477=ORIENTED_EDGE('',*,*,#373,.F.);
#478=ORIENTED_EDGE('',*,*,#374,.F.);
#479=ORIENTED_EDGE('',*,*,#375,.F.);
#480=ORIENTED_EDGE('',*,*,#376,.T.);
#481=ORIENTED_EDGE('',*,*,#377,.F.);
#482=ORIENTED_EDGE('',*,*,#378,.F.);
#483=ORIENTED_EDGE('',*,*,#379,.T.);
#484=ORIENTED_EDGE('',*,*,#380,.T.);
#485=ORIENTED_EDGE('',*,*,#381,.T.);
#486=ORIENTED_EDGE('',*,*,#382,.F.);
#487=ORIENTED_EDGE('',*,*,#383,.T.);
#488=ORIENTED_EDGE('',*,*,#384,.T.);
#489=ORIENTED_EDGE('',*,*,#371,.F.);
#490=ORIENTED_EDGE('',*,*,#375,.T.);
#491=ORIENTED_EDGE('',*,*,#385,.T.);
#492=ORIENTED_EDGE('',*,*,#366,.T.);
#493=ORIENTED_EDGE('',*,*,#362,.F.);
#494=ORIENTED_EDGE('',*,*,#386,.F.);
#495=ORIENTED_EDGE('',*,*,#387,.F.);
#496=ORIENTED_EDGE('',*,*,#388,.T.);
#497=ORIENTED_EDGE('',*,*,#389,.T.);
#498=ORIENTED_EDGE('',*,*,#390,.F.);
#499=ORIENTED_EDGE('',*,*,#391,.F.);
#500=ORIENTED_EDGE('',*,*,#392,.T.);
#501=ORIENTED_EDGE('',*,*,#383,.F.);
#502=ORIENTED_EDGE('',*,*,#392,.F.);
#503=ORIENTED_EDGE('',*,*,#388,.F.);
#504=ORIENTED_EDGE('',*,*,#393,.F.);
#505=ORIENTED_EDGE('',*,*,#376,.F.);
#506=ORIENTED_EDGE('',*,*,#394,.F.);
#507=ORIENTED_EDGE('',*,*,#395,.F.);
#508=ORIENTED_EDGE('',*,*,#396,.T.);
#509=ORIENTED_EDGE('',*,*,#397,.F.);
#510=ORIENTED_EDGE('',*,*,#398,.F.);
#511=ORIENTED_EDGE('',*,*,#381,.F.);
#512=ORIENTED_EDGE('',*,*,#399,.T.);
#513=ORIENTED_EDGE('',*,*,#400,.T.);
#514=ORIENTED_EDGE('',*,*,#380,.F.);
#515=ORIENTED_EDGE('',*,*,#401,.F.);
#516=ORIENTED_EDGE('',*,*,#396,.F.);
#517=ORIENTED_EDGE('',*,*,#399,.F.);
#518=ORIENTED_EDGE('',*,*,#402,.F.);
#519=ORIENTED_EDGE('',*,*,#403,.F.);
#520=ORIENTED_EDGE('',*,*,#404,.T.);
#521=ORIENTED_EDGE('',*,*,#405,.F.);
#522=ORIENTED_EDGE('',*,*,#406,.F.);
#523=ORIENTED_EDGE('',*,*,#407,.F.);
#524=ORIENTED_EDGE('',*,*,#408,.T.);
#525=ORIENTED_EDGE('',*,*,#409,.T.);
#526=ORIENTED_EDGE('',*,*,#410,.F.);
#527=ORIENTED_EDGE('',*,*,#411,.F.);
#528=ORIENTED_EDGE('',*,*,#404,.F.);
#529=ORIENTED_EDGE('',*,*,#408,.F.);
#530=ORIENTED_EDGE('',*,*,#393,.T.);
#531=ORIENTED_EDGE('',*,*,#387,.T.);
#532=ORIENTED_EDGE('',*,*,#412,.F.);
#533=ORIENTED_EDGE('',*,*,#413,.F.);
#534=ORIENTED_EDGE('',*,*,#414,.F.);
#535=ORIENTED_EDGE('',*,*,#415,.T.);
#536=ORIENTED_EDGE('',*,*,#416,.F.);
#537=ORIENTED_EDGE('',*,*,#417,.F.);
#538=ORIENTED_EDGE('',*,*,#418,.F.);
#539=ORIENTED_EDGE('',*,*,#419,.T.);
#540=ORIENTED_EDGE('',*,*,#420,.F.);
#541=ORIENTED_EDGE('',*,*,#405,.T.);
#542=ORIENTED_EDGE('',*,*,#411,.T.);
#543=ORIENTED_EDGE('',*,*,#421,.F.);
#544=ORIENTED_EDGE('',*,*,#422,.F.);
#545=ORIENTED_EDGE('',*,*,#377,.T.);
#546=ORIENTED_EDGE('',*,*,#410,.T.);
#547=ORIENTED_EDGE('',*,*,#407,.T.);
#548=ORIENTED_EDGE('',*,*,#423,.F.);
#549=ORIENTED_EDGE('',*,*,#424,.F.);
#550=ORIENTED_EDGE('',*,*,#425,.T.);
#551=ORIENTED_EDGE('',*,*,#421,.T.);
#552=ORIENTED_EDGE('',*,*,#402,.T.);
#553=ORIENTED_EDGE('',*,*,#420,.T.);
#554=ORIENTED_EDGE('',*,*,#426,.T.);
#555=ORIENTED_EDGE('',*,*,#427,.T.);
#556=ORIENTED_EDGE('',*,*,#394,.T.);
#557=ORIENTED_EDGE('',*,*,#428,.T.);
#558=ORIENTED_EDGE('',*,*,#429,.T.);
#559=ORIENTED_EDGE('',*,*,#423,.T.);
#560=ORIENTED_EDGE('',*,*,#406,.T.);
#561=ORIENTED_EDGE('',*,*,#430,.T.);
#562=ORIENTED_EDGE('',*,*,#431,.T.);
#563=ORIENTED_EDGE('',*,*,#432,.T.);
#564=ORIENTED_EDGE('',*,*,#386,.T.);
#565=ORIENTED_EDGE('',*,*,#433,.T.);
#566=ORIENTED_EDGE('',*,*,#434,.T.);
#567=ORIENTED_EDGE('',*,*,#412,.T.);
#568=ORIENTED_EDGE('',*,*,#435,.T.);
#569=ORIENTED_EDGE('',*,*,#436,.T.);
#570=ORIENTED_EDGE('',*,*,#416,.T.);
#571=ORIENTED_EDGE('',*,*,#437,.T.);
#572=ORIENTED_EDGE('',*,*,#390,.T.);
#573=ORIENTED_EDGE('',*,*,#382,.T.);
#574=ORIENTED_EDGE('',*,*,#398,.T.);
#575=ORIENTED_EDGE('',*,*,#438,.T.);
#576=ORIENTED_EDGE('',*,*,#365,.F.);
#577=ORIENTED_EDGE('',*,*,#439,.F.);
#578=ORIENTED_EDGE('',*,*,#372,.F.);
#579=ORIENTED_EDGE('',*,*,#384,.F.);
#580=ORIENTED_EDGE('',*,*,#440,.F.);
#581=ORIENTED_EDGE('',*,*,#367,.T.);
#582=ORIENTED_EDGE('',*,*,#385,.F.);
#583=ORIENTED_EDGE('',*,*,#374,.T.);
#584=ORIENTED_EDGE('',*,*,#441,.F.);
#585=ORIENTED_EDGE('',*,*,#442,.T.);
#586=ORIENTED_EDGE('',*,*,#431,.F.);
#587=ORIENTED_EDGE('',*,*,#443,.F.);
#588=ORIENTED_EDGE('',*,*,#444,.F.);
#589=ORIENTED_EDGE('',*,*,#445,.T.);
#590=ORIENTED_EDGE('',*,*,#395,.T.);
#591=ORIENTED_EDGE('',*,*,#432,.F.);
#592=ORIENTED_EDGE('',*,*,#442,.F.);
#593=ORIENTED_EDGE('',*,*,#445,.F.);
#594=ORIENTED_EDGE('',*,*,#446,.F.);
#595=ORIENTED_EDGE('',*,*,#447,.T.);
#596=ORIENTED_EDGE('',*,*,#391,.T.);
#597=ORIENTED_EDGE('',*,*,#438,.F.);
#598=ORIENTED_EDGE('',*,*,#400,.F.);
#599=ORIENTED_EDGE('',*,*,#440,.T.);
#600=ORIENTED_EDGE('',*,*,#373,.T.);
#601=ORIENTED_EDGE('',*,*,#369,.F.);
#602=ORIENTED_EDGE('',*,*,#439,.T.);
#603=ORIENTED_EDGE('',*,*,#364,.F.);
#604=ORIENTED_EDGE('',*,*,#368,.T.);
#605=ORIENTED_EDGE('',*,*,#448,.F.);
#606=ORIENTED_EDGE('',*,*,#443,.T.);
#607=ORIENTED_EDGE('',*,*,#430,.F.);
#608=ORIENTED_EDGE('',*,*,#409,.F.);
#609=ORIENTED_EDGE('',*,*,#449,.F.);
#610=ORIENTED_EDGE('',*,*,#450,.F.);
#611=ORIENTED_EDGE('',*,*,#449,.T.);
#612=ORIENTED_EDGE('',*,*,#403,.T.);
#613=ORIENTED_EDGE('',*,*,#427,.F.);
#614=ORIENTED_EDGE('',*,*,#451,.F.);
#615=ORIENTED_EDGE('',*,*,#422,.T.);
#616=ORIENTED_EDGE('',*,*,#425,.F.);
#617=ORIENTED_EDGE('',*,*,#452,.T.);
#618=ORIENTED_EDGE('',*,*,#453,.T.);
#619=ORIENTED_EDGE('',*,*,#378,.T.);
#620=ORIENTED_EDGE('',*,*,#454,.F.);
#621=ORIENTED_EDGE('',*,*,#455,.T.);
#622=ORIENTED_EDGE('',*,*,#435,.F.);
#623=ORIENTED_EDGE('',*,*,#456,.F.);
#624=ORIENTED_EDGE('',*,*,#450,.T.);
#625=ORIENTED_EDGE('',*,*,#457,.F.);
#626=ORIENTED_EDGE('',*,*,#418,.T.);
#627=ORIENTED_EDGE('',*,*,#458,.F.);
#628=ORIENTED_EDGE('',*,*,#454,.T.);
#629=ORIENTED_EDGE('',*,*,#459,.F.);
#630=ORIENTED_EDGE('',*,*,#414,.T.);
#631=ORIENTED_EDGE('',*,*,#460,.F.);
#632=ORIENTED_EDGE('',*,*,#461,.T.);
#633=ORIENTED_EDGE('',*,*,#446,.T.);
#634=ORIENTED_EDGE('',*,*,#444,.T.);
#635=ORIENTED_EDGE('',*,*,#441,.T.);
#636=ORIENTED_EDGE('',*,*,#448,.T.);
#637=ORIENTED_EDGE('',*,*,#461,.F.);
#638=ORIENTED_EDGE('',*,*,#462,.T.);
#639=ORIENTED_EDGE('',*,*,#433,.F.);
#640=ORIENTED_EDGE('',*,*,#389,.F.);
#641=ORIENTED_EDGE('',*,*,#447,.F.);
#642=ORIENTED_EDGE('',*,*,#460,.T.);
#643=ORIENTED_EDGE('',*,*,#413,.T.);
#644=ORIENTED_EDGE('',*,*,#434,.F.);
#645=ORIENTED_EDGE('',*,*,#462,.F.);
#646=ORIENTED_EDGE('',*,*,#457,.T.);
#647=ORIENTED_EDGE('',*,*,#451,.T.);
#648=ORIENTED_EDGE('',*,*,#426,.F.);
#649=ORIENTED_EDGE('',*,*,#419,.F.);
#650=ORIENTED_EDGE('',*,*,#452,.F.);
#651=ORIENTED_EDGE('',*,*,#424,.T.);
#652=ORIENTED_EDGE('',*,*,#429,.F.);
#653=ORIENTED_EDGE('',*,*,#463,.F.);
#654=ORIENTED_EDGE('',*,*,#401,.T.);
#655=ORIENTED_EDGE('',*,*,#379,.F.);
#656=ORIENTED_EDGE('',*,*,#453,.F.);
#657=ORIENTED_EDGE('',*,*,#463,.T.);
#658=ORIENTED_EDGE('',*,*,#428,.F.);
#659=ORIENTED_EDGE('',*,*,#397,.T.);
#660=ORIENTED_EDGE('',*,*,#459,.T.);
#661=ORIENTED_EDGE('',*,*,#456,.T.);
#662=ORIENTED_EDGE('',*,*,#437,.F.);
#663=ORIENTED_EDGE('',*,*,#415,.F.);
#664=ORIENTED_EDGE('',*,*,#458,.T.);
#665=ORIENTED_EDGE('',*,*,#417,.T.);
#666=ORIENTED_EDGE('',*,*,#436,.F.);
#667=ORIENTED_EDGE('',*,*,#455,.F.);
#668=PLANE('',#758);
#669=PLANE('',#759);
#670=PLANE('',#760);
#671=PLANE('',#761);
#672=PLANE('',#762);
#673=PLANE('',#763);
#674=PLANE('',#764);
#675=PLANE('',#765);
#676=PLANE('',#766);
#677=PLANE('',#767);
#678=PLANE('',#768);
#679=PLANE('',#769);
#680=PLANE('',#770);
#681=PLANE('',#771);
#682=PLANE('',#772);
#683=PLANE('',#773);
#684=PLANE('',#774);
#685=PLANE('',#775);
#686=PLANE('',#776);
#687=PLANE('',#777);
#688=PLANE('',#778);
#689=PLANE('',#779);
#690=PLANE('',#780);
#691=PLANE('',#781);
#692=PLANE('',#782);
#693=PLANE('',#783);
#694=PLANE('',#784);
#695=PLANE('',#785);
#696=PLANE('',#786);
#697=PLANE('',#787);
#698=PLANE('',#788);
#699=PLANE('',#789);
#700=PLANE('',#790);
#701=PLANE('',#791);
#702=PLANE('',#792);
#703=PLANE('',#793);
#704=PLANE('',#794);
#705=PLANE('',#795);
#706=ADVANCED_FACE('',(#17),#668,.T.);
#707=ADVANCED_FACE('',(#18),#669,.F.);
#708=ADVANCED_FACE('',(#19),#670,.T.);
#709=ADVANCED_FACE('',(#20),#671,.F.);
#710=ADVANCED_FACE('',(#21,#15),#672,.T.);
#711=ADVANCED_FACE('',(#22),#673,.F.);
#712=ADVANCED_FACE('',(#23),#674,.F.);
#713=ADVANCED_FACE('',(#24),#675,.F.);
#714=ADVANCED_FACE('',(#25),#676,.F.);
#715=ADVANCED_FACE('',(#26),#677,.F.);
#716=ADVANCED_FACE('',(#27),#678,.F.);
#717=ADVANCED_FACE('',(#28),#679,.F.);
#718=ADVANCED_FACE('',(#29),#680,.F.);
#719=ADVANCED_FACE('',(#30),#681,.F.);
#720=ADVANCED_FACE('',(#31),#682,.T.);
#721=ADVANCED_FACE('',(#32),#683,.T.);
#722=ADVANCED_FACE('',(#33),#684,.T.);
#723=ADVANCED_FACE('',(#34),#685,.T.);
#724=ADVANCED_FACE('',(#35),#686,.T.);
#725=ADVANCED_FACE('',(#36),#687,.T.);
#726=ADVANCED_FACE('',(#37),#688,.T.);
#727=ADVANCED_FACE('',(#38),#689,.F.);
#728=ADVANCED_FACE('',(#39),#690,.T.);
#729=ADVANCED_FACE('',(#40),#691,.T.);
#730=ADVANCED_FACE('',(#41),#692,.T.);
#731=ADVANCED_FACE('',(#42,#16),#693,.T.);
#732=ADVANCED_FACE('',(#43),#694,.T.);
#733=ADVANCED_FACE('',(#44),#695,.T.);
#734=ADVANCED_FACE('',(#45),#696,.F.);
#735=ADVANCED_FACE('',(#46),#697,.T.);
#736=ADVANCED_FACE('',(#47),#698,.T.);
#737=ADVANCED_FACE('',(#48),#699,.T.);
#738=ADVANCED_FACE('',(#49),#700,.T.);
#739=ADVANCED_FACE('',(#50),#701,.T.);
#740=ADVANCED_FACE('',(#51),#702,.T.);
#741=ADVANCED_FACE('',(#52),#703,.T.);
#742=ADVANCED_FACE('',(#53),#704,.T.);
#743=ADVANCED_FACE('',(#54),#705,.T.);
#744=CLOSED_SHELL('',(#706,#707,#708,#709,#710,#711,#712,#713,#714,#715,
#716,#717,#718,#719,#720,#721,#722,#723,#724,#725,#726,#727,#728,#729,#730,
#731,#732,#733,#734,#735,#736,#737,#738,#739,#740,#741,#742,#743));
#745=DERIVED_UNIT_ELEMENT(#747,1.);
#746=DERIVED_UNIT_ELEMENT(#1185,-3.);
#747=(
MASS_UNIT()
NAMED_UNIT(*)
SI_UNIT(.KILO.,.GRAM.)
);
#748=DERIVED_UNIT((#745,#746));
#749=MEASURE_REPRESENTATION_ITEM('density measure',
POSITIVE_RATIO_MEASURE(7850.),#748);
#750=PROPERTY_DEFINITION_REPRESENTATION(#755,#752);
#751=PROPERTY_DEFINITION_REPRESENTATION(#756,#753);
#752=REPRESENTATION('material name',(#754),#1182);
#753=REPRESENTATION('density',(#749),#1182);
#754=DESCRIPTIVE_REPRESENTATION_ITEM('Steel','Steel');
#755=PROPERTY_DEFINITION('material property','material name',#1192);
#756=PROPERTY_DEFINITION('material property','density of part',#1192);
#757=AXIS2_PLACEMENT_3D('',#976,#796,#797);
#758=AXIS2_PLACEMENT_3D('',#977,#798,#799);
#759=AXIS2_PLACEMENT_3D('',#986,#804,#805);
#760=AXIS2_PLACEMENT_3D('',#992,#809,#810);
#761=AXIS2_PLACEMENT_3D('',#1001,#815,#816);
#762=AXIS2_PLACEMENT_3D('',#1007,#820,#821);
#763=AXIS2_PLACEMENT_3D('',#1026,#832,#833);
#764=AXIS2_PLACEMENT_3D('',#1035,#838,#839);
#765=AXIS2_PLACEMENT_3D('',#1039,#843,#844);
#766=AXIS2_PLACEMENT_3D('',#1041,#846,#847);
#767=AXIS2_PLACEMENT_3D('',#1050,#852,#853);
#768=AXIS2_PLACEMENT_3D('',#1054,#857,#858);
#769=AXIS2_PLACEMENT_3D('',#1056,#860,#861);
#770=AXIS2_PLACEMENT_3D('',#1065,#866,#867);
#771=AXIS2_PLACEMENT_3D('',#1072,#872,#873);
#772=AXIS2_PLACEMENT_3D('',#1076,#876,#877);
#773=AXIS2_PLACEMENT_3D('',#1097,#889,#890);
#774=AXIS2_PLACEMENT_3D('',#1103,#894,#895);
#775=AXIS2_PLACEMENT_3D('',#1107,#898,#899);
#776=AXIS2_PLACEMENT_3D('',#1116,#905,#906);
#777=AXIS2_PLACEMENT_3D('',#1120,#909,#910);
#778=AXIS2_PLACEMENT_3D('',#1126,#914,#915);
#779=AXIS2_PLACEMENT_3D('',#1128,#917,#918);
#780=AXIS2_PLACEMENT_3D('',#1130,#920,#921);
#781=AXIS2_PLACEMENT_3D('',#1132,#923,#924);
#782=AXIS2_PLACEMENT_3D('',#1138,#928,#929);
#783=AXIS2_PLACEMENT_3D('',#1142,#932,#933);
#784=AXIS2_PLACEMENT_3D('',#1146,#936,#937);
#785=AXIS2_PLACEMENT_3D('',#1150,#940,#941);
#786=AXIS2_PLACEMENT_3D('',#1154,#944,#945);
#787=AXIS2_PLACEMENT_3D('',#1158,#948,#949);
#788=AXIS2_PLACEMENT_3D('',#1164,#953,#954);
#789=AXIS2_PLACEMENT_3D('',#1171,#960,#961);
#790=AXIS2_PLACEMENT_3D('',#1173,#963,#964);
#791=AXIS2_PLACEMENT_3D('',#1174,#965,#966);
#792=AXIS2_PLACEMENT_3D('',#1175,#967,#968);
#793=AXIS2_PLACEMENT_3D('',#1177,#970,#971);
#794=AXIS2_PLACEMENT_3D('',#1178,#972,#973);
#795=AXIS2_PLACEMENT_3D('',#1179,#974,#975);
#796=DIRECTION('axis',(0.,0.,1.));
#797=DIRECTION('refdir',(1.,0.,0.));
#798=DIRECTION('center_axis',(0.,-0.707106781186548,0.707106781186547));
#799=DIRECTION('ref_axis',(1.,0.,0.));
#800=DIRECTION('',(0.,-0.707106781186547,-0.707106781186548));
#801=DIRECTION('',(1.,0.,0.));
#802=DIRECTION('',(0.,0.707106781186547,0.707106781186548));
#803=DIRECTION('',(-1.,0.,0.));
#804=DIRECTION('center_axis',(0.,0.,-1.));
#805=DIRECTION('ref_axis',(-1.,0.,0.));
#806=DIRECTION('',(0.,1.,0.));
#807=DIRECTION('',(-1.,0.,0.));
#808=DIRECTION('',(0.,-1.,0.));
#809=DIRECTION('center_axis',(0.,-0.707106781186548,-0.707106781186547));
#810=DIRECTION('ref_axis',(-1.,0.,0.));
#811=DIRECTION('',(0.,-0.707106781186547,0.707106781186548));
#812=DIRECTION('',(-1.,0.,0.));
#813=DIRECTION('',(0.,0.707106781186547,-0.707106781186548));
#814=DIRECTION('',(1.,0.,0.));
#815=DIRECTION('center_axis',(0.,0.,1.));
#816=DIRECTION('ref_axis',(1.,0.,0.));
#817=DIRECTION('',(0.,1.,0.));
#818=DIRECTION('',(1.,0.,0.));
#819=DIRECTION('',(0.,-1.,0.));
#820=DIRECTION('center_axis',(-1.,0.,0.));
#821=DIRECTION('ref_axis',(0.,0.,1.));
#822=DIRECTION('',(0.,0.,-1.));
#823=DIRECTION('',(0.,1.,0.));
#824=DIRECTION('',(0.,0.,-1.));
#825=DIRECTION('',(0.,1.,0.));
#826=DIRECTION('',(0.,0.,-1.));
#827=DIRECTION('',(0.,1.,0.));
#828=DIRECTION('',(0.,0.,1.));
#829=DIRECTION('',(0.,-1.,0.));
#830=DIRECTION('',(0.,0.,1.));
#831=DIRECTION('',(0.,0.,-1.));
#832=DIRECTION('center_axis',(1.,0.,0.));
#833=DIRECTION('ref_axis',(0.,0.,1.));
#834=DIRECTION('',(0.,0.,1.));
#835=DIRECTION('',(0.,1.,0.));
#836=DIRECTION('',(0.,0.,1.));
#837=DIRECTION('',(0.,1.,0.));
#838=DIRECTION('center_axis',(0.,0.,1.));
#839=DIRECTION('ref_axis',(-1.,0.,0.));
#840=DIRECTION('',(-1.,0.,0.));
#841=DIRECTION('',(0.,1.,0.));
#842=DIRECTION('',(-1.,0.,0.));
#843=DIRECTION('center_axis',(0.,-1.,0.));
#844=DIRECTION('ref_axis',(0.,0.,-1.));
#845=DIRECTION('',(1.,0.,0.));
#846=DIRECTION('center_axis',(1.,0.,0.));
#847=DIRECTION('ref_axis',(0.,0.,1.));
#848=DIRECTION('',(0.,0.,1.));
#849=DIRECTION('',(0.,1.,0.));
#850=DIRECTION('',(0.,0.,1.));
#851=DIRECTION('',(0.,-1.,0.));
#852=DIRECTION('center_axis',(0.,0.,-1.));
#853=DIRECTION('ref_axis',(1.,0.,0.));
#854=DIRECTION('',(1.,0.,0.));
#855=DIRECTION('',(1.,0.,0.));
#856=DIRECTION('',(0.,1.,0.));
#857=DIRECTION('center_axis',(0.,-1.,0.));
#858=DIRECTION('ref_axis',(0.,0.,-1.));
#859=DIRECTION('',(-1.,0.,0.));
#860=DIRECTION('center_axis',(-1.,0.,0.));
#861=DIRECTION('ref_axis',(0.,0.,-1.));
#862=DIRECTION('',(0.,0.,-1.));
#863=DIRECTION('',(0.,1.,0.));
#864=DIRECTION('',(0.,0.,-1.));
#865=DIRECTION('',(0.,-1.,0.));
#866=DIRECTION('center_axis',(0.,0.,1.));
#867=DIRECTION('ref_axis',(-1.,0.,0.));
#868=DIRECTION('',(-1.,0.,0.));
#869=DIRECTION('',(0.,1.,0.));
#870=DIRECTION('',(-1.,0.,0.));
#871=DIRECTION('',(0.,1.,0.));
#872=DIRECTION('center_axis',(0.,-1.,0.));
#873=DIRECTION('ref_axis',(0.,0.,-1.));
#874=DIRECTION('',(0.,0.,1.));
#875=DIRECTION('',(1.,0.,0.));
#876=DIRECTION('center_axis',(0.,0.,-1.));
#877=DIRECTION('ref_axis',(-1.,0.,0.));
#878=DIRECTION('',(-1.,0.,0.));
#879=DIRECTION('',(0.,1.,0.));
#880=DIRECTION('',(-1.,0.,0.));
#881=DIRECTION('',(0.,1.,0.));
#882=DIRECTION('',(-1.,0.,0.));
#883=DIRECTION('',(0.,1.,0.));
#884=DIRECTION('',(-1.,0.,0.));
#885=DIRECTION('',(0.,1.,0.));
#886=DIRECTION('',(-1.,0.,0.));
#887=DIRECTION('',(0.,1.,0.));
#888=DIRECTION('',(1.,0.,0.));
#889=DIRECTION('center_axis',(1.,0.,0.));
#890=DIRECTION('ref_axis',(0.,0.,-1.));
#891=DIRECTION('',(0.,0.,-1.));
#892=DIRECTION('',(0.,1.,0.));
#893=DIRECTION('',(0.,0.,-1.));
#894=DIRECTION('center_axis',(0.,1.,0.));
#895=DIRECTION('ref_axis',(0.,0.,1.));
#896=DIRECTION('',(0.,0.,1.));
#897=DIRECTION('',(1.,0.,0.));
#898=DIRECTION('center_axis',(0.,1.,0.));
#899=DIRECTION('ref_axis',(0.,0.,1.));
#900=DIRECTION('',(1.,0.,0.));
#901=DIRECTION('',(0.707106781186538,0.,-0.707106781186556));
#902=DIRECTION('',(0.,0.,1.));
#903=DIRECTION('',(-0.698152768411716,0.,0.715948819371229));
#904=DIRECTION('',(-1.,0.,0.));
#905=DIRECTION('center_axis',(0.,1.,0.));
#906=DIRECTION('ref_axis',(0.,0.,1.));
#907=DIRECTION('',(1.,0.,0.));
#908=DIRECTION('',(0.,0.,-1.));
#909=DIRECTION('center_axis',(0.,1.,0.));
#910=DIRECTION('ref_axis',(0.,0.,1.));
#911=DIRECTION('',(1.,0.,-4.82854231071446E-34));
#912=DIRECTION('',(0.,0.,-1.));
#913=DIRECTION('',(0.,0.,1.));
#914=DIRECTION('center_axis',(0.,1.,0.));
#915=DIRECTION('ref_axis',(0.,0.,1.));
#916=DIRECTION('',(0.,0.,-1.));
#917=DIRECTION('center_axis',(0.,1.,0.));
#918=DIRECTION('ref_axis',(1.,0.,0.));
#919=DIRECTION('',(0.,0.,-1.));
#920=DIRECTION('center_axis',(0.,1.,0.));
#921=DIRECTION('ref_axis',(0.,0.,1.));
#922=DIRECTION('',(0.,0.,1.));
#923=DIRECTION('center_axis',(-0.715948819371229,0.,-0.698152768411716));
#924=DIRECTION('ref_axis',(-0.698152768411716,0.,0.715948819371229));
#925=DIRECTION('',(0.698152768411716,0.,-0.715948819371229));
#926=DIRECTION('',(0.,1.,0.));
#927=DIRECTION('',(0.,1.,0.));
#928=DIRECTION('center_axis',(0.,0.,-1.));
#929=DIRECTION('ref_axis',(-1.,0.,0.));
#930=DIRECTION('',(1.,0.,0.));
#931=DIRECTION('',(0.,1.,0.));
#932=DIRECTION('center_axis',(1.,0.,0.));
#933=DIRECTION('ref_axis',(0.,0.,-1.));
#934=DIRECTION('',(0.,0.,1.));
#935=DIRECTION('',(0.,1.,0.));
#936=DIRECTION('center_axis',(-1.,0.,0.));
#937=DIRECTION('ref_axis',(0.,0.,1.));
#938=DIRECTION('',(0.,0.,-1.));
#939=DIRECTION('',(0.,1.,0.));
#940=DIRECTION('center_axis',(0.,0.,1.));
#941=DIRECTION('ref_axis',(1.,0.,0.));
#942=DIRECTION('',(-1.,0.,0.));
#943=DIRECTION('',(0.,1.,0.));
#944=DIRECTION('center_axis',(0.,1.,0.));
#945=DIRECTION('ref_axis',(1.,0.,0.));
#946=DIRECTION('',(-0.707106781186538,0.,0.707106781186556));
#947=DIRECTION('',(-1.,0.,0.));
#948=DIRECTION('center_axis',(4.82854231071446E-34,0.,1.));
#949=DIRECTION('ref_axis',(1.,0.,-4.82854231071446E-34));
#950=DIRECTION('',(-1.,0.,4.82854231071446E-34));
#951=DIRECTION('',(0.,1.,0.));
#952=DIRECTION('',(0.,1.,0.));
#953=DIRECTION('center_axis',(0.,1.,0.));
#954=DIRECTION('ref_axis',(0.,0.,1.));
#955=DIRECTION('',(0.,0.,1.));
#956=DIRECTION('',(0.,0.,-1.));
#957=DIRECTION('',(0.,0.,1.));
#958=DIRECTION('',(0.,0.,-1.));
#959=DIRECTION('',(-1.,0.,0.));
#960=DIRECTION('center_axis',(0.,0.,1.));
#961=DIRECTION('ref_axis',(1.,0.,0.));
#962=DIRECTION('',(0.,1.,0.));
#963=DIRECTION('center_axis',(1.,0.,0.));
#964=DIRECTION('ref_axis',(0.,0.,-1.));
#965=DIRECTION('center_axis',(-1.,0.,0.));
#966=DIRECTION('ref_axis',(0.,0.,1.));
#967=DIRECTION('center_axis',(0.707106781186557,0.,0.707106781186539));
#968=DIRECTION('ref_axis',(0.707106781186539,0.,-0.707106781186557));
#969=DIRECTION('',(0.,1.,0.));
#970=DIRECTION('center_axis',(0.,0.,1.));
#971=DIRECTION('ref_axis',(1.,0.,0.));
#972=DIRECTION('center_axis',(-1.,0.,0.));
#973=DIRECTION('ref_axis',(0.,0.,1.));
#974=DIRECTION('center_axis',(1.,0.,0.));
#975=DIRECTION('ref_axis',(0.,0.,-1.));
#976=CARTESIAN_POINT('',(0.,0.,0.));
#977=CARTESIAN_POINT('Origin',(-1.50000002235174,7.,28.3));
#978=CARTESIAN_POINT('',(-2.,8.,29.3));
#979=CARTESIAN_POINT('',(-2.,6.,27.3));
#980=CARTESIAN_POINT('',(-2.,8.,29.3));
#981=CARTESIAN_POINT('',(0.,6.,27.3));
#982=CARTESIAN_POINT('',(-1.50000002235174,6.,27.3));
#983=CARTESIAN_POINT('',(0.,8.,29.3));
#984=CARTESIAN_POINT('',(1.38777878078145E-16,10.55,31.85));
#985=CARTESIAN_POINT('',(-1.50000002235174,8.,29.3));
#986=CARTESIAN_POINT('Origin',(-2.00000002980232,0.,27.3));
#987=CARTESIAN_POINT('',(-2.00000002980232,3.5,27.3));
#988=CARTESIAN_POINT('',(-2.,0.,27.3));
#989=CARTESIAN_POINT('',(0.,3.5,27.3));
#990=CARTESIAN_POINT('',(-1.50000002235174,3.5,27.3));
#991=CARTESIAN_POINT('',(0.,0.,27.3));
#992=CARTESIAN_POINT('Origin',(-0.500000007450581,7.,40.3));
#993=CARTESIAN_POINT('',(0.,8.,39.3));
#994=CARTESIAN_POINT('',(0.,6.,41.3));
#995=CARTESIAN_POINT('',(0.,2.95,44.35));
#996=CARTESIAN_POINT('',(-2.,6.,41.3));
#997=CARTESIAN_POINT('',(-0.500000007450581,6.,41.3));
#998=CARTESIAN_POINT('',(-2.,8.,39.3));
#999=CARTESIAN_POINT('',(-2.,5.5,41.8));
#1000=CARTESIAN_POINT('',(-0.500000007450581,8.,39.3));
#1001=CARTESIAN_POINT('Origin',(0.,0.,41.3));
#1002=CARTESIAN_POINT('',(0.,3.5,41.3));
#1003=CARTESIAN_POINT('',(0.,0.,41.3));
#1004=CARTESIAN_POINT('',(-2.00000002980232,3.5,41.3));
#1005=CARTESIAN_POINT('',(-0.500000007450581,3.5,41.3));
#1006=CARTESIAN_POINT('',(-2.,0.,41.3));
#1007=CARTESIAN_POINT('Origin',(-2.,0.,39.3));
#1008=CARTESIAN_POINT('',(-2.,17.,0.));
#1009=CARTESIAN_POINT('',(-2.,17.,-2.));
#1010=CARTESIAN_POINT('',(-2.,17.,19.15));
#1011=CARTESIAN_POINT('',(-2.,0.,-2.));
#1012=CARTESIAN_POINT('',(-2.,0.,-2.));
#1013=CARTESIAN_POINT('',(-2.,0.,51.5));
#1014=CARTESIAN_POINT('',(-2.,0.,51.5));
#1015=CARTESIAN_POINT('',(-2.,17.,51.5));
#1016=CARTESIAN_POINT('',(-2.,0.,51.5));
#1017=CARTESIAN_POINT('',(-2.,17.,49.5));
#1018=CARTESIAN_POINT('',(-2.,17.,44.9));
#1019=CARTESIAN_POINT('',(-2.,19.,49.5));
#1020=CARTESIAN_POINT('',(-2.,9.5,49.5));
#1021=CARTESIAN_POINT('',(-2.,19.,0.));
#1022=CARTESIAN_POINT('',(-2.,19.,51.5));
#1023=CARTESIAN_POINT('',(-2.,9.5,0.));
#1024=CARTESIAN_POINT('',(-2.,8.,39.3));
#1025=CARTESIAN_POINT('',(-2.,3.5,34.3));
#1026=CARTESIAN_POINT('Origin',(0.,19.,-2.));
#1027=CARTESIAN_POINT('',(0.,19.,-2.));
#1028=CARTESIAN_POINT('',(0.,19.,0.));
#1029=CARTESIAN_POINT('',(0.,19.,11.375));
#1030=CARTESIAN_POINT('',(0.,17.,-2.));
#1031=CARTESIAN_POINT('',(0.,9.5,-2.));
#1032=CARTESIAN_POINT('',(0.,17.,0.));
#1033=CARTESIAN_POINT('',(0.,17.,-2.));
#1034=CARTESIAN_POINT('',(0.,0.,0.));
#1035=CARTESIAN_POINT('Origin',(0.,19.,0.));
#1036=CARTESIAN_POINT('',(20.1249999925494,19.,0.));
#1037=CARTESIAN_POINT('',(0.,0.,0.));
#1038=CARTESIAN_POINT('',(0.,17.,0.));
#1039=CARTESIAN_POINT('Origin',(-1.,17.,-1.));
#1040=CARTESIAN_POINT('',(8.95,17.,-2.));
#1041=CARTESIAN_POINT('Origin',(0.,19.,49.5));
#1042=CARTESIAN_POINT('',(0.,19.,49.5));
#1043=CARTESIAN_POINT('',(0.,19.,51.5));
#1044=CARTESIAN_POINT('',(0.,19.,37.125));
#1045=CARTESIAN_POINT('',(0.,17.,49.5));
#1046=CARTESIAN_POINT('',(0.,0.,49.5));
#1047=CARTESIAN_POINT('',(0.,17.,51.5));
#1048=CARTESIAN_POINT('',(0.,17.,51.5));
#1049=CARTESIAN_POINT('',(0.,9.5,51.5));
#1050=CARTESIAN_POINT('Origin',(-2.,19.,49.5));
#1051=CARTESIAN_POINT('',(19.1249999925494,19.,49.5));
#1052=CARTESIAN_POINT('',(0.,17.,49.5));
#1053=CARTESIAN_POINT('',(0.,0.,49.5));
#1054=CARTESIAN_POINT('Origin',(-1.,17.,50.5));
#1055=CARTESIAN_POINT('',(-1.5,17.,51.5));
#1056=CARTESIAN_POINT('Origin',(80.5,19.,0.));
#1057=CARTESIAN_POINT('',(80.5,19.,0.));
#1058=CARTESIAN_POINT('',(80.5,19.,-2.));
#1059=CARTESIAN_POINT('',(80.5,19.,12.375));
#1060=CARTESIAN_POINT('',(80.5,17.,0.));
#1061=CARTESIAN_POINT('',(80.5,0.,0.));
#1062=CARTESIAN_POINT('',(80.5,17.,-2.));
#1063=CARTESIAN_POINT('',(80.5,17.,-2.));
#1064=CARTESIAN_POINT('',(80.5,9.5,-2.));
#1065=CARTESIAN_POINT('Origin',(82.5,19.,0.));
#1066=CARTESIAN_POINT('',(82.5,19.,0.));
#1067=CARTESIAN_POINT('',(61.3749999925494,19.,0.));
#1068=CARTESIAN_POINT('',(82.5,17.,0.));
#1069=CARTESIAN_POINT('',(82.5,9.5,0.));
#1070=CARTESIAN_POINT('',(80.5,17.,0.));
#1071=CARTESIAN_POINT('',(80.5,0.,0.));
#1072=CARTESIAN_POINT('Origin',(81.5,17.,-1.));
#1073=CARTESIAN_POINT('',(82.5,17.,-2.));
#1074=CARTESIAN_POINT('',(82.5,17.,11.5892135623731));
#1075=CARTESIAN_POINT('',(50.2,17.,-2.));
#1076=CARTESIAN_POINT('Origin',(18.9,0.,-2.));
#1077=CARTESIAN_POINT('',(18.9,19.,-2.));
#1078=CARTESIAN_POINT('',(-2.,19.,-2.));
#1079=CARTESIAN_POINT('',(18.9,2.,-2.));
#1080=CARTESIAN_POINT('',(18.9,0.,-2.));
#1081=CARTESIAN_POINT('',(33.95,2.,-2.));
#1082=CARTESIAN_POINT('',(18.9,2.,-2.));
#1083=CARTESIAN_POINT('',(33.95,19.,-2.));
#1084=CARTESIAN_POINT('',(33.95,0.,-2.));
#1085=CARTESIAN_POINT('',(38.95,19.,-2.));
#1086=CARTESIAN_POINT('',(33.95,19.,-2.));
#1087=CARTESIAN_POINT('',(38.95,2.,-2.));
#1088=CARTESIAN_POINT('',(38.95,0.,-2.));
#1089=CARTESIAN_POINT('',(54.,2.,-2.));
#1090=CARTESIAN_POINT('',(18.9,2.,-2.));
#1091=CARTESIAN_POINT('',(54.,19.,-2.));
#1092=CARTESIAN_POINT('',(54.,0.,-2.));
#1093=CARTESIAN_POINT('',(-2.,19.,-2.));
#1094=CARTESIAN_POINT('',(82.5,0.,-2.));
#1095=CARTESIAN_POINT('',(82.5,0.,-2.));
#1096=CARTESIAN_POINT('',(-2.,0.,-2.));
#1097=CARTESIAN_POINT('Origin',(82.5,0.,24.1784271247462));
#1098=CARTESIAN_POINT('',(82.5,19.,24.1784271247462));
#1099=CARTESIAN_POINT('',(82.5,19.,24.1784271247462));
#1100=CARTESIAN_POINT('',(82.5,0.,24.1784271247462));
#1101=CARTESIAN_POINT('',(82.5,0.,24.1784271247462));
#1102=CARTESIAN_POINT('',(82.5,0.,24.1784271247462));
#1103=CARTESIAN_POINT('Origin',(40.2499999850988,19.,24.75));
#1104=CARTESIAN_POINT('',(54.,19.,0.));
#1105=CARTESIAN_POINT('',(54.,19.,-2.));
#1106=CARTESIAN_POINT('',(0.,19.,0.));
#1107=CARTESIAN_POINT('Origin',(40.2499999850988,19.,24.75));
#1108=CARTESIAN_POINT('',(55.1784271247469,19.,51.5));
#1109=CARTESIAN_POINT('',(55.1784271247469,19.,51.5));
#1110=CARTESIAN_POINT('',(81.9142135623731,19.,24.7642135623731));
#1111=CARTESIAN_POINT('',(80.5,19.,23.35));
#1112=CARTESIAN_POINT('',(80.5,19.,0.));
#1113=CARTESIAN_POINT('',(55.,19.,49.5));
#1114=CARTESIAN_POINT('',(80.5,19.,23.35));
#1115=CARTESIAN_POINT('',(0.,19.,49.5));
#1116=CARTESIAN_POINT('Origin',(40.2499999850988,19.,24.75));
#1117=CARTESIAN_POINT('',(18.9,19.,0.));
#1118=CARTESIAN_POINT('',(0.,19.,0.));
#1119=CARTESIAN_POINT('',(18.9,19.,-8.47409175530384E-32));
#1120=CARTESIAN_POINT('Origin',(36.45,19.,-1.));
#1121=CARTESIAN_POINT('',(33.95,19.,-3.39205097327689E-32));
#1122=CARTESIAN_POINT('',(38.95,19.,-3.63347808881261E-32));
#1123=CARTESIAN_POINT('',(38.95,19.,-3.63347808881261E-32));
#1124=CARTESIAN_POINT('',(38.95,19.,-2.));
#1125=CARTESIAN_POINT('',(33.95,19.,-3.39205097327689E-32));
#1126=CARTESIAN_POINT('Origin',(40.2499999850988,19.,24.75));
#1127=CARTESIAN_POINT('',(0.,19.,49.5));
#1128=CARTESIAN_POINT('Origin',(-1.00000001490116,8.,34.3));
#1129=CARTESIAN_POINT('',(0.,8.,39.4));
#1130=CARTESIAN_POINT('Origin',(-1.00000001490116,3.5,34.3));
#1131=CARTESIAN_POINT('',(0.,3.5,39.4));
#1132=CARTESIAN_POINT('Origin',(80.5,0.,23.35));
#1133=CARTESIAN_POINT('',(55.,2.,49.5));
#1134=CARTESIAN_POINT('',(80.5,2.,23.35));
#1135=CARTESIAN_POINT('',(75.8502063231196,2.,28.1183178294283));
#1136=CARTESIAN_POINT('',(55.,0.,49.5));
#1137=CARTESIAN_POINT('',(80.5,0.,23.35));
#1138=CARTESIAN_POINT('Origin',(55.,0.,49.5));
#1139=CARTESIAN_POINT('',(0.,2.,49.5));
#1140=CARTESIAN_POINT('',(45.725,2.,49.5));
#1141=CARTESIAN_POINT('',(0.,0.,49.5));
#1142=CARTESIAN_POINT('Origin',(0.,0.,49.5));
#1143=CARTESIAN_POINT('',(0.,2.,0.));
#1144=CARTESIAN_POINT('',(0.,2.,14.15));
#1145=CARTESIAN_POINT('',(0.,0.,0.));
#1146=CARTESIAN_POINT('Origin',(80.5,0.,0.));
#1147=CARTESIAN_POINT('',(80.5,2.,0.));
#1148=CARTESIAN_POINT('',(80.5,2.,-0.5));
#1149=CARTESIAN_POINT('',(80.5,0.,0.));
#1150=CARTESIAN_POINT('Origin',(54.,0.,0.));
#1151=CARTESIAN_POINT('',(54.,2.,0.));
#1152=CARTESIAN_POINT('',(45.225,2.,0.));
#1153=CARTESIAN_POINT('',(54.,0.,0.));
#1154=CARTESIAN_POINT('Origin',(36.45,0.,-1.));
#1155=CARTESIAN_POINT('',(55.1784271247469,0.,51.5));
#1156=CARTESIAN_POINT('',(81.9142135623731,0.,24.7642135623731));
#1157=CARTESIAN_POINT('',(55.1784271247469,0.,51.5));
#1158=CARTESIAN_POINT('Origin',(33.95,0.,-3.39205097327689E-32));
#1159=CARTESIAN_POINT('',(38.95,2.,-3.63347808881261E-32));
#1160=CARTESIAN_POINT('',(33.95,2.,-3.39205097327689E-32));
#1161=CARTESIAN_POINT('',(35.2,2.,0.));
#1162=CARTESIAN_POINT('',(38.95,0.,-3.63347808881261E-32));
#1163=CARTESIAN_POINT('',(33.95,0.,-3.39205097327689E-32));
#1164=CARTESIAN_POINT('Origin',(36.45,2.,-1.));
#1165=CARTESIAN_POINT('',(54.,2.,-1.5));
#1166=CARTESIAN_POINT('',(38.95,2.,-0.5));
#1167=CARTESIAN_POINT('',(33.95,2.,-1.5));
#1168=CARTESIAN_POINT('',(18.9,2.,-8.47409175530384E-32));
#1169=CARTESIAN_POINT('',(18.9,2.,-0.5));
#1170=CARTESIAN_POINT('',(18.225,2.,0.));
#1171=CARTESIAN_POINT('Origin',(0.,0.,0.));
#1172=CARTESIAN_POINT('',(18.9,0.,-8.47409175530384E-32));
#1173=CARTESIAN_POINT('Origin',(18.9,0.,-8.47409175530384E-32));
#1174=CARTESIAN_POINT('Origin',(54.,0.,-2.));
#1175=CARTESIAN_POINT('Origin',(55.1784271247469,0.,51.5));
#1176=CARTESIAN_POINT('',(55.1784271247469,0.,51.5));
#1177=CARTESIAN_POINT('Origin',(-2.,0.,51.5));
#1178=CARTESIAN_POINT('Origin',(33.95,0.,-2.));
#1179=CARTESIAN_POINT('Origin',(38.95,0.,0.));
#1180=UNCERTAINTY_MEASURE_WITH_UNIT(LENGTH_MEASURE(0.01),#1184,
'DISTANCE_ACCURACY_VALUE',
'Maximum model space distance between geometric entities at asserted c
onnectivities');
#1181=UNCERTAINTY_MEASURE_WITH_UNIT(LENGTH_MEASURE(0.01),#1184,
'DISTANCE_ACCURACY_VALUE',
'Maximum model space distance between geometric entities at asserted c
onnectivities');
#1182=(
GEOMETRIC_REPRESENTATION_CONTEXT(3)
GLOBAL_UNCERTAINTY_ASSIGNED_CONTEXT((#1180))
GLOBAL_UNIT_ASSIGNED_CONTEXT((#1184,#1186,#1187))
REPRESENTATION_CONTEXT('','3D')
);
#1183=(
GEOMETRIC_REPRESENTATION_CONTEXT(3)
GLOBAL_UNCERTAINTY_ASSIGNED_CONTEXT((#1181))
GLOBAL_UNIT_ASSIGNED_CONTEXT((#1184,#1186,#1187))
REPRESENTATION_CONTEXT('','3D')
);
#1184=(
LENGTH_UNIT()
NAMED_UNIT(*)
SI_UNIT(.MILLI.,.METRE.)
);
#1185=(
LENGTH_UNIT()
NAMED_UNIT(*)
SI_UNIT($,.METRE.)
);
#1186=(
NAMED_UNIT(*)
PLANE_ANGLE_UNIT()
SI_UNIT($,.RADIAN.)
);
#1187=(
NAMED_UNIT(*)
SI_UNIT($,.STERADIAN.)
SOLID_ANGLE_UNIT()
);
#1188=SHAPE_DEFINITION_REPRESENTATION(#1189,#1190);
#1189=PRODUCT_DEFINITION_SHAPE('',$,#1192);
#1190=SHAPE_REPRESENTATION('',(#757),#1182);
#1191=PRODUCT_DEFINITION_CONTEXT('part definition',#1196,'design');
#1192=PRODUCT_DEFINITION('Base','Base',#1193,#1191);
#1193=PRODUCT_DEFINITION_FORMATION('',$,#1198);
#1194=PRODUCT_RELATED_PRODUCT_CATEGORY('Base','Base',(#1198));
#1195=APPLICATION_PROTOCOL_DEFINITION('international standard',
'automotive_design',2009,#1196);
#1196=APPLICATION_CONTEXT(
'Core Data for Automotive Mechanical Design Process');
#1197=PRODUCT_CONTEXT('part definition',#1196,'mechanical');
#1198=PRODUCT('Base','Base',$,(#1197));
#1199=PRESENTATION_STYLE_ASSIGNMENT((#1200));
#1200=SURFACE_STYLE_USAGE(.BOTH.,#1201);
#1201=SURFACE_SIDE_STYLE('',(#1202));
#1202=SURFACE_STYLE_FILL_AREA(#1203);
#1203=FILL_AREA_STYLE('Steel - Satin',(#1204));
#1204=FILL_AREA_STYLE_COLOUR('Steel - Satin',#1205);
#1205=COLOUR_RGB('Steel - Satin',0.627450980392157,0.627450980392157,0.627450980392157);
ENDSEC;
END-ISO-10303-21;
