ISO-10303-21;
HEADER;
/* Generated by software containing ST-Developer
 * from STEP Tools, Inc. (www.steptools.com) 
 */

FILE_DESCRIPTION(
/* description */ (''),
/* implementation_level */ '2;1');

FILE_NAME(
/* name */ '7855a646-f433-41e5-9738-a9c43a42d00d.stp',
/* time_stamp */ '2026-09-21T23:06:57Z',
/* author */ (''),
/* organization */ (''),
/* preprocessor_version */ 'ST-DEVELOPER v20.2',
/* originating_system */ 'Autodesk Translation Framework v15.17.0.0',
/* authorisation */ '');

FILE_SCHEMA (('AUTOMOTIVE_DESIGN { 1 0 10303 214 3 1 1 }'));
ENDSEC;

DATA;
#10=MECHANICAL_DESIGN_GEOMETRIC_PRESENTATION_REPRESENTATION('',(#13),#974);
#11=SHAPE_REPRESENTATION_RELATIONSHIP('SRR','None',#981,#12);
#12=ADVANCED_BREP_SHAPE_REPRESENTATION('',(#14),#973);
#13=STYLED_ITEM('',(#990),#14);
#14=MANIFOLD_SOLID_BREP('Body1',#608);
#15=FACE_BOUND('',#62,.T.);
#16=FACE_BOUND('',#63,.T.);
#17=FACE_OUTER_BOUND('',#50,.T.);
#18=FACE_OUTER_BOUND('',#51,.T.);
#19=FACE_OUTER_BOUND('',#52,.T.);
#20=FACE_OUTER_BOUND('',#53,.T.);
#21=FACE_OUTER_BOUND('',#54,.T.);
#22=FACE_OUTER_BOUND('',#55,.T.);
#23=FACE_OUTER_BOUND('',#56,.T.);
#24=FACE_OUTER_BOUND('',#57,.T.);
#25=FACE_OUTER_BOUND('',#58,.T.);
#26=FACE_OUTER_BOUND('',#59,.T.);
#27=FACE_OUTER_BOUND('',#60,.T.);
#28=FACE_OUTER_BOUND('',#61,.T.);
#29=FACE_OUTER_BOUND('',#64,.T.);
#30=FACE_OUTER_BOUND('',#65,.T.);
#31=FACE_OUTER_BOUND('',#66,.T.);
#32=FACE_OUTER_BOUND('',#67,.T.);
#33=FACE_OUTER_BOUND('',#68,.T.);
#34=FACE_OUTER_BOUND('',#69,.T.);
#35=FACE_OUTER_BOUND('',#70,.T.);
#36=FACE_OUTER_BOUND('',#71,.T.);
#37=FACE_OUTER_BOUND('',#72,.T.);
#38=FACE_OUTER_BOUND('',#73,.T.);
#39=FACE_OUTER_BOUND('',#74,.T.);
#40=FACE_OUTER_BOUND('',#75,.T.);
#41=FACE_OUTER_BOUND('',#76,.T.);
#42=FACE_OUTER_BOUND('',#77,.T.);
#43=FACE_OUTER_BOUND('',#78,.T.);
#44=FACE_OUTER_BOUND('',#79,.T.);
#45=FACE_OUTER_BOUND('',#80,.T.);
#46=FACE_OUTER_BOUND('',#81,.T.);
#47=FACE_OUTER_BOUND('',#82,.T.);
#48=FACE_OUTER_BOUND('',#83,.T.);
#49=FACE_OUTER_BOUND('',#84,.T.);
#50=EDGE_LOOP('',(#380,#381,#382,#383));
#51=EDGE_LOOP('',(#384,#385,#386,#387));
#52=EDGE_LOOP('',(#388,#389,#390));
#53=EDGE_LOOP('',(#391,#392,#393,#394));
#54=EDGE_LOOP('',(#395,#396,#397,#398));
#55=EDGE_LOOP('',(#399,#400,#401));
#56=EDGE_LOOP('',(#402,#403,#404,#405));
#57=EDGE_LOOP('',(#406,#407,#408,#409));
#58=EDGE_LOOP('',(#410,#411,#412));
#59=EDGE_LOOP('',(#413,#414,#415,#416,#417,#418,#419,#420));
#60=EDGE_LOOP('',(#421,#422,#423,#424));
#61=EDGE_LOOP('',(#425,#426,#427,#428,#429,#430,#431,#432,#433,#434,#435,
#436,#437,#438,#439));
#62=EDGE_LOOP('',(#440,#441,#442,#443));
#63=EDGE_LOOP('',(#444,#445,#446,#447));
#64=EDGE_LOOP('',(#448,#449,#450,#451));
#65=EDGE_LOOP('',(#452,#453,#454,#455));
#66=EDGE_LOOP('',(#456,#457,#458,#459));
#67=EDGE_LOOP('',(#460,#461,#462,#463));
#68=EDGE_LOOP('',(#464,#465,#466,#467));
#69=EDGE_LOOP('',(#468,#469,#470,#471));
#70=EDGE_LOOP('',(#472,#473,#474,#475));
#71=EDGE_LOOP('',(#476,#477,#478,#479));
#72=EDGE_LOOP('',(#480,#481,#482,#483));
#73=EDGE_LOOP('',(#484,#485,#486,#487));
#74=EDGE_LOOP('',(#488,#489,#490,#491));
#75=EDGE_LOOP('',(#492,#493,#494,#495));
#76=EDGE_LOOP('',(#496,#497,#498,#499));
#77=EDGE_LOOP('',(#500,#501,#502,#503));
#78=EDGE_LOOP('',(#504,#505,#506,#507,#508,#509));
#79=EDGE_LOOP('',(#510,#511,#512,#513,#514,#515));
#80=EDGE_LOOP('',(#516,#517,#518,#519));
#81=EDGE_LOOP('',(#520,#521,#522,#523));
#82=EDGE_LOOP('',(#524,#525,#526,#527));
#83=EDGE_LOOP('',(#528,#529,#530,#531,#532,#533));
#84=EDGE_LOOP('',(#534,#535,#536,#537,#538,#539,#540,#541));
#85=LINE('',#808,#166);
#86=LINE('',#810,#167);
#87=LINE('',#812,#168);
#88=LINE('',#813,#169);
#89=LINE('',#816,#170);
#90=LINE('',#818,#171);
#91=LINE('',#819,#172);
#92=LINE('',#821,#173);
#93=LINE('',#825,#174);
#94=LINE('',#827,#175);
#95=LINE('',#829,#176);
#96=LINE('',#830,#177);
#97=LINE('',#833,#178);
#98=LINE('',#835,#179);
#99=LINE('',#836,#180);
#100=LINE('',#838,#181);
#101=LINE('',#842,#182);
#102=LINE('',#844,#183);
#103=LINE('',#846,#184);
#104=LINE('',#847,#185);
#105=LINE('',#850,#186);
#106=LINE('',#852,#187);
#107=LINE('',#853,#188);
#108=LINE('',#855,#189);
#109=LINE('',#859,#190);
#110=LINE('',#861,#191);
#111=LINE('',#863,#192);
#112=LINE('',#865,#193);
#113=LINE('',#867,#194);
#114=LINE('',#869,#195);
#115=LINE('',#871,#196);
#116=LINE('',#872,#197);
#117=LINE('',#876,#198);
#118=LINE('',#878,#199);
#119=LINE('',#880,#200);
#120=LINE('',#881,#201);
#121=LINE('',#884,#202);
#122=LINE('',#886,#203);
#123=LINE('',#887,#204);
#124=LINE('',#889,#205);
#125=LINE('',#891,#206);
#126=LINE('',#893,#207);
#127=LINE('',#895,#208);
#128=LINE('',#896,#209);
#129=LINE('',#897,#210);
#130=LINE('',#899,#211);
#131=LINE('',#901,#212);
#132=LINE('',#902,#213);
#133=LINE('',#905,#214);
#134=LINE('',#907,#215);
#135=LINE('',#909,#216);
#136=LINE('',#910,#217);
#137=LINE('',#913,#218);
#138=LINE('',#915,#219);
#139=LINE('',#916,#220);
#140=LINE('',#919,#221);
#141=LINE('',#920,#222);
#142=LINE('',#923,#223);
#143=LINE('',#924,#224);
#144=LINE('',#926,#225);
#145=LINE('',#930,#226);
#146=LINE('',#931,#227);
#147=LINE('',#934,#228);
#148=LINE('',#935,#229);
#149=LINE('',#937,#230);
#150=LINE('',#941,#231);
#151=LINE('',#943,#232);
#152=LINE('',#944,#233);
#153=LINE('',#947,#234);
#154=LINE('',#948,#235);
#155=LINE('',#951,#236);
#156=LINE('',#952,#237);
#157=LINE('',#954,#238);
#158=LINE('',#956,#239);
#159=LINE('',#957,#240);
#160=LINE('',#959,#241);
#161=LINE('',#961,#242);
#162=LINE('',#963,#243);
#163=LINE('',#965,#244);
#164=LINE('',#967,#245);
#165=LINE('',#969,#246);
#166=VECTOR('',#659,10.);
#167=VECTOR('',#660,10.);
#168=VECTOR('',#661,10.);
#169=VECTOR('',#662,10.);
#170=VECTOR('',#665,10.);
#171=VECTOR('',#666,10.);
#172=VECTOR('',#667,10.);
#173=VECTOR('',#670,10.);
#174=VECTOR('',#673,10.);
#175=VECTOR('',#674,10.);
#176=VECTOR('',#675,10.);
#177=VECTOR('',#676,10.);
#178=VECTOR('',#679,10.);
#179=VECTOR('',#680,10.);
#180=VECTOR('',#681,10.);
#181=VECTOR('',#684,10.);
#182=VECTOR('',#687,10.);
#183=VECTOR('',#688,10.);
#184=VECTOR('',#689,10.);
#185=VECTOR('',#690,10.);
#186=VECTOR('',#693,10.);
#187=VECTOR('',#694,10.);
#188=VECTOR('',#695,10.);
#189=VECTOR('',#698,10.);
#190=VECTOR('',#701,10.);
#191=VECTOR('',#702,10.);
#192=VECTOR('',#703,10.);
#193=VECTOR('',#704,10.);
#194=VECTOR('',#705,10.);
#195=VECTOR('',#706,10.);
#196=VECTOR('',#707,10.);
#197=VECTOR('',#708,10.);
#198=VECTOR('',#711,10.);
#199=VECTOR('',#712,10.);
#200=VECTOR('',#713,10.);
#201=VECTOR('',#714,10.);
#202=VECTOR('',#717,10.);
#203=VECTOR('',#718,10.);
#204=VECTOR('',#719,10.);
#205=VECTOR('',#720,10.);
#206=VECTOR('',#721,10.);
#207=VECTOR('',#722,10.);
#208=VECTOR('',#723,10.);
#209=VECTOR('',#724,10.);
#210=VECTOR('',#725,10.);
#211=VECTOR('',#726,10.);
#212=VECTOR('',#727,10.);
#213=VECTOR('',#728,10.);
#214=VECTOR('',#729,10.);
#215=VECTOR('',#730,10.);
#216=VECTOR('',#731,10.);
#217=VECTOR('',#732,10.);
#218=VECTOR('',#735,10.);
#219=VECTOR('',#736,10.);
#220=VECTOR('',#737,10.);
#221=VECTOR('',#740,10.);
#222=VECTOR('',#741,10.);
#223=VECTOR('',#744,10.);
#224=VECTOR('',#745,10.);
#225=VECTOR('',#748,10.);
#226=VECTOR('',#753,10.);
#227=VECTOR('',#754,10.);
#228=VECTOR('',#757,10.);
#229=VECTOR('',#758,10.);
#230=VECTOR('',#761,10.);
#231=VECTOR('',#766,10.);
#232=VECTOR('',#767,10.);
#233=VECTOR('',#768,10.);
#234=VECTOR('',#771,10.);
#235=VECTOR('',#772,10.);
#236=VECTOR('',#775,10.);
#237=VECTOR('',#776,10.);
#238=VECTOR('',#779,10.);
#239=VECTOR('',#782,10.);
#240=VECTOR('',#783,10.);
#241=VECTOR('',#786,10.);
#242=VECTOR('',#789,10.);
#243=VECTOR('',#792,10.);
#244=VECTOR('',#795,10.);
#245=VECTOR('',#798,10.);
#246=VECTOR('',#801,10.);
#247=VERTEX_POINT('',#806);
#248=VERTEX_POINT('',#807);
#249=VERTEX_POINT('',#809);
#250=VERTEX_POINT('',#811);
#251=VERTEX_POINT('',#815);
#252=VERTEX_POINT('',#817);
#253=VERTEX_POINT('',#823);
#254=VERTEX_POINT('',#824);
#255=VERTEX_POINT('',#826);
#256=VERTEX_POINT('',#828);
#257=VERTEX_POINT('',#832);
#258=VERTEX_POINT('',#834);
#259=VERTEX_POINT('',#840);
#260=VERTEX_POINT('',#841);
#261=VERTEX_POINT('',#843);
#262=VERTEX_POINT('',#845);
#263=VERTEX_POINT('',#849);
#264=VERTEX_POINT('',#851);
#265=VERTEX_POINT('',#857);
#266=VERTEX_POINT('',#858);
#267=VERTEX_POINT('',#860);
#268=VERTEX_POINT('',#862);
#269=VERTEX_POINT('',#864);
#270=VERTEX_POINT('',#866);
#271=VERTEX_POINT('',#868);
#272=VERTEX_POINT('',#870);
#273=VERTEX_POINT('',#874);
#274=VERTEX_POINT('',#875);
#275=VERTEX_POINT('',#877);
#276=VERTEX_POINT('',#879);
#277=VERTEX_POINT('',#883);
#278=VERTEX_POINT('',#885);
#279=VERTEX_POINT('',#888);
#280=VERTEX_POINT('',#890);
#281=VERTEX_POINT('',#892);
#282=VERTEX_POINT('',#894);
#283=VERTEX_POINT('',#898);
#284=VERTEX_POINT('',#900);
#285=VERTEX_POINT('',#903);
#286=VERTEX_POINT('',#904);
#287=VERTEX_POINT('',#906);
#288=VERTEX_POINT('',#908);
#289=VERTEX_POINT('',#912);
#290=VERTEX_POINT('',#914);
#291=VERTEX_POINT('',#918);
#292=VERTEX_POINT('',#922);
#293=VERTEX_POINT('',#929);
#294=VERTEX_POINT('',#933);
#295=VERTEX_POINT('',#940);
#296=VERTEX_POINT('',#942);
#297=VERTEX_POINT('',#946);
#298=VERTEX_POINT('',#950);
#299=EDGE_CURVE('',#247,#248,#85,.T.);
#300=EDGE_CURVE('',#247,#249,#86,.T.);
#301=EDGE_CURVE('',#250,#249,#87,.T.);
#302=EDGE_CURVE('',#248,#250,#88,.T.);
#303=EDGE_CURVE('',#247,#251,#89,.T.);
#304=EDGE_CURVE('',#251,#252,#90,.T.);
#305=EDGE_CURVE('',#249,#252,#91,.T.);
#306=EDGE_CURVE('',#248,#251,#92,.T.);
#307=EDGE_CURVE('',#253,#254,#93,.T.);
#308=EDGE_CURVE('',#253,#255,#94,.T.);
#309=EDGE_CURVE('',#256,#255,#95,.T.);
#310=EDGE_CURVE('',#254,#256,#96,.T.);
#311=EDGE_CURVE('',#253,#257,#97,.T.);
#312=EDGE_CURVE('',#257,#258,#98,.T.);
#313=EDGE_CURVE('',#255,#258,#99,.T.);
#314=EDGE_CURVE('',#257,#254,#100,.T.);
#315=EDGE_CURVE('',#259,#260,#101,.T.);
#316=EDGE_CURVE('',#259,#261,#102,.T.);
#317=EDGE_CURVE('',#262,#261,#103,.T.);
#318=EDGE_CURVE('',#260,#262,#104,.T.);
#319=EDGE_CURVE('',#259,#263,#105,.T.);
#320=EDGE_CURVE('',#263,#264,#106,.T.);
#321=EDGE_CURVE('',#261,#264,#107,.T.);
#322=EDGE_CURVE('',#260,#263,#108,.T.);
#323=EDGE_CURVE('',#265,#266,#109,.T.);
#324=EDGE_CURVE('',#266,#267,#110,.T.);
#325=EDGE_CURVE('',#267,#268,#111,.T.);
#326=EDGE_CURVE('',#268,#269,#112,.T.);
#327=EDGE_CURVE('',#269,#270,#113,.T.);
#328=EDGE_CURVE('',#270,#271,#114,.T.);
#329=EDGE_CURVE('',#271,#272,#115,.T.);
#330=EDGE_CURVE('',#272,#265,#116,.T.);
#331=EDGE_CURVE('',#273,#274,#117,.T.);
#332=EDGE_CURVE('',#274,#275,#118,.T.);
#333=EDGE_CURVE('',#276,#275,#119,.T.);
#334=EDGE_CURVE('',#273,#276,#120,.T.);
#335=EDGE_CURVE('',#277,#252,#121,.T.);
#336=EDGE_CURVE('',#278,#277,#122,.T.);
#337=EDGE_CURVE('',#256,#278,#123,.T.);
#338=EDGE_CURVE('',#279,#258,#124,.T.);
#339=EDGE_CURVE('',#280,#279,#125,.T.);
#340=EDGE_CURVE('',#280,#281,#126,.T.);
#341=EDGE_CURVE('',#281,#282,#127,.T.);
#342=EDGE_CURVE('',#262,#282,#128,.T.);
#343=EDGE_CURVE('',#250,#264,#129,.T.);
#344=EDGE_CURVE('',#273,#283,#130,.T.);
#345=EDGE_CURVE('',#283,#284,#131,.T.);
#346=EDGE_CURVE('',#284,#274,#132,.T.);
#347=EDGE_CURVE('',#285,#286,#133,.T.);
#348=EDGE_CURVE('',#286,#287,#134,.T.);
#349=EDGE_CURVE('',#287,#288,#135,.T.);
#350=EDGE_CURVE('',#288,#285,#136,.T.);
#351=EDGE_CURVE('',#285,#289,#137,.T.);
#352=EDGE_CURVE('',#290,#289,#138,.T.);
#353=EDGE_CURVE('',#286,#290,#139,.T.);
#354=EDGE_CURVE('',#291,#290,#140,.T.);
#355=EDGE_CURVE('',#287,#291,#141,.T.);
#356=EDGE_CURVE('',#292,#291,#142,.T.);
#357=EDGE_CURVE('',#288,#292,#143,.T.);
#358=EDGE_CURVE('',#289,#292,#144,.T.);
#359=EDGE_CURVE('',#284,#293,#145,.T.);
#360=EDGE_CURVE('',#275,#293,#146,.T.);
#361=EDGE_CURVE('',#294,#276,#147,.T.);
#362=EDGE_CURVE('',#283,#294,#148,.T.);
#363=EDGE_CURVE('',#293,#294,#149,.T.);
#364=EDGE_CURVE('',#279,#295,#150,.T.);
#365=EDGE_CURVE('',#296,#295,#151,.T.);
#366=EDGE_CURVE('',#280,#296,#152,.T.);
#367=EDGE_CURVE('',#297,#296,#153,.T.);
#368=EDGE_CURVE('',#281,#297,#154,.T.);
#369=EDGE_CURVE('',#298,#297,#155,.T.);
#370=EDGE_CURVE('',#282,#298,#156,.T.);
#371=EDGE_CURVE('',#295,#298,#157,.T.);
#372=EDGE_CURVE('',#264,#266,#158,.T.);
#373=EDGE_CURVE('',#250,#265,#159,.T.);
#374=EDGE_CURVE('',#262,#267,#160,.T.);
#375=EDGE_CURVE('',#252,#272,#161,.T.);
#376=EDGE_CURVE('',#277,#271,#162,.T.);
#377=EDGE_CURVE('',#278,#270,#163,.T.);
#378=EDGE_CURVE('',#256,#269,#164,.T.);
#379=EDGE_CURVE('',#258,#268,#165,.T.);
#380=ORIENTED_EDGE('',*,*,#299,.F.);
#381=ORIENTED_EDGE('',*,*,#300,.T.);
#382=ORIENTED_EDGE('',*,*,#301,.F.);
#383=ORIENTED_EDGE('',*,*,#302,.F.);
#384=ORIENTED_EDGE('',*,*,#303,.T.);
#385=ORIENTED_EDGE('',*,*,#304,.T.);
#386=ORIENTED_EDGE('',*,*,#305,.F.);
#387=ORIENTED_EDGE('',*,*,#300,.F.);
#388=ORIENTED_EDGE('',*,*,#303,.F.);
#389=ORIENTED_EDGE('',*,*,#299,.T.);
#390=ORIENTED_EDGE('',*,*,#306,.T.);
#391=ORIENTED_EDGE('',*,*,#307,.F.);
#392=ORIENTED_EDGE('',*,*,#308,.T.);
#393=ORIENTED_EDGE('',*,*,#309,.F.);
#394=ORIENTED_EDGE('',*,*,#310,.F.);
#395=ORIENTED_EDGE('',*,*,#311,.T.);
#396=ORIENTED_EDGE('',*,*,#312,.T.);
#397=ORIENTED_EDGE('',*,*,#313,.F.);
#398=ORIENTED_EDGE('',*,*,#308,.F.);
#399=ORIENTED_EDGE('',*,*,#311,.F.);
#400=ORIENTED_EDGE('',*,*,#307,.T.);
#401=ORIENTED_EDGE('',*,*,#314,.F.);
#402=ORIENTED_EDGE('',*,*,#315,.F.);
#403=ORIENTED_EDGE('',*,*,#316,.T.);
#404=ORIENTED_EDGE('',*,*,#317,.F.);
#405=ORIENTED_EDGE('',*,*,#318,.F.);
#406=ORIENTED_EDGE('',*,*,#319,.T.);
#407=ORIENTED_EDGE('',*,*,#320,.T.);
#408=ORIENTED_EDGE('',*,*,#321,.F.);
#409=ORIENTED_EDGE('',*,*,#316,.F.);
#410=ORIENTED_EDGE('',*,*,#319,.F.);
#411=ORIENTED_EDGE('',*,*,#315,.T.);
#412=ORIENTED_EDGE('',*,*,#322,.T.);
#413=ORIENTED_EDGE('',*,*,#323,.T.);
#414=ORIENTED_EDGE('',*,*,#324,.T.);
#415=ORIENTED_EDGE('',*,*,#325,.T.);
#416=ORIENTED_EDGE('',*,*,#326,.T.);
#417=ORIENTED_EDGE('',*,*,#327,.T.);
#418=ORIENTED_EDGE('',*,*,#328,.T.);
#419=ORIENTED_EDGE('',*,*,#329,.T.);
#420=ORIENTED_EDGE('',*,*,#330,.T.);
#421=ORIENTED_EDGE('',*,*,#331,.T.);
#422=ORIENTED_EDGE('',*,*,#332,.T.);
#423=ORIENTED_EDGE('',*,*,#333,.F.);
#424=ORIENTED_EDGE('',*,*,#334,.F.);
#425=ORIENTED_EDGE('',*,*,#305,.T.);
#426=ORIENTED_EDGE('',*,*,#335,.F.);
#427=ORIENTED_EDGE('',*,*,#336,.F.);
#428=ORIENTED_EDGE('',*,*,#337,.F.);
#429=ORIENTED_EDGE('',*,*,#309,.T.);
#430=ORIENTED_EDGE('',*,*,#313,.T.);
#431=ORIENTED_EDGE('',*,*,#338,.F.);
#432=ORIENTED_EDGE('',*,*,#339,.F.);
#433=ORIENTED_EDGE('',*,*,#340,.T.);
#434=ORIENTED_EDGE('',*,*,#341,.T.);
#435=ORIENTED_EDGE('',*,*,#342,.F.);
#436=ORIENTED_EDGE('',*,*,#317,.T.);
#437=ORIENTED_EDGE('',*,*,#321,.T.);
#438=ORIENTED_EDGE('',*,*,#343,.F.);
#439=ORIENTED_EDGE('',*,*,#301,.T.);
#440=ORIENTED_EDGE('',*,*,#344,.T.);
#441=ORIENTED_EDGE('',*,*,#345,.T.);
#442=ORIENTED_EDGE('',*,*,#346,.T.);
#443=ORIENTED_EDGE('',*,*,#331,.F.);
#444=ORIENTED_EDGE('',*,*,#347,.T.);
#445=ORIENTED_EDGE('',*,*,#348,.T.);
#446=ORIENTED_EDGE('',*,*,#349,.T.);
#447=ORIENTED_EDGE('',*,*,#350,.T.);
#448=ORIENTED_EDGE('',*,*,#347,.F.);
#449=ORIENTED_EDGE('',*,*,#351,.T.);
#450=ORIENTED_EDGE('',*,*,#352,.F.);
#451=ORIENTED_EDGE('',*,*,#353,.F.);
#452=ORIENTED_EDGE('',*,*,#348,.F.);
#453=ORIENTED_EDGE('',*,*,#353,.T.);
#454=ORIENTED_EDGE('',*,*,#354,.F.);
#455=ORIENTED_EDGE('',*,*,#355,.F.);
#456=ORIENTED_EDGE('',*,*,#349,.F.);
#457=ORIENTED_EDGE('',*,*,#355,.T.);
#458=ORIENTED_EDGE('',*,*,#356,.F.);
#459=ORIENTED_EDGE('',*,*,#357,.F.);
#460=ORIENTED_EDGE('',*,*,#350,.F.);
#461=ORIENTED_EDGE('',*,*,#357,.T.);
#462=ORIENTED_EDGE('',*,*,#358,.F.);
#463=ORIENTED_EDGE('',*,*,#351,.F.);
#464=ORIENTED_EDGE('',*,*,#358,.T.);
#465=ORIENTED_EDGE('',*,*,#356,.T.);
#466=ORIENTED_EDGE('',*,*,#354,.T.);
#467=ORIENTED_EDGE('',*,*,#352,.T.);
#468=ORIENTED_EDGE('',*,*,#346,.F.);
#469=ORIENTED_EDGE('',*,*,#359,.T.);
#470=ORIENTED_EDGE('',*,*,#360,.F.);
#471=ORIENTED_EDGE('',*,*,#332,.F.);
#472=ORIENTED_EDGE('',*,*,#344,.F.);
#473=ORIENTED_EDGE('',*,*,#334,.T.);
#474=ORIENTED_EDGE('',*,*,#361,.F.);
#475=ORIENTED_EDGE('',*,*,#362,.F.);
#476=ORIENTED_EDGE('',*,*,#345,.F.);
#477=ORIENTED_EDGE('',*,*,#362,.T.);
#478=ORIENTED_EDGE('',*,*,#363,.F.);
#479=ORIENTED_EDGE('',*,*,#359,.F.);
#480=ORIENTED_EDGE('',*,*,#363,.T.);
#481=ORIENTED_EDGE('',*,*,#361,.T.);
#482=ORIENTED_EDGE('',*,*,#333,.T.);
#483=ORIENTED_EDGE('',*,*,#360,.T.);
#484=ORIENTED_EDGE('',*,*,#339,.T.);
#485=ORIENTED_EDGE('',*,*,#364,.T.);
#486=ORIENTED_EDGE('',*,*,#365,.F.);
#487=ORIENTED_EDGE('',*,*,#366,.F.);
#488=ORIENTED_EDGE('',*,*,#340,.F.);
#489=ORIENTED_EDGE('',*,*,#366,.T.);
#490=ORIENTED_EDGE('',*,*,#367,.F.);
#491=ORIENTED_EDGE('',*,*,#368,.F.);
#492=ORIENTED_EDGE('',*,*,#341,.F.);
#493=ORIENTED_EDGE('',*,*,#368,.T.);
#494=ORIENTED_EDGE('',*,*,#369,.F.);
#495=ORIENTED_EDGE('',*,*,#370,.F.);
#496=ORIENTED_EDGE('',*,*,#371,.T.);
#497=ORIENTED_EDGE('',*,*,#369,.T.);
#498=ORIENTED_EDGE('',*,*,#367,.T.);
#499=ORIENTED_EDGE('',*,*,#365,.T.);
#500=ORIENTED_EDGE('',*,*,#343,.T.);
#501=ORIENTED_EDGE('',*,*,#372,.T.);
#502=ORIENTED_EDGE('',*,*,#323,.F.);
#503=ORIENTED_EDGE('',*,*,#373,.F.);
#504=ORIENTED_EDGE('',*,*,#374,.T.);
#505=ORIENTED_EDGE('',*,*,#324,.F.);
#506=ORIENTED_EDGE('',*,*,#372,.F.);
#507=ORIENTED_EDGE('',*,*,#320,.F.);
#508=ORIENTED_EDGE('',*,*,#322,.F.);
#509=ORIENTED_EDGE('',*,*,#318,.T.);
#510=ORIENTED_EDGE('',*,*,#373,.T.);
#511=ORIENTED_EDGE('',*,*,#330,.F.);
#512=ORIENTED_EDGE('',*,*,#375,.F.);
#513=ORIENTED_EDGE('',*,*,#304,.F.);
#514=ORIENTED_EDGE('',*,*,#306,.F.);
#515=ORIENTED_EDGE('',*,*,#302,.T.);
#516=ORIENTED_EDGE('',*,*,#335,.T.);
#517=ORIENTED_EDGE('',*,*,#375,.T.);
#518=ORIENTED_EDGE('',*,*,#329,.F.);
#519=ORIENTED_EDGE('',*,*,#376,.F.);
#520=ORIENTED_EDGE('',*,*,#336,.T.);
#521=ORIENTED_EDGE('',*,*,#376,.T.);
#522=ORIENTED_EDGE('',*,*,#328,.F.);
#523=ORIENTED_EDGE('',*,*,#377,.F.);
#524=ORIENTED_EDGE('',*,*,#337,.T.);
#525=ORIENTED_EDGE('',*,*,#377,.T.);
#526=ORIENTED_EDGE('',*,*,#327,.F.);
#527=ORIENTED_EDGE('',*,*,#378,.F.);
#528=ORIENTED_EDGE('',*,*,#378,.T.);
#529=ORIENTED_EDGE('',*,*,#326,.F.);
#530=ORIENTED_EDGE('',*,*,#379,.F.);
#531=ORIENTED_EDGE('',*,*,#312,.F.);
#532=ORIENTED_EDGE('',*,*,#314,.T.);
#533=ORIENTED_EDGE('',*,*,#310,.T.);
#534=ORIENTED_EDGE('',*,*,#342,.T.);
#535=ORIENTED_EDGE('',*,*,#370,.T.);
#536=ORIENTED_EDGE('',*,*,#371,.F.);
#537=ORIENTED_EDGE('',*,*,#364,.F.);
#538=ORIENTED_EDGE('',*,*,#338,.T.);
#539=ORIENTED_EDGE('',*,*,#379,.T.);
#540=ORIENTED_EDGE('',*,*,#325,.F.);
#541=ORIENTED_EDGE('',*,*,#374,.F.);
#542=PLANE('',#622);
#543=PLANE('',#623);
#544=PLANE('',#624);
#545=PLANE('',#625);
#546=PLANE('',#626);
#547=PLANE('',#627);
#548=PLANE('',#628);
#549=PLANE('',#629);
#550=PLANE('',#630);
#551=PLANE('',#631);
#552=PLANE('',#632);
#553=PLANE('',#633);
#554=PLANE('',#634);
#555=PLANE('',#635);
#556=PLANE('',#636);
#557=PLANE('',#637);
#558=PLANE('',#638);
#559=PLANE('',#639);
#560=PLANE('',#640);
#561=PLANE('',#641);
#562=PLANE('',#642);
#563=PLANE('',#643);
#564=PLANE('',#644);
#565=PLANE('',#645);
#566=PLANE('',#646);
#567=PLANE('',#647);
#568=PLANE('',#648);
#569=PLANE('',#649);
#570=PLANE('',#650);
#571=PLANE('',#651);
#572=PLANE('',#652);
#573=PLANE('',#653);
#574=PLANE('',#654);
#575=ADVANCED_FACE('',(#17),#542,.T.);
#576=ADVANCED_FACE('',(#18),#543,.T.);
#577=ADVANCED_FACE('',(#19),#544,.F.);
#578=ADVANCED_FACE('',(#20),#545,.T.);
#579=ADVANCED_FACE('',(#21),#546,.T.);
#580=ADVANCED_FACE('',(#22),#547,.F.);
#581=ADVANCED_FACE('',(#23),#548,.T.);
#582=ADVANCED_FACE('',(#24),#549,.T.);
#583=ADVANCED_FACE('',(#25),#550,.F.);
#584=ADVANCED_FACE('',(#26),#551,.T.);
#585=ADVANCED_FACE('',(#27),#552,.T.);
#586=ADVANCED_FACE('',(#28,#15,#16),#553,.F.);
#587=ADVANCED_FACE('',(#29),#554,.T.);
#588=ADVANCED_FACE('',(#30),#555,.T.);
#589=ADVANCED_FACE('',(#31),#556,.T.);
#590=ADVANCED_FACE('',(#32),#557,.T.);
#591=ADVANCED_FACE('',(#33),#558,.T.);
#592=ADVANCED_FACE('',(#34),#559,.T.);
#593=ADVANCED_FACE('',(#35),#560,.T.);
#594=ADVANCED_FACE('',(#36),#561,.T.);
#595=ADVANCED_FACE('',(#37),#562,.T.);
#596=ADVANCED_FACE('',(#38),#563,.T.);
#597=ADVANCED_FACE('',(#39),#564,.T.);
#598=ADVANCED_FACE('',(#40),#565,.T.);
#599=ADVANCED_FACE('',(#41),#566,.T.);
#600=ADVANCED_FACE('',(#42),#567,.T.);
#601=ADVANCED_FACE('',(#43),#568,.T.);
#602=ADVANCED_FACE('',(#44),#569,.T.);
#603=ADVANCED_FACE('',(#45),#570,.T.);
#604=ADVANCED_FACE('',(#46),#571,.T.);
#605=ADVANCED_FACE('',(#47),#572,.T.);
#606=ADVANCED_FACE('',(#48),#573,.T.);
#607=ADVANCED_FACE('',(#49),#574,.T.);
#608=CLOSED_SHELL('',(#575,#576,#577,#578,#579,#580,#581,#582,#583,#584,
#585,#586,#587,#588,#589,#590,#591,#592,#593,#594,#595,#596,#597,#598,#599,
#600,#601,#602,#603,#604,#605,#606,#607));
#609=DERIVED_UNIT_ELEMENT(#611,1.);
#610=DERIVED_UNIT_ELEMENT(#976,-3.);
#611=(
MASS_UNIT()
NAMED_UNIT(*)
SI_UNIT(.KILO.,.GRAM.)
);
#612=DERIVED_UNIT((#609,#610));
#613=MEASURE_REPRESENTATION_ITEM('density measure',
POSITIVE_RATIO_MEASURE(7850.),#612);
#614=PROPERTY_DEFINITION_REPRESENTATION(#619,#616);
#615=PROPERTY_DEFINITION_REPRESENTATION(#620,#617);
#616=REPRESENTATION('material name',(#618),#973);
#617=REPRESENTATION('density',(#613),#973);
#618=DESCRIPTIVE_REPRESENTATION_ITEM('Steel','Steel');
#619=PROPERTY_DEFINITION('material property','material name',#983);
#620=PROPERTY_DEFINITION('material property','density of part',#983);
#621=AXIS2_PLACEMENT_3D('',#804,#655,#656);
#622=AXIS2_PLACEMENT_3D('',#805,#657,#658);
#623=AXIS2_PLACEMENT_3D('',#814,#663,#664);
#624=AXIS2_PLACEMENT_3D('',#820,#668,#669);
#625=AXIS2_PLACEMENT_3D('',#822,#671,#672);
#626=AXIS2_PLACEMENT_3D('',#831,#677,#678);
#627=AXIS2_PLACEMENT_3D('',#837,#682,#683);
#628=AXIS2_PLACEMENT_3D('',#839,#685,#686);
#629=AXIS2_PLACEMENT_3D('',#848,#691,#692);
#630=AXIS2_PLACEMENT_3D('',#854,#696,#697);
#631=AXIS2_PLACEMENT_3D('',#856,#699,#700);
#632=AXIS2_PLACEMENT_3D('',#873,#709,#710);
#633=AXIS2_PLACEMENT_3D('',#882,#715,#716);
#634=AXIS2_PLACEMENT_3D('',#911,#733,#734);
#635=AXIS2_PLACEMENT_3D('',#917,#738,#739);
#636=AXIS2_PLACEMENT_3D('',#921,#742,#743);
#637=AXIS2_PLACEMENT_3D('',#925,#746,#747);
#638=AXIS2_PLACEMENT_3D('',#927,#749,#750);
#639=AXIS2_PLACEMENT_3D('',#928,#751,#752);
#640=AXIS2_PLACEMENT_3D('',#932,#755,#756);
#641=AXIS2_PLACEMENT_3D('',#936,#759,#760);
#642=AXIS2_PLACEMENT_3D('',#938,#762,#763);
#643=AXIS2_PLACEMENT_3D('',#939,#764,#765);
#644=AXIS2_PLACEMENT_3D('',#945,#769,#770);
#645=AXIS2_PLACEMENT_3D('',#949,#773,#774);
#646=AXIS2_PLACEMENT_3D('',#953,#777,#778);
#647=AXIS2_PLACEMENT_3D('',#955,#780,#781);
#648=AXIS2_PLACEMENT_3D('',#958,#784,#785);
#649=AXIS2_PLACEMENT_3D('',#960,#787,#788);
#650=AXIS2_PLACEMENT_3D('',#962,#790,#791);
#651=AXIS2_PLACEMENT_3D('',#964,#793,#794);
#652=AXIS2_PLACEMENT_3D('',#966,#796,#797);
#653=AXIS2_PLACEMENT_3D('',#968,#799,#800);
#654=AXIS2_PLACEMENT_3D('',#970,#802,#803);
#655=DIRECTION('axis',(0.,0.,1.));
#656=DIRECTION('refdir',(1.,0.,0.));
#657=DIRECTION('center_axis',(-1.,4.70984574344667E-46,-9.90890956386987E-32));
#658=DIRECTION('ref_axis',(-9.90890956386987E-32,-4.76008121808036E-15,
1.));
#659=DIRECTION('',(9.90890956386987E-32,4.76008121808036E-15,-1.));
#660=DIRECTION('',(0.,1.,4.75314232417645E-15));
#661=DIRECTION('',(-9.90890956386987E-32,-4.76037033865969E-15,1.));
#662=DIRECTION('',(0.,1.,4.75314232417645E-15));
#663=DIRECTION('center_axis',(-9.89446508928695E-32,-4.75314232417645E-15,
1.));
#664=DIRECTION('ref_axis',(1.,-2.08166817117164E-17,3.96039583682621E-46));
#665=DIRECTION('',(1.,-2.08166817117164E-17,3.96039583682621E-46));
#666=DIRECTION('',(0.,1.,4.75314232417645E-15));
#667=DIRECTION('',(1.,-4.71013181279454E-46,9.89446508928695E-32));
#668=DIRECTION('center_axis',(2.08166817117164E-17,1.,4.76008121808036E-15));
#669=DIRECTION('ref_axis',(-1.,2.08166817117164E-17,-3.96039583682621E-46));
#670=DIRECTION('',(0.707106781186546,-3.38060532510351E-15,0.707106781186549));
#671=DIRECTION('center_axis',(1.,-2.16840434497163E-17,1.4007892068513E-15));
#672=DIRECTION('ref_axis',(1.4007892068513E-15,4.76008121808036E-15,-1.));
#673=DIRECTION('',(-1.4007892068513E-15,-4.76008121808036E-15,1.));
#674=DIRECTION('',(2.16840434497101E-17,1.,4.44089209850062E-15));
#675=DIRECTION('',(1.4007892068513E-15,4.76037033865969E-15,-1.));
#676=DIRECTION('',(2.16840434497101E-17,1.,4.44089209850062E-15));
#677=DIRECTION('center_axis',(9.24446373305643E-32,4.44089209850062E-15,
-1.));
#678=DIRECTION('ref_axis',(-1.,2.08166817117164E-17,-3.96039583682621E-46));
#679=DIRECTION('',(-1.,2.08166817117164E-17,-3.96039583682621E-46));
#680=DIRECTION('',(2.16840434497101E-17,1.,4.44089209850062E-15));
#681=DIRECTION('',(-1.,4.4007070951657E-46,-9.24446373305643E-32));
#682=DIRECTION('center_axis',(2.08166817117164E-17,1.,4.76008121808036E-15));
#683=DIRECTION('ref_axis',(-1.,2.08166817117164E-17,-3.96039583682621E-46));
#684=DIRECTION('',(0.707106781186555,-3.38060532510347E-15,0.70710678118654));
#685=DIRECTION('center_axis',(-1.11022302462516E-15,-4.75314232417645E-15,
1.));
#686=DIRECTION('ref_axis',(1.,-2.08166817117217E-17,1.11022302462516E-15));
#687=DIRECTION('',(-1.,2.08166817117217E-17,-1.11022302462516E-15));
#688=DIRECTION('',(2.16840434497101E-17,1.,4.75314232417645E-15));
#689=DIRECTION('',(1.,-5.28507275572264E-30,1.11022302462516E-15));
#690=DIRECTION('',(2.16840434497101E-17,1.,4.75314232417645E-15));
#691=DIRECTION('center_axis',(1.,-2.16840434497158E-17,1.21430643318376E-15));
#692=DIRECTION('ref_axis',(1.21430643318377E-15,4.76008121808036E-15,-1.));
#693=DIRECTION('',(1.21430643318377E-15,4.76008121808036E-15,-1.));
#694=DIRECTION('',(2.16840434497101E-17,1.,4.75314232417645E-15));
#695=DIRECTION('',(1.21430643318377E-15,4.76037033865969E-15,-1.));
#696=DIRECTION('center_axis',(2.08166817117164E-17,1.,4.76008121808036E-15));
#697=DIRECTION('ref_axis',(-1.,2.08166817117164E-17,-3.96039583682621E-46));
#698=DIRECTION('',(0.707106781186548,3.35116609150318E-15,-0.707106781186547));
#699=DIRECTION('center_axis',(0.,1.,4.75314232417645E-15));
#700=DIRECTION('ref_axis',(0.,-4.75314232417645E-15,1.));
#701=DIRECTION('',(-1.,2.08166817117222E-17,-1.21559779061005E-15));
#702=DIRECTION('',(-0.707106781186548,-3.63156833004798E-33,0.707106781186547));
#703=DIRECTION('',(-1.04389031161209E-15,0.,1.));
#704=DIRECTION('',(0.707106781186555,-3.38060532510347E-15,0.70710678118654));
#705=DIRECTION('',(1.,-2.08166817117222E-17,1.21906841919625E-15));
#706=DIRECTION('',(0.672220520573169,3.51013738806781E-15,-0.740350978739366));
#707=DIRECTION('',(9.90890956386987E-32,4.76008121808036E-15,-1.));
#708=DIRECTION('',(-0.707106781186546,3.38060532510351E-15,-0.707106781186549));
#709=DIRECTION('center_axis',(-7.46258555650123E-15,-4.44089209850062E-15,
1.));
#710=DIRECTION('ref_axis',(1.,-1.62573152966944E-33,7.46258555650123E-15));
#711=DIRECTION('',(-1.,2.85781211699861E-29,-7.46258555650123E-15));
#712=DIRECTION('',(0.,-1.,0.));
#713=DIRECTION('',(-1.,1.6251591496314E-33,-7.45960321727318E-15));
#714=DIRECTION('',(0.,-1.,0.));
#715=DIRECTION('center_axis',(0.,1.,4.76037033865969E-15));
#716=DIRECTION('ref_axis',(0.,-4.76037033865969E-15,1.));
#717=DIRECTION('',(9.90890956386987E-32,4.76008121808036E-15,-1.));
#718=DIRECTION('',(0.672220520573169,3.51013738806781E-15,-0.740350978739366));
#719=DIRECTION('',(1.,-2.08166817117222E-17,1.21906841919625E-15));
#720=DIRECTION('',(-1.04389031161209E-15,0.,1.));
#721=DIRECTION('',(-1.,0.,0.));
#722=DIRECTION('',(-0.00286876951434286,-6.14312419726798E-47,-0.99999588507227));
#723=DIRECTION('',(-1.,0.,0.));
#724=DIRECTION('',(-1.04389031161209E-15,0.,1.));
#725=DIRECTION('',(-1.,2.08166817117222E-17,-1.21559779061005E-15));
#726=DIRECTION('',(7.59147790187169E-15,4.76037033865969E-15,-1.));
#727=DIRECTION('',(-1.,-2.03922770076601E-28,4.28375852232575E-14));
#728=DIRECTION('',(-6.32623158489355E-16,-4.76037033865969E-15,1.));
#729=DIRECTION('',(0.,-4.76037033865969E-15,1.));
#730=DIRECTION('',(1.,0.,0.));
#731=DIRECTION('',(0.,4.76037033865969E-15,-1.));
#732=DIRECTION('',(-1.,0.,0.));
#733=DIRECTION('center_axis',(-1.,0.,0.));
#734=DIRECTION('ref_axis',(0.,0.,-1.));
#735=DIRECTION('',(0.,-1.,0.));
#736=DIRECTION('',(0.,0.,-1.));
#737=DIRECTION('',(0.,-1.,0.));
#738=DIRECTION('center_axis',(0.,0.,1.));
#739=DIRECTION('ref_axis',(-1.,0.,0.));
#740=DIRECTION('',(-1.,0.,0.));
#741=DIRECTION('',(0.,-1.,0.));
#742=DIRECTION('center_axis',(1.,0.,0.));
#743=DIRECTION('ref_axis',(0.,0.,1.));
#744=DIRECTION('',(0.,0.,1.));
#745=DIRECTION('',(0.,-1.,0.));
#746=DIRECTION('center_axis',(0.,0.,-1.));
#747=DIRECTION('ref_axis',(1.,0.,0.));
#748=DIRECTION('',(1.,0.,0.));
#749=DIRECTION('center_axis',(0.,-1.,0.));
#750=DIRECTION('ref_axis',(0.,0.,-1.));
#751=DIRECTION('center_axis',(-1.,0.,-6.32623158489355E-16));
#752=DIRECTION('ref_axis',(6.32623158489355E-16,5.85293997056041E-33,-1.));
#753=DIRECTION('',(0.,-1.,0.));
#754=DIRECTION('',(6.32623158489355E-16,5.85293997056041E-33,-1.));
#755=DIRECTION('center_axis',(1.,0.,7.59147790187169E-15));
#756=DIRECTION('ref_axis',(-7.59147790187169E-15,0.,1.));
#757=DIRECTION('',(-7.59147790187169E-15,0.,1.));
#758=DIRECTION('',(0.,-1.,0.));
#759=DIRECTION('center_axis',(-4.28375852232575E-14,0.,-1.));
#760=DIRECTION('ref_axis',(1.,-3.42128301553741E-31,-4.28375852232575E-14));
#761=DIRECTION('',(1.,-3.42128301553741E-31,-4.28375852232575E-14));
#762=DIRECTION('center_axis',(0.,-1.,0.));
#763=DIRECTION('ref_axis',(0.,0.,-1.));
#764=DIRECTION('center_axis',(0.,0.,1.));
#765=DIRECTION('ref_axis',(-1.,0.,0.));
#766=DIRECTION('',(0.,-1.,0.));
#767=DIRECTION('',(-1.,0.,0.));
#768=DIRECTION('',(0.,-1.,0.));
#769=DIRECTION('center_axis',(0.99999588507227,0.,-0.00286876951434286));
#770=DIRECTION('ref_axis',(0.00286876951434286,6.14312419726798E-47,0.99999588507227));
#771=DIRECTION('',(0.00286876951434286,6.14312419726798E-47,0.99999588507227));
#772=DIRECTION('',(0.,-1.,0.));
#773=DIRECTION('center_axis',(0.,0.,-1.));
#774=DIRECTION('ref_axis',(1.,-5.35344872302911E-46,0.));
#775=DIRECTION('',(1.,-5.35344872302911E-46,0.));
#776=DIRECTION('',(0.,-1.,0.));
#777=DIRECTION('center_axis',(0.,-1.,0.));
#778=DIRECTION('ref_axis',(0.,0.,-1.));
#779=DIRECTION('',(1.0510457341384E-15,0.,-1.));
#780=DIRECTION('center_axis',(1.4057556309524E-15,4.44089209850062E-15,
-1.));
#781=DIRECTION('ref_axis',(-1.,1.62573152966833E-33,-1.4057556309524E-15));
#782=DIRECTION('',(0.,1.,4.44089209850062E-15));
#783=DIRECTION('',(0.,1.,4.75314232417645E-15));
#784=DIRECTION('center_axis',(-0.707106781186547,3.14018491736755E-15,-0.707106781186548));
#785=DIRECTION('ref_axis',(-0.707106781186548,-3.63156833004798E-33,0.707106781186547));
#786=DIRECTION('',(0.,1.,4.44089209850062E-15));
#787=DIRECTION('center_axis',(0.707106781186549,3.36097916936995E-15,-0.707106781186546));
#788=DIRECTION('ref_axis',(-0.707106781186546,3.38060532510351E-15,-0.707106781186549));
#789=DIRECTION('',(0.,1.,4.75314232417645E-15));
#790=DIRECTION('center_axis',(1.,-4.70984574344667E-46,9.90890956386987E-32));
#791=DIRECTION('ref_axis',(9.90890956386987E-32,4.76008121808036E-15,-1.));
#792=DIRECTION('',(0.,1.,4.75314232417645E-15));
#793=DIRECTION('center_axis',(0.740350978739366,-3.19515980751625E-15,0.672220520573169));
#794=DIRECTION('ref_axis',(0.672220520573169,3.51013738806781E-15,-0.740350978739366));
#795=DIRECTION('',(0.,1.,4.75314232417645E-15));
#796=DIRECTION('center_axis',(-1.21906841919625E-15,-4.75314232417645E-15,
1.));
#797=DIRECTION('ref_axis',(1.,-2.08166817117222E-17,1.21906841919625E-15));
#798=DIRECTION('',(0.,1.,4.75314232417645E-15));
#799=DIRECTION('center_axis',(-0.70710678118654,-3.36097916936999E-15,0.707106781186555));
#800=DIRECTION('ref_axis',(0.707106781186555,-3.38060532510347E-15,0.70710678118654));
#801=DIRECTION('',(0.,1.,4.75314232417645E-15));
#802=DIRECTION('center_axis',(-1.,5.28168110121859E-30,-1.11119775950191E-15));
#803=DIRECTION('ref_axis',(-1.11119775950191E-15,-4.76008121808036E-15,
1.));
#804=CARTESIAN_POINT('',(0.,0.,0.));
#805=CARTESIAN_POINT('Origin',(80.5499999999998,24.1999999999999,-1.73999999999987));
#806=CARTESIAN_POINT('',(80.5499999999998,24.1999999999999,0.260000000000129));
#807=CARTESIAN_POINT('',(80.5499999999998,24.1999999999999,-1.73999999999987));
#808=CARTESIAN_POINT('',(80.5499999999998,24.1999999999999,0.260000000000129));
#809=CARTESIAN_POINT('',(80.5499999999998,26.1999999999999,0.260000000000139));
#810=CARTESIAN_POINT('',(80.5499999999998,24.1999999999999,0.260000000000129));
#811=CARTESIAN_POINT('',(80.5499999999998,26.1999999999999,-1.73999999999986));
#812=CARTESIAN_POINT('',(80.5499999999998,26.1999999999999,13.4975000000001));
#813=CARTESIAN_POINT('',(80.5499999999998,24.1999999999999,-1.73999999999987));
#814=CARTESIAN_POINT('Origin',(80.5499999999998,24.1999999999999,0.260000000000129));
#815=CARTESIAN_POINT('',(82.5499999999998,24.1999999999999,0.260000000000129));
#816=CARTESIAN_POINT('',(80.5499999999998,24.1999999999999,0.260000000000129));
#817=CARTESIAN_POINT('',(82.5499999999998,26.1999999999999,0.260000000000139));
#818=CARTESIAN_POINT('',(82.5499999999998,24.1999999999999,0.260000000000129));
#819=CARTESIAN_POINT('',(60.3999999999998,26.1999999999999,0.26000000000014));
#820=CARTESIAN_POINT('Origin',(81.5499999999998,24.1999999999999,-0.739999999999871));
#821=CARTESIAN_POINT('',(80.5499999999998,24.1999999999999,-1.73999999999987));
#822=CARTESIAN_POINT('Origin',(-0.0500000000002066,24.1999999999997,59.2099999999999));
#823=CARTESIAN_POINT('',(-0.0500000000002038,24.1999999999997,57.21));
#824=CARTESIAN_POINT('',(-0.0500000000002066,24.1999999999997,59.2099999999999));
#825=CARTESIAN_POINT('',(-0.0500000000002038,24.1999999999997,57.21));
#826=CARTESIAN_POINT('',(-0.0500000000002038,26.1999999999997,57.21));
#827=CARTESIAN_POINT('',(-0.0500000000002038,24.1999999999997,57.21));
#828=CARTESIAN_POINT('',(-0.0500000000002032,26.1999999999997,59.2099999999999));
#829=CARTESIAN_POINT('',(-0.050000000000181,26.1999999999997,43.9725));
#830=CARTESIAN_POINT('',(-0.0500000000002066,24.1999999999997,59.2099999999999));
#831=CARTESIAN_POINT('Origin',(-0.0500000000002038,24.1999999999997,57.21));
#832=CARTESIAN_POINT('',(-2.0500000000002,24.1999999999997,57.21));
#833=CARTESIAN_POINT('',(-0.0500000000002038,24.1999999999997,57.21));
#834=CARTESIAN_POINT('',(-2.0500000000002,26.1999999999997,57.21));
#835=CARTESIAN_POINT('',(-2.0500000000002,24.1999999999997,57.21));
#836=CARTESIAN_POINT('',(20.0999999999998,26.1999999999997,57.21));
#837=CARTESIAN_POINT('Origin',(-1.0500000000002,24.1999999999997,58.21));
#838=CARTESIAN_POINT('',(-2.0500000000002,24.1999999999997,57.21));
#839=CARTESIAN_POINT('Origin',(-2.05000000000014,24.1999999999999,0.260000000000029));
#840=CARTESIAN_POINT('',(-0.0500000000001406,24.1999999999999,0.260000000000032));
#841=CARTESIAN_POINT('',(-2.05000000000014,24.1999999999999,0.260000000000029));
#842=CARTESIAN_POINT('',(-0.0500000000001406,24.1999999999999,0.260000000000032));
#843=CARTESIAN_POINT('',(-0.0500000000001405,26.1999999999999,0.260000000000041));
#844=CARTESIAN_POINT('',(-0.0500000000001406,24.1999999999999,0.260000000000032));
#845=CARTESIAN_POINT('',(-2.05000000000014,26.1999999999999,0.259999999999916));
#846=CARTESIAN_POINT('',(19.0999999999999,26.1999999999999,0.260000000000063));
#847=CARTESIAN_POINT('',(-2.05000000000014,24.1999999999999,0.260000000000029));
#848=CARTESIAN_POINT('Origin',(-0.0500000000001406,24.1999999999999,0.260000000000032));
#849=CARTESIAN_POINT('',(-0.0500000000001381,24.1999999999999,-1.73999999999997));
#850=CARTESIAN_POINT('',(-0.0500000000001406,24.1999999999999,0.260000000000032));
#851=CARTESIAN_POINT('',(-0.0500000000001388,26.1999999999999,-1.74000000000009));
#852=CARTESIAN_POINT('',(-0.0500000000001381,24.1999999999999,-1.73999999999997));
#853=CARTESIAN_POINT('',(-0.0500000000001588,26.1999999999999,14.4975));
#854=CARTESIAN_POINT('Origin',(-1.05000000000014,24.1999999999999,-0.739999999999968));
#855=CARTESIAN_POINT('',(-2.05000000000014,24.1999999999999,0.260000000000029));
#856=CARTESIAN_POINT('Origin',(40.2499999999998,28.1999999999998,28.7350000000001));
#857=CARTESIAN_POINT('',(80.5499999999998,28.1999999999999,-1.73999999999985));
#858=CARTESIAN_POINT('',(-0.0500000000001388,28.1999999999999,-1.74000000000008));
#859=CARTESIAN_POINT('',(-0.0500000000001386,28.2,-1.73999999999995));
#860=CARTESIAN_POINT('',(-2.05000000000014,28.1999999999999,0.259999999999925));
#861=CARTESIAN_POINT('',(-0.0500000000001388,28.1999999999999,-1.74000000000008));
#862=CARTESIAN_POINT('',(-2.0500000000002,28.1999999999997,57.21));
#863=CARTESIAN_POINT('',(-2.05000000000014,28.1999999999999,0.259999999999925));
#864=CARTESIAN_POINT('',(-0.0500000000002032,28.1999999999997,59.21));
#865=CARTESIAN_POINT('',(-2.0500000000002,28.1999999999997,57.21));
#866=CARTESIAN_POINT('',(51.8354705101758,28.1999999999997,59.21));
#867=CARTESIAN_POINT('',(50.9499999999998,28.1999999999997,59.21));
#868=CARTESIAN_POINT('',(82.5499999999998,28.1999999999998,25.3825114402616));
#869=CARTESIAN_POINT('',(51.5834972363909,28.1999999999997,59.4875111055875));
#870=CARTESIAN_POINT('',(82.5499999999998,28.1999999999999,0.260000000000148));
#871=CARTESIAN_POINT('',(82.5499999999998,28.1999999999998,25.3825114402616));
#872=CARTESIAN_POINT('',(80.5499999999998,28.1999999999999,-1.73999999999985));
#873=CARTESIAN_POINT('Origin',(-0.0500000000001411,26.1999999999999,0.259999999999918));
#874=CARTESIAN_POINT('',(24.5000003650784,26.1999999999999,0.260000000000101));
#875=CARTESIAN_POINT('',(6.26815658528334,26.1999999999999,0.259999999999965));
#876=CARTESIAN_POINT('',(40.2499999999998,26.1999999999999,0.260000000000219));
#877=CARTESIAN_POINT('',(6.26815658528334,24.1999999999999,0.259999999999965));
#878=CARTESIAN_POINT('',(6.26815658528334,26.1999999999999,0.259999999999965));
#879=CARTESIAN_POINT('',(24.5000003650784,24.1999999999999,0.260000000000101));
#880=CARTESIAN_POINT('',(6.26815658528334,24.1999999999999,0.259999999999965));
#881=CARTESIAN_POINT('',(24.5000003650784,26.1999999999999,0.260000000000101));
#882=CARTESIAN_POINT('Origin',(40.2499999999998,26.1999999999998,28.7350000000001));
#883=CARTESIAN_POINT('',(82.5499999999998,26.1999999999998,25.3825114402616));
#884=CARTESIAN_POINT('',(82.5499999999998,26.1999999999998,25.3825114402616));
#885=CARTESIAN_POINT('',(51.8354705101758,26.1999999999997,59.21));
#886=CARTESIAN_POINT('',(51.5834972363909,26.1999999999997,59.4875111055875));
#887=CARTESIAN_POINT('',(50.9499999999998,26.1999999999997,59.21));
#888=CARTESIAN_POINT('',(-2.05000000000019,26.1999999999999,48.0000007152557));
#889=CARTESIAN_POINT('',(-2.05000000000014,26.1999999999999,0.259999999999916));
#890=CARTESIAN_POINT('',(0.,26.1999999999999,48.0000007152557));
#891=CARTESIAN_POINT('',(0.,26.1999999999999,48.0000007152557));
#892=CARTESIAN_POINT('',(-0.0500000000001746,26.1999999999999,30.5709970940842));
#893=CARTESIAN_POINT('',(0.,26.1999999999999,48.0000007152557));
#894=CARTESIAN_POINT('',(-2.05000000000017,26.1999999999999,30.5709970940842));
#895=CARTESIAN_POINT('',(19.0999999999998,26.1999999999998,30.5709970940842));
#896=CARTESIAN_POINT('',(-2.05000000000014,26.1999999999999,0.259999999999916));
#897=CARTESIAN_POINT('',(-0.0500000000001386,26.2,-1.73999999999996));
#898=CARTESIAN_POINT('',(24.5000003650785,26.1999999999999,-1.49495160069113));
#899=CARTESIAN_POINT('',(24.5000003650783,26.1999999999999,13.6200241996544));
#900=CARTESIAN_POINT('',(6.26815658528334,26.1999999999999,-1.49495160069114));
#901=CARTESIAN_POINT('',(23.2590782926409,26.1999999999999,-1.49495160069108));
#902=CARTESIAN_POINT('',(6.26815658528333,26.1999999999999,14.4975));
#903=CARTESIAN_POINT('',(42.0000006258488,26.1999999999999,-1.49495160069113));
#904=CARTESIAN_POINT('',(42.0000006258488,26.1999999999999,0.));
#905=CARTESIAN_POINT('',(42.0000006258488,26.1999999999999,14.3675));
#906=CARTESIAN_POINT('',(63.0000009387732,26.1999999999999,0.));
#907=CARTESIAN_POINT('',(51.6250004693865,26.1999999999999,0.));
#908=CARTESIAN_POINT('',(63.0000009387732,26.1999999999999,-1.49495160069113));
#909=CARTESIAN_POINT('',(63.0000009387732,26.1999999999999,13.6200241996545));
#910=CARTESIAN_POINT('',(41.1250003129243,26.1999999999999,-1.49495160069113));
#911=CARTESIAN_POINT('Origin',(42.0000006258488,26.1999999999999,0.));
#912=CARTESIAN_POINT('',(42.0000006258488,24.1999999999999,-1.49495160069113));
#913=CARTESIAN_POINT('',(42.0000006258488,26.1999999999999,-1.49495160069113));
#914=CARTESIAN_POINT('',(42.0000006258488,24.1999999999999,0.));
#915=CARTESIAN_POINT('',(42.0000006258488,24.1999999999999,0.));
#916=CARTESIAN_POINT('',(42.0000006258488,26.1999999999999,0.));
#917=CARTESIAN_POINT('Origin',(63.0000009387732,26.1999999999999,0.));
#918=CARTESIAN_POINT('',(63.0000009387732,24.1999999999999,0.));
#919=CARTESIAN_POINT('',(63.0000009387732,24.1999999999999,0.));
#920=CARTESIAN_POINT('',(63.0000009387732,26.1999999999999,0.));
#921=CARTESIAN_POINT('Origin',(63.0000009387732,26.1999999999999,-1.49495160069113));
#922=CARTESIAN_POINT('',(63.0000009387732,24.1999999999999,-1.49495160069113));
#923=CARTESIAN_POINT('',(63.0000009387732,24.1999999999999,-1.49495160069113));
#924=CARTESIAN_POINT('',(63.0000009387732,26.1999999999999,-1.49495160069113));
#925=CARTESIAN_POINT('Origin',(42.0000006258488,26.1999999999999,-1.49495160069113));
#926=CARTESIAN_POINT('',(42.0000006258488,24.1999999999999,-1.49495160069113));
#927=CARTESIAN_POINT('Origin',(52.500000782311,24.1999999999999,-0.747475800345565));
#928=CARTESIAN_POINT('Origin',(6.26815658528334,26.1999999999999,0.259999999999965));
#929=CARTESIAN_POINT('',(6.26815658528334,24.1999999999999,-1.49495160069114));
#930=CARTESIAN_POINT('',(6.26815658528334,26.1999999999999,-1.49495160069114));
#931=CARTESIAN_POINT('',(6.26815658528334,24.1999999999999,-1.49495160069114));
#932=CARTESIAN_POINT('Origin',(24.5000003650785,26.1999999999999,-1.49495160069113));
#933=CARTESIAN_POINT('',(24.5000003650785,24.1999999999999,-1.49495160069113));
#934=CARTESIAN_POINT('',(24.5000003650784,24.1999999999999,0.260000000000101));
#935=CARTESIAN_POINT('',(24.5000003650785,26.1999999999999,-1.49495160069113));
#936=CARTESIAN_POINT('Origin',(6.26815658528334,26.1999999999999,-1.49495160069035));
#937=CARTESIAN_POINT('',(24.5000003650785,24.1999999999999,-1.49495160069113));
#938=CARTESIAN_POINT('Origin',(15.3840784751809,24.1999999999999,-0.617475800345519));
#939=CARTESIAN_POINT('Origin',(0.,26.1999999999999,48.0000007152557));
#940=CARTESIAN_POINT('',(-2.05000000000019,11.1999999999999,48.0000007152557));
#941=CARTESIAN_POINT('',(-2.05000000000019,26.1999999999999,48.0000007152557));
#942=CARTESIAN_POINT('',(0.,11.1999999999999,48.0000007152557));
#943=CARTESIAN_POINT('',(0.,11.1999999999999,48.0000007152557));
#944=CARTESIAN_POINT('',(0.,26.1999999999999,48.0000007152557));
#945=CARTESIAN_POINT('Origin',(-0.0500000000001746,26.1999999999999,30.5709970940842));
#946=CARTESIAN_POINT('',(-0.0500000000001746,11.1999999999999,30.5709970940842));
#947=CARTESIAN_POINT('',(0.,11.1999999999999,48.0000007152557));
#948=CARTESIAN_POINT('',(-0.0500000000001746,26.1999999999999,30.5709970940842));
#949=CARTESIAN_POINT('Origin',(-2.05000000000017,26.1999999999999,30.5709970940842));
#950=CARTESIAN_POINT('',(-2.05000000000017,11.1999999999999,30.5709970940842));
#951=CARTESIAN_POINT('',(-2.05000000000017,11.1999999999999,30.5709970940842));
#952=CARTESIAN_POINT('',(-2.05000000000017,26.1999999999999,30.5709970940842));
#953=CARTESIAN_POINT('Origin',(-1.0250000000001,11.1999999999999,39.28549890467));
#954=CARTESIAN_POINT('',(-2.05000000000017,11.1999999999999,30.5709970940842));
#955=CARTESIAN_POINT('Origin',(6.26815658528334,26.1999999999999,-1.74000000000008));
#956=CARTESIAN_POINT('',(-0.0500000000001388,26.1999999999999,-1.74000000000009));
#957=CARTESIAN_POINT('',(80.5499999999998,26.1999999999999,-1.73999999999986));
#958=CARTESIAN_POINT('Origin',(-0.0500000000001388,26.1999999999999,-1.74000000000009));
#959=CARTESIAN_POINT('',(-2.05000000000014,26.1999999999999,0.259999999999916));
#960=CARTESIAN_POINT('Origin',(82.5499999999998,26.1999999999999,0.260000000000139));
#961=CARTESIAN_POINT('',(82.5499999999998,26.1999999999999,0.260000000000139));
#962=CARTESIAN_POINT('Origin',(82.5499999999998,26.1999999999998,25.3825114402616));
#963=CARTESIAN_POINT('',(82.5499999999998,26.1999999999998,25.3825114402616));
#964=CARTESIAN_POINT('Origin',(51.8354705101758,26.1999999999997,59.21));
#965=CARTESIAN_POINT('',(51.8354705101758,26.1999999999997,59.21));
#966=CARTESIAN_POINT('Origin',(-0.0500000000002032,26.1999999999997,59.2099999999999));
#967=CARTESIAN_POINT('',(-0.0500000000002032,26.1999999999997,59.2099999999999));
#968=CARTESIAN_POINT('Origin',(-2.0500000000002,26.1999999999997,57.21));
#969=CARTESIAN_POINT('',(-2.0500000000002,26.1999999999997,57.21));
#970=CARTESIAN_POINT('Origin',(-2.05000000000019,26.1999999999997,48.1189441988596));
#971=UNCERTAINTY_MEASURE_WITH_UNIT(LENGTH_MEASURE(0.01),#975,
'DISTANCE_ACCURACY_VALUE',
'Maximum model space distance between geometric entities at asserted c
onnectivities');
#972=UNCERTAINTY_MEASURE_WITH_UNIT(LENGTH_MEASURE(0.01),#975,
'DISTANCE_ACCURACY_VALUE',
'Maximum model space distance between geometric entities at asserted c
onnectivities');
#973=(
GEOMETRIC_REPRESENTATION_CONTEXT(3)
GLOBAL_UNCERTAINTY_ASSIGNED_CONTEXT((#971))
GLOBAL_UNIT_ASSIGNED_CONTEXT((#975,#977,#978))
REPRESENTATION_CONTEXT('','3D')
);
#974=(
GEOMETRIC_REPRESENTATION_CONTEXT(3)
GLOBAL_UNCERTAINTY_ASSIGNED_CONTEXT((#972))
GLOBAL_UNIT_ASSIGNED_CONTEXT((#975,#977,#978))
REPRESENTATION_CONTEXT('','3D')
);
#975=(
LENGTH_UNIT()
NAMED_UNIT(*)
SI_UNIT(.MILLI.,.METRE.)
);
#976=(
LENGTH_UNIT()
NAMED_UNIT(*)
SI_UNIT($,.METRE.)
);
#977=(
NAMED_UNIT(*)
PLANE_ANGLE_UNIT()
SI_UNIT($,.RADIAN.)
);
#978=(
NAMED_UNIT(*)
SI_UNIT($,.STERADIAN.)
SOLID_ANGLE_UNIT()
);
#979=SHAPE_DEFINITION_REPRESENTATION(#980,#981);
#980=PRODUCT_DEFINITION_SHAPE('',$,#983);
#981=SHAPE_REPRESENTATION('',(#621),#973);
#982=PRODUCT_DEFINITION_CONTEXT('part definition',#987,'design');
#983=PRODUCT_DEFINITION('Lid','Lid v1',#984,#982);
#984=PRODUCT_DEFINITION_FORMATION('',$,#989);
#985=PRODUCT_RELATED_PRODUCT_CATEGORY('Lid v1','Lid v1',(#989));
#986=APPLICATION_PROTOCOL_DEFINITION('international standard',
'automotive_design',2009,#987);
#987=APPLICATION_CONTEXT(
'Core Data for Automotive Mechanical Design Process');
#988=PRODUCT_CONTEXT('part definition',#987,'mechanical');
#989=PRODUCT('Lid','Lid v1',$,(#988));
#990=PRESENTATION_STYLE_ASSIGNMENT((#991));
#991=SURFACE_STYLE_USAGE(.BOTH.,#992);
#992=SURFACE_SIDE_STYLE('',(#993));
#993=SURFACE_STYLE_FILL_AREA(#994);
#994=FILL_AREA_STYLE('Steel - Satin',(#995));
#995=FILL_AREA_STYLE_COLOUR('Steel - Satin',#996);
#996=COLOUR_RGB('Steel - Satin',0.627450980392157,0.627450980392157,0.627450980392157);
ENDSEC;
END-ISO-10303-21;
